<svg width="24" height="24" viewBox="0 0 24 24" fill="none" xmlns="http://www.w3.org/2000/svg"><path d="M6.76 22h10.48c2.76 0 3.86-1.69 3.99-3.75l.52-8.26A3.75 3.75 0 0 0 18 6c-.61 0-1.17-.35-1.45-.89l-.72-1.45A3.3 3.3 0 0 0 13.15 2h-2.29a3.3 3.3 0 0 0-2.69 1.66l-.72 1.45C7.17 5.65 6.61 6 6 6a3.75 3.75 0 0 0-3.75 3.99l.52 8.26C2.89 20.31 4 22 6.76 22M10.5 8h3" stroke="black" stroke-width="1.5" stroke-linecap="round" stroke-linejoin="round"/><path d="M12 18a3.26 3.26 0 0 0 0-6.5 3.26 3.26 0 0 0 0 6.5" stroke="black" stroke-width="1.5" stroke-linecap="round" stroke-linejoin="round"/></svg>