<svg width="20" height="20" viewBox="0 0 20 20" fill="none" xmlns="http://www.w3.org/2000/svg">
<path d="M7.08366 15.8327H6.66699C3.33366 15.8327 1.66699 14.9993 1.66699 10.8327V6.66602C1.66699 3.33268 3.33366 1.66602 6.66699 1.66602H13.3337C16.667 1.66602 18.3337 3.33268 18.3337 6.66602V10.8327C18.3337 14.166 16.667 15.8327 13.3337 15.8327H12.917C12.6587 15.8327 12.4087 15.9577 12.2503 16.166L11.0003 17.8327C10.4503 18.566 9.55033 18.566 9.00033 17.8327L7.75033 16.166C7.61699 15.9827 7.30866 15.8327 7.08366 15.8327Z" stroke="#879AFF" stroke-width="1.25" stroke-miterlimit="10" stroke-linecap="round" stroke-linejoin="round"/>
<path d="M13.3301 9.16667H13.3375" stroke="#879AFF" stroke-width="1.25" stroke-linecap="round" stroke-linejoin="round"/>
<path d="M9.99607 9.16667H10.0036" stroke="#879AFF" stroke-width="1.25" stroke-linecap="round" stroke-linejoin="round"/>
<path d="M6.66209 9.16667H6.66957" stroke="#879AFF" stroke-width="1.25" stroke-linecap="round" stroke-linejoin="round"/>
</svg>
