<svg width="18" height="18" viewBox="0 0 18 18" fill="none" xmlns="http://www.w3.org/2000/svg"><path d="M8.25 1.5h-1.5C3 1.5 1.5 3 1.5 6.75v4.5C1.5 15 3 16.5 6.75 16.5h4.5c3.75 0 5.25-1.5 5.25-5.25v-1.5" stroke="#8CA3FF" stroke-width="1.5" stroke-linecap="round" stroke-linejoin="round"/><path d="m12.03 2.27-5.91 5.9c-.23.23-.45.67-.5 1l-.32 2.25c-.12.82.46 1.4 1.28 1.28l2.25-.32c.32-.05.76-.27 1-.5l5.9-5.9c1.02-1.03 1.5-2.21 0-3.71s-2.68-1.02-3.7 0" stroke="#8CA3FF" stroke-width="1.5" stroke-miterlimit="10" stroke-linecap="round" stroke-linejoin="round"/><path d="M11.18 3.11a5.3 5.3 0 0 0 3.7 3.7" stroke="#8CA3FF" stroke-width="1.5" stroke-miterlimit="10" stroke-linecap="round" stroke-linejoin="round"/></svg>