<svg width="32" height="32" viewBox="0 0 32 32" fill="none" xmlns="http://www.w3.org/2000/svg"><path d="M20 29h-2M6 16h5.5M6 20h8m-8 4h4m-.5-13H8c-2.83 0-4.24 0-5.12.88S2 14.18 2 17v6c0 2.83 0 4.24.88 5.12S5.18 29 8 29h10m0 0v-5.5m0 3.5a2 2 0 1 0 4 0v-3.5" stroke="#CBD2D9" stroke-width="1.5" stroke-linecap="round" stroke-linejoin="round"/><path d="M14.4 4.76a7.92 7.92 0 0 1 11.2 11.2l-4.19 4.19a2 2 0 0 1-2.82 0l-4.19-4.19a7.9 7.9 0 0 1 0-11.2Z" stroke="#CBD2D9" stroke-width="1.5" stroke-linejoin="round"/><path d="M20 13.36a3 3 0 1 0 0-6 3 3 0 0 0 0 6" stroke="#CBD2D9" stroke-width="1.5" stroke-linecap="round" stroke-linejoin="round"/></svg>