<svg width="24" height="24" viewBox="0 0 24 24" fill="none" xmlns="http://www.w3.org/2000/svg">
<path d="M12 2.40039C17.3019 2.40039 21.5996 6.69807 21.5996 12C21.5996 17.3019 17.3019 21.5996 12 21.5996C6.69807 21.5996 2.40039 17.3019 2.40039 12C2.40039 6.69807 6.69807 2.40039 12 2.40039ZM16.4395 8.44141C16.1533 8.14205 15.6783 8.13181 15.3789 8.41797C13.5436 10.1721 11.9306 12.158 10.5889 14.3291L8.62988 12.3701C8.33698 12.0773 7.8622 12.0772 7.56934 12.3701C7.27684 12.663 7.27664 13.1379 7.56934 13.4307L10.21 16.0713C10.3749 16.2362 10.6076 16.3147 10.8389 16.2842C11.0702 16.2534 11.2744 16.1164 11.3906 15.9141C12.7527 13.5398 14.4492 11.3808 16.415 9.50195C16.7144 9.21576 16.7256 8.74083 16.4395 8.44141Z" fill="#1A1D21"/>
</svg>
