<svg width="32" height="32" viewBox="0 0 32 32" fill="none" xmlns="http://www.w3.org/2000/svg">
<rect width="32" height="32" rx="16" fill="#FCD6D6"/>
<path d="M19.7003 8.58301C18.192 8.58301 16.842 9.31634 16.0003 10.4413C15.1587 9.31634 13.8087 8.58301 12.3003 8.58301C9.74199 8.58301 7.66699 10.6663 7.66699 13.2413C7.66699 14.233 7.82533 15.1497 8.10033 15.9997C9.41699 20.1663 13.4753 22.658 15.4837 23.3413C15.767 23.4413 16.2337 23.4413 16.517 23.3413C18.5253 22.658 22.5837 20.1663 23.9003 15.9997C24.1753 15.1497 24.3337 14.233 24.3337 13.2413C24.3337 10.6663 22.2587 8.58301 19.7003 8.58301Z" fill="#FF5E54"/>
</svg>
