<svg width="32" height="32" viewBox="0 0 32 32" fill="none" xmlns="http://www.w3.org/2000/svg"><rect width="32" height="32" rx="16" fill="#B2F0CF"/><path fill-rule="evenodd" clip-rule="evenodd" d="M9.44 8.5c-.87 0-1.56.7-1.56 1.56V21a2.5 2.5 0 0 0 2.5 2.5h12.5a2.5 2.5 0 0 1-2.5-2.5V10.06c0-.86-.7-1.56-1.57-1.56zM16 14.13a.62.62 0 1 0 0 1.24h1.25a.62.62 0 1 0 0-1.24zm-.62-1.88c0-.35.27-.62.62-.62h1.25a.62.62 0 1 1 0 1.24H16a.6.6 0 0 1-.62-.62M11 16.63a.62.62 0 1 0 0 1.25h6.25a.62.62 0 1 0 0-1.25zm-.62 3.12c0-.35.27-.62.62-.62h6.25a.62.62 0 1 1 0 1.25H11a.6.6 0 0 1-.62-.63m.62-8.12a.6.6 0 0 0-.62.62v2.5c0 .35.27.63.62.63h2.5c.35 0 .63-.28.63-.63v-2.5a.6.6 0 0 0-.63-.62z" fill="#00B74B"/><path d="M21.63 11.63h1.56c.52 0 .93.41.93.93V21a1.25 1.25 0 1 1-2.5 0z" fill="#00B74B"/></svg>