<svg width="402" height="420" viewBox="0 0 402 420" fill="none" xmlns="http://www.w3.org/2000/svg"><g clip-path="url(#clip0_4474_41270)"><path d="M205.8 381.08h-9.93l-4.38-.3a156 156 0 0 1-31.87-5q-52.07-13.97-85.9-55.86a160 160 0 0 1-31.85-66.14 159 159 0 0 1-3.65-26.12q-.14-2.27-.3-4.53v-10.1q.08-.51.13-1.02c.23-3.45.37-6.92.7-10.37a159 159 0 0 1 3.95-22.91A163.3 163.3 0 0 1 121.95 75.4a161.5 161.5 0 0 1 76.66-20.38q1.04-.03 2.07-.1h.48q.39.06.79.08 12.26.07 24.39 1.97a162.5 162.5 0 0 1 96.04 52.27 161 161 0 0 1 25.38 37.8 162 162 0 0 1 16.21 69.04c0 .53.07 1.06.1 1.59v.64q-.06.43-.08.87a168 168 0 0 1-1.17 18.44 162 162 0 0 1-6.67 30.5 163.4 163.4 0 0 1-111.3 106.97 161 161 0 0 1-34.34 5.68zm-49.48-111.05-.7.32c-1.05.47-2.13.61-3.14-.02a4.8 4.8 0 0 1-1.3-6.74c.69-.95.97-1.92.72-3.08-.49-2.17-.8-4.3.04-6.52a3.9 3.9 0 0 0-1.94-4.57 4 4 0 0 1-1.15-.85c-1.05-1.3-2.4-1.45-3.91-1.2q-.7.12-1.43.21a3.8 3.8 0 0 1-2.97-.9q-.54-.45-1.2-.76c-.82-.4-1.45-.94-1.44-1.92.03-2.45 1.26-4.35 3.08-5.8.93-.75 1.52-1.55 1.49-2.65a10 10 0 0 0-.58-3.12c-.44-1.23-1.8-1.8-3.07-1.44a4.8 4.8 0 0 1-3.26-.39 3.8 3.8 0 0 0-5.1 2.06c-.3.66-.86 1.3-1.47 1.69-1.02.65-1.32 1.02-1.17 2.23.24 1.84-.91 3.04-2.79 2.93a4.6 4.6 0 0 1-4.12-3.77l-.18-1.5c-.1-.78-.42-1.44-1.22-1.6-1.59-.34-2.41-1.48-3.13-2.77q-.78-1.44-1.58-2.87c-1.13-2-1.98-4.12-2.24-6.38-.18-1.49-.05-3.05.2-4.53.5-2.97 1.06-5.92 3.05-8.4 1-1.24 1.68-2.74 1.38-4.46q-.03-.28.05-.55a3.9 3.9 0 0 1 5.18-2.14c.55.26.98.24 1.48-.1 1.17-.81 1.83-.75 2.97.08 1.01.74 2.12 1.3 3.42 1.1 1.37-.2 2.64.03 3.9.57 1.82.79 3.6 1.02 5.37-.32.54-.4 1.39-.43 2.11-.56.83-.14 1.69-.14 2.51-.29 1.7-.3 3.32-.52 4.72.87.67.66 1.55 1 2.54 1.05 2.09.09 3.02.94 3.25 2.99.13 1.05.37 2 1.14 2.82.35.38.42 1.01.67 1.5.28.52.52 1.12.95 1.48 1.36 1.15 1.59 1.6.85 3.23-.59 1.28-.38 2.58-.2 3.84.07.5.9.87 1.39 1.3l.28.29c.44.42 1.6.51 2.09.13.64-.5.5-1.1.15-1.71-.43-.79-.32-1.5.17-2.25.46-.68.8-1.44 1.15-2.2.06-.14-.04-.5-.16-.58-.93-.5-1.12-1.3-.96-2.25q.18-1.08-.67-1.77c-.25-.2-.46-.45-.69-.67a2.1 2.1 0 0 1-.44-2.64c.28-.54.67-1.02 1-1.53.25-.38.6-.73.7-1.14.36-1.33 1.21-2.06 2.48-2.48.38-.13.65-.6.98-.91.37-.35.7-.81 1.14-1.03.75-.37 1.55-.23 2.31.13 1.7.8 2.38.49 3.02-1.24.5-1.33 1.18-2.5 2.78-2.81.89-.18 1.7-.7 1.88-1.67.21-1.14.81-1.8 1.86-2.28.97-.45 1.08-.93.62-1.93-.42-.93-.34-1.69.45-2.37a3 3 0 0 0 1.03-2.43c0-1.37.58-2.25 1.89-2.73 2-.74 3.25-2.28 4.1-4.15a4.8 4.8 0 0 1 2.36-2.38c1.19-.58 2.75-.38 3.3.55.5.86 1.22 1.16 2.08 1.43 1.34.42 1.84 1.23 1.8 2.64-.02 1.06.37 2.16-.44 3.17.66-.26 1.63-.57 1.66-.95a7 7 0 0 1 1.69-3.85q.06-.1.09-.22c.28-.91.06-1.3-.83-1.67-.74-.31-1.47-.64-2.14-1.07-1.36-.86-1.49-1.86-.48-3.13q.15-.18.28-.4c1.33-2.23 2.6-2.7 5.14-2.04.6.16 1.41.2 1.9-.09a5.7 5.7 0 0 1 3.2-.78q.7.03 1.37-.08c1.13-.16 2.01-.6 2.5-1.79.76-1.83 1.87-2.3 3.82-2.08.7.08 1.44-.2 2.14-.38.8-.2 1.56-.48 2.33-.75.24-.08.57-.2.64-.37.06-.17-.15-.47-.29-.67-.1-.15-.28-.25-.42-.36-.81-.64-.95-1.46-.24-2.2.47-.47 1.1-.82 1.68-1.18.98-.58 2.02-1.08 2.98-1.7a3.3 3.3 0 0 1 3.49-.1c1.27.65 1.51 1.77.66 2.92-.33.45-.72.87-1.01 1.34q-.79 1.36.7 1.84c1.62.51 2.46.2 3.62-1.08q2.31-2.49 4.73-4.89 1.05-1.06 2.56-.76a2 2 0 0 0 1.1-.09c.97-.39 2.27-2.47 2.06-3.49-.23-1.15-1.32-1.43-2.27-1.78l-.38-.12c-1.01-.37-1.73-.97-1.88-2.15-.14-1.11-1.55-2.13-2.64-2-1.39.16-2.7-.01-3.68-1.1a2.7 2.7 0 0 0-1.89-1c-1.25-.12-1.77-1.31-.98-2.29a4 4 0 0 1 1.74-1.3c2.05-.68 3.7.2 5.12 1.63.47.47.93.66 1.62.58 2.09-.22 3.76.73 4.53 2.44.54 1.22.77 1.27 2.09.95 1.18-.28 2.4-.43 3.6-.63.5-.08 1.01-.1 1.5-.2.93-.2 1.6-.92 1.54-1.6-.06-.64-.92-1.27-1.8-1.32-.63-.04-1.28-.04-1.9-.14-.98-.16-1.66-.78-1.8-1.7a3.2 3.2 0 0 0-1.47-2.27c-.61-.43-1.25-.81-1.84-1.26-.44-.34-.88-.7-1.2-1.14-.69-.95-.83-1-1.92-.7q-2.34.63-4.7 1.2c-1.06.27-2.03-.01-2.67-.85-.61-.79-1.3-1.68-1.47-2.61-.44-2.63-4.27-4.1-6.5-2.18-1.66 1.45-3.94 1.1-5.39-.6a3.58 3.58 0 0 0-5.54-.07 4.5 4.5 0 0 1-3.12 1.6c-2.5.23-5.06.99-7.46-.5q-.04 0-.07-.02c-1.25-.36-1.72-1.1-1.54-2.4.04-.28.01-.57.01-.86 0-.73-.1-1.47 0-2.2.1-.85-.02-1.25-.84-1.51a7 7 0 0 1-3.03-2.02c-1.04-1.13-2.8-.93-3.7.35-.29.4-.75.78-1.22.94-.66.24-1.03.64-1.4 1.21a4.5 4.5 0 0 1-1.5 1.45c-1.28.7-1.39.92-.58 2.19.92 1.44.73 2.33-.71 3.27-.25.17-.54.28-.75.48a2 2 0 0 0-.41.7c-.4 1.17-.64 2.41-1.2 3.5-.3.59-1.08.98-1.72 1.32-.45.24-1.05.18-1.54.37-.33.12-.69.4-.84.7-.34.68-.56 1.43-.83 2.16-.47 1.3-1.45 1.87-2.76 1.93-1.1.04-2.2-.04-3.28 0a4 4 0 0 0-1.5.38c-.89.44-1.77.75-2.77.6-.72-.12-1.1-.61-.93-1.31a8 8 0 0 1 .68-1.95c.57-1.1 1.24-1.27 2.46-1.1.93.12 1.91.14 2.84-.02 1.52-.27 1.75-.7 1.52-2.2l-.07-.64c-.1-1.53.5-2.22 2.04-2.35 1.26-.1 1.74-.66 1.82-1.94.03-.57.28-1.12.36-1.7.06-.47.13-.99 0-1.43-.38-1.26-.87-2.5-1.31-3.74l-.72-2-.28.1c.1.64.23 1.28.3 1.94.08.65 0 1.33.15 1.96.34 1.47 0 2.22-1.36 2.8q-.69.31-1.32.74c-1.3.9-2.67.56-3.55-.77a6 6 0 0 0-1.74-1.71c-.35-.21-1.02.1-1.53.2a2.83 2.83 0 0 1-3.22-2.1c-.38-1.45-.38-1.44-1.85-1.27a5 5 0 0 1-1.28.04 4.5 4.5 0 0 1-2.92-1.47 7 7 0 0 0-1.42-1.22c-.7-.43-1.25-.95-1.35-1.77a4.7 4.7 0 0 0-1.33-2.75c-.67-.7-.75-1.7-.14-2.42.96-1.13 2.05-2.15 3.7-2.04q2.67.18 5.34.4c1.73.15 3.4-.02 5.03-.63 1.32-.49 2.66-1 4.04-1.18 2.86-.37 5.6-.99 8.1-2.52.52-.33 1.2-.4 1.8-.59.73-.24 1.52-.39 2.16-.77.37-.22.5-.82.75-1.25-.37-.07-.74-.19-1.12-.22-1.07-.08-1.46-.68-1.04-1.69.15-.38.35-.75.6-1.29-.43.05-.7.04-.96.11-1.5.43-3 .9-4.49 1.33a2 2 0 0 1-.79.08c-1.76-.39-3.54-.75-5.28-1.23-1.04-.29-1.48-1.1-1.52-2.2a4 4 0 0 0-.43-1.56c-.44-.82-.49-1.53.06-2.32.3-.42.5-.94.64-1.45.2-.7-.22-1.64-.84-2.02-.66-.42-1.3-.5-1.95.11-.24.23-.74.17-1.12.25-.34.08-.79.07-1.02.29-.97.9-1 1.32-.34 2.54q.12.22.2.43c.6 1.53-.46 2.82-2.08 2.62-.31-.04-.76.07-.97.29-.91.92-3.25 1.35-4.4.75-1.43-.76-1.94-3.05-.95-4.49.35-.52.44-1.02.1-1.48-.65-.86-.53-1.8-.43-2.75.04-.33 0-.72-.15-.99q-.51-.86-1.17-1.62c-.75-.86-1.8-.8-2.42.16-.45.69-.99 1.16-1.82 1.3-.57.09-.9.48-.74 1.02q.25.88.8 1.6c.93 1.2.92 2.06-.28 3-.85.68-.99 1.42-.7 2.4.12.44.08 1.04-.14 1.4-.26.42-.28.7-.07 1.09.62 1.16 1.21 2.34 1.87 3.49a1.93 1.93 0 0 1-1.54 2.92c-1.2.06-2.35-.95-2.5-2.24-.11-.9-.2-1.75-1.14-2.23-.22-.11-.4-.45-.45-.72-.36-1.67-.98-3.28-.23-5.06.7-1.65.07-2.75-1.66-3.4-1.72-.63-2.84-2.05-4.4-2.86-.3-.16-.4-.66-.62-1-.3-.43-.53-.93-.92-1.27-.45-.4-.62-.83-.5-1.4l.63-3.13c.03-.2.03-.44-.05-.62a6.7 6.7 0 0 1-.33-3.77c.06-.52.04-1.25-.27-1.58-.76-.8-1.64-1.57-2.9-1.46a4 4 0 0 1-2.84-.85c-.92-.72-1.9-.62-2.85-.13-.28.14-.54.52-.61.83-.23 1.01-.51 1.33-1.54 1.55-.49.11-1.02.18-1.45.41-.24.13-.52.66-.44.85.43.99.27 1.95.15 2.96-.2 1.7-1 2.75-2.68 3.1a1.87 1.87 0 0 1-2.28-1.99c.03-.42.13-.84.21-1.26.23-1.2-.17-1.96-1.31-2.37-.77-.27-1.2-.72-1.2-1.58 0-.31-.18-.63-.31-1.08-2.22 1.43-4.31 2.76-6.39 4.11-.74.49-.8 1.02-.26 1.73.82 1.06.73 1.95-.28 2.85-.54.48-1.11.92-1.64 1.4-.24.23-.6.65-.54.79.16.3.52.55.85.73.3.16.7.13.98.3.34.23.79.55.83.88.18 1.4.89 2.41 2 3.22a2.56 2.56 0 0 1 1.02 2.98c-.34 1.08-.92 2.09-1.38 3.13-.28.65-.63 1.28-.78 1.96a5.7 5.7 0 0 1-1.74 3.24 9 9 0 0 0-2.8 4.84 8 8 0 0 1-1.16 2.6c-.4.56-1.1 1.17-1.74 1.26-1.8.26-3.5-.1-4.3-2.07-.22-.55-.78-.97-1.18-1.45-.22.81-.2 1.49-.32 2.14a3.1 3.1 0 0 0 1.13 3.06c.57.48 1.2.89 1.77 1.38 1.18 1.01 2.16 2.13 2.01 3.87a4.2 4.2 0 0 1-2.24 3.55c-.48.27-1.05.6-1.27 1.04-.41.86-1 1.49-1.71 2.07-.3.25-.54.6-.73.94-.97 1.83-1.68 3.7-.99 5.82.1.3.12.63.16.95.19 1.77.06 3.43-1.53 4.6q-1.23.94-2.5 1.87c-.18.13-.42.25-.65.28-1.88.26-2.81 1.54-3.52 3.13a33 33 0 0 1-1.67 3.27c-1.33 2.24-2.3 4.56-2.15 7.24a7.7 7.7 0 0 1-1.2 4.5 6 6 0 0 0-.84 4.75c.36 1.47.5 3 1.47 4.28q.8 1.09 1.4 2.3c.6 1.22 1.02 1.47 2.32 1.07 1.09-.34 2.02-.1 2.61.83.5.79.77 1.73 1.18 2.59q.58 1.15 1.2 2.29c.3.53.67 1.04.84 1.61.5 1.71.54 3.42-.2 5.1a10.5 10.5 0 0 0-.91 5.83 8 8 0 0 0 .99 3.33c1.1 1.76 2.11 3.55 2.51 5.66a7 7 0 0 0 1.38 3.02c1.53 1.82 2 3.88 2.05 6.16.05 3.12.1 6.24.34 9.35.2 2.5.34 5.1 2.23 7.1q.09.13.16.28c1.17 1.84 2.28 3.72 3.54 5.5.95 1.37 2.13 2.57 3.83 3q1.56.4 2.6 1.63c.3.35.73.62 1.14.85a10 10 0 0 0 4.46 1.07c3.38.2 5.31 1.6 5.6 4.73l.12.96c.1.94.4 1.82 1.2 2.35 1.03.7 2.1 1.42 3.25 1.83.88.3 2.01.39 2.86.09 1.3-.47 2.73.13 2.56 1.5a7 7 0 0 1-1.07 2.6c-.58 1-.65 1.23.04 2.15q.22.29.46.55c1.28 1.32 1.42 2.92 1.14 4.61-.2 1.21-.52 2.4-.7 3.61-.12.77.2.96.94.66.9-.38 1.13-1.14 1.17-2.01.06-1.18 0-2.37.2-3.52a5 5 0 0 0-.5-3.08 12 12 0 0 1-.98-3.02c-.2-1.3.43-2.41 1.5-3.17.98-.7 2-.36 2.94.16 4.1 2.24 5.98 7.37 3.1 11.78-.33.5-.58 1.1-.64 1.68-.1.79.54 1.31 1.32 1.24q1.35-.13 2.69-.36c2.35-.44 3.8.64 4.18 2.99.15.98.32 2.12.9 2.84 1.02 1.28 2.32 2.34 3.6 3.39.67.56 1.57.4 2.37.12.2-.07.42-.43.41-.65-.04-1.09-.15-2.17-.25-3.37m50.2 109.5c-.27-1-.4-1.86-.73-2.64-.53-1.27-.46-2.32.4-3.27.78-.86 1.62-1.1 2.74-.56 1.52.75 2.78.32 4-.6 1-.76 2.1-1.07 3.38-.91q.99.12 1.98-.03a5.4 5.4 0 0 0 3.98-2.9c.84-1.5 1.47-1.6 3.04-.94.4.17.9.31 1.31.22 1.57-.33 3.04-.87 3.83-2.46a5 5 0 0 1 2.16-2.06c3.18-1.69 6.12-3.7 8.21-6.72a4.6 4.6 0 0 1 3.96-2.17q1.39-.02 2-1.36c.7-1.55 1.49-3.06 2.19-4.62 1.08-2.38 3.14-3.59 5.7-3.07 1.42.28 2.67.03 3.83-.68a14 14 0 0 1 5.19-1.79c2.85-.41 4.58-2.18 6.05-4.5 1.52-2.41 2.36-5.17 4.22-7.4.83-1 1.57-2 2.74-2.6.9-.47 1.25-1.24 1.38-2.2.12-.78.4-1.54.57-2.31.16-.71.34-1.44.37-2.16.02-.6-.2-1.21-.24-1.82-.11-1.7.42-3.34 1.75-4.27 1.75-1.22 3.7-2.19 6.03-1.92 1.99.23 2.51-.21 3.36-2 .6-1.27 1.15-2.62 2.36-3.46.6-.42.67-.86.45-1.5-.26-.78-.58-1.58-.62-2.38-.17-3.05-2.29-4.35-5.07-3.06-.52.23-1.2.48-1.68.34-1.22-.37-2.3-.01-3.43.26-.26.06-.56.16-.79.09-.42-.15-.96-.33-1.16-.66-.17-.3-.05-.9.14-1.25.5-.89 1.36-1.27 2.35-1.27a9 9 0 0 0 5.07-1.48c.32-.23.68-.42.96-.7.15-.13.25-.46.18-.63-.05-.14-.4-.27-.58-.23-.6.14-1.28.22-1.71.58a7.3 7.3 0 0 1-4.76 1.54c-.84.02-1.86.21-2.46.73-1.74 1.48-3.59 1.5-5.64.98a14 14 0 0 0-6.16-.39q-1.36.25-2.36-.71-.68-.67-1.25-1.45c-.76-1.05-1.36-1.38-2.6-.97-1.04.34-2 .94-3.01 1.4-.3.15-.62.31-.93.32-.64.01-1.28-.08-1.92-.12-2.05-.13-3.95-2-3.9-3.96.03-1.5-.21-3.03.38-4.5.17-.43.16-.95.19-1.43.06-1.11-.54-2.2-1.6-2.5a4.7 4.7 0 0 1-3.39-3.09c-.36-.99-1.14-1.48-2.22-1.55-.55-.04-1.1-.23-1.65-.29-1.13-.12-2.27-.25-3.4-.26-.96 0-1.66.5-1.93 1.5-.1.35-.27.73-.51.98-.5.51-.33.88.12 1.27l.5.4c.8.7.8 1.57-.03 2.24-.74.6-1.6.65-2.5.57-.6-.06-1.24-.1-1.82.03a4.14 4.14 0 0 1-4.74-1.88 2.4 2.4 0 0 1 .18-2.83l2.6-3.17c.4-.5.45-1.05.05-1.54-.47-.56-.92-1.31-1.79-1.12-.95.22-1.88.57-2.8.94a3.7 3.7 0 0 1-4.2-1.22c-.7-1.04-1.47-2.05-1.98-3.17-1.08-2.4-1.2-2.26-3.63-2.18a2.3 2.3 0 0 1-2.14-1.17c-.28-.5-.36-1.03.34-1.33.72-.31 1.52-.54 2.15-.99 1.33-.93 2.57-1.99 3.95-3.07-.91-.27-1.6 0-2.16.5-2.09 1.84-4.61 2.55-7.27 2.68-3.93.2-7.84.04-11.7-.85-.9-.2-1.83-.32-2.63.27-1.48 1.09-2.8.64-4.2-.22-1-.6-2.14-.94-3.23-1.37-.14-.06-.42-.02-.52.09-1.04 1.02-2.64 1.32-3.4 2.68q-.38.66-.73 1.32c-.84 1.6-2.1 1.74-3.3.4q-.4-.44-.89-.8c-.65-.52-1.34-1-1.99-1.54-.56-.47-1.05-1.18-1.89-1.02q-1.22.25-2.34.77c-.33.14-.63.51-.77.85q-.54 1.41-.97 2.87a5.5 5.5 0 0 1-3.22 3.66c-1.43.59-1.97 1.53-1.74 3q.09.53.1 1.04l-.17 2.27c-.04.46-.15.94-.07 1.39.3 1.57-.55 3.52-1.96 4.24-.56.29-.5.66-.19 1.03q.81.95 1.65 1.85c1 1.09.9 2.63-.3 3.5q-.6.44-1.3.77c-1.18.55-2.22-.2-2.14-1.51.02-.34.1-.69.1-1.03.02-.83-.14-.9-.94-.72q-1.04.27-2.1.27c-.97-.03-1.46.2-1.95 1.04-.46.78-1.01 1.5-1.44 2.29-.2.38-.36.88-.31 1.3a4 4 0 0 1-.48 2.83c-1.17 1.9-.3 3.85 1.77 4.74.44.19.82.57 1.2.88.31.25.56.57.88.8q1.78 1.3.26 2.88c-.24.25-.53.46-.75.73-.16.2-.4.53-.32.68.35.82.66 1.7 1.22 2.37 1.53 1.79 2.83 3.6 2.09 6.14-.2.66 0 1.13.55 1.52.85.63 1.72.92 2.83.66.7-.17 1.72-.23 2.22.15a9 9 0 0 1 2.8 4.27q.5 1.39 1.15 2.7c.1.2.52.42.69.35.9-.35 1.47.12 2.07.65.62.54 1.22 1.13 1.9 1.58 1.1.7 2.26.08 2.41-1.18.1-.79.2-1.6.47-2.33.44-1.15 1.46-1.36 2.47-.66.33.22.7.42 1.07.52 1.95.52 2.85 1.76 2.61 3.76-.1.88.29 1.45.93 1.98.44.35.78.84 1.2 1.23.5.48.98 1.1 1.59 1.35 1.1.44 1.8 1.16 2.05 2.27.24 1.04.72 1.9 1.37 2.75.92 1.22 1.28 2.58.48 4.1-.6 1.15-1.01 2.39-1.51 3.58-.23.57-.42 1.16-.7 1.7-.37.66-1.02.86-1.73.7-.68-.16-1.01-.72-1.03-1.37-.01-.55.17-1.1.2-1.65.07-.79.25-1.61.08-2.36-.23-1.08-.72-2.1-1.12-3.14-.07-.18-.23-.32-.43-.6-.75 1-1.12 2-1.04 3.13.07 1.04.33 2.06.35 3.1a6 6 0 0 0 1.21 3.68c1.26 1.7 1.95 3.65.6 5.71-.3.45-.54.93-.81 1.39-.5.85-.66 1.65-.1 2.62.34.57.34 1.36.4 2.06.07.95.06 1.9.07 2.86 0 .74.13 1.52-.06 2.21-.57 2.02-1.28 4-1.92 5.99-.07.2-.12.44-.06.63q.55 1.97 1.18 3.92c.08.23.32.42.5.62.2.24.48.44.63.71.28.5.69.6 1.2.62l14.49.3c.51.01 1.01-.04 1.84-.08m143.43-224.21c-.8.52-1 1.25-1.06 1.98-.12 1.3-.9 2.06-1.97 2.62-.58.3-1.17.38-1.74-.03q-.85-.59-.73-1.66c.11-.97-.42-1.5-1.4-1.46l-.4.02c-1.46.04-2.23-.61-2.46-2.05a3 3 0 0 0-.3-.99c-.8-1.48-.64-2.9-.02-4.44.53-1.3.82-2.7 1.09-4.07.18-.92-.36-1.3-1.29-1.08q-.7.16-1.41.27c-1.35.24-1.95 1.53-1.38 2.73.42.9.9 1.8.63 2.9-.22.91-.34 1.86-.51 2.8-.07.38-.04.83-.23 1.16-.52.95-.42 1.88-.14 2.86.6 2.12.29 3.04-1.56 4.3a6.7 6.7 0 0 0-2.57 3c-.85 2.12-1.6 4.28-2.37 6.44-.11.32-.12.69-.12 1.03q.01 2.04.1 4.08c.03.69.1 1.4.33 2.04.14.4.54.86.92.98 1.87.56 2.11 2.42 1.8 4.01-.3 1.64-.67 3.28-.99 4.92-.14.74-.17 1.5-.88 1.97-.57.37-.72.93-.87 1.55-.16.68-.53 1.32-.73 2-.42 1.38-.94 2.77-1.14 4.2-.22 1.62-.1 3.28-.18 4.92-.05.86-.07 1.66.3 2.5.52 1.16.63 2.4.18 3.66q-.46 1.21-.59 2.48c-.15 1.7-.1 3.37 1.51 4.53.93.65 1.27 1.62 1.36 2.76a10 10 0 0 1-.75 4.3c-.3.8-.44 1.68-.56 2.53-.14.92-.02 1.89-.27 2.76a7.8 7.8 0 0 0 .9 6.6c.28.42.8.7 1.24 1.01.6.42 1.29.73 1.8 1.23.73.73 1.35 1.58 2 2.4a3.3 3.3 0 0 0 2.37 1.32c1.04.1 1.84.66 2.52 1.41.3.34.54.73.85 1.07.6.65 1.4 1.26 2.24.89 1.41-.63 2.7-1.53 4.04-2.33.13-.07.2-.25.28-.38a7.4 7.4 0 0 0 1.22-3.44c.07-.93.49-1.72 1.25-2.23a5.5 5.5 0 0 0 2.63-5.06 4 4 0 0 1 1.35-2.97c.6-.6 1.01-1.4 1.53-2.1.36-.48.69-1.04 1.16-1.38 1.05-.77 2.3-.15 2.33 1.16.02.68-.18 1.37-.24 2.05q-.09 1.17-.13 2.34l.24.08c.17-.13.43-.23.5-.4.66-1.56 1.88-2.87 2.06-4.65.05-.47.29-.9.43-1.36.13-.42.35-.84.36-1.26a161 161 0 0 0-10.5-61.42c-.65-1.68-1.34-3.35-2.03-5.1M125.7 303.02c0-.43.02-.66 0-.9-.78-7.83-1.65-15.65-2.32-23.49-.79-9.13-.79-18.29-.63-27.44.01-.83-.2-1.14-1-1.35a228 228 0 0 1-36.92-13.5q-.3-.13-.69-.26c-.02.28-.05.46-.04.64q.2 14.51 1.82 28.92c.82 7.39 2.12 14.73 3.16 22.1.12.84.48 1.3 1.2 1.7a127 127 0 0 0 25.54 10.74c3.25.97 6.5 1.87 9.88 2.83m150.89-4.22c.33-.22.58-.32.75-.5a5 5 0 0 1 4.48-1.44c1.65.2 3.06-.1 4.3-1.2.2-.17.47-.26.72-.35.95-.37 2.12-.08 2.43.59.34.73-.08 1.43-1.16 2.06a14 14 0 0 1-5.29 1.72c-.75.1-1.42.4-1.75 1.33 1.5-.21 2.9-.26 4.23-.64 9.28-2.7 18.16-6.38 26.6-11.14.49-.28.72-.62.78-1.18.15-1.22.37-2.43.54-3.64 1.13-8 2.7-15.96 3.2-24.04.48-7.75.87-15.51 1.3-23.27.02-.32 0-.65 0-1.09-1.35.62-2.53 1.18-3.73 1.7a230 230 0 0 1-34.1 12.19c-.49.13-.84.23-.83.91.16 9.03.15 18.05-.56 27.06q-.66 8-1.4 16.03c-.14 1.59-.33 3.17-.51 4.9M87.97 288.12l-.6-4.03c-.88-5.99-1.95-11.96-2.6-17.98a294 294 0 0 1-1.82-29.96c0-.58-.23-.83-.7-1.1-4.58-2.58-9.24-5.04-13.7-7.82-6.92-4.32-13.8-8.72-20.2-13.84-.09-.07-.2-.1-.4-.2 0 1.95-.08 3.82.02 5.67q.59 11.52 1.3 23.02a158 158 0 0 0 2.62 21.6c.1.5.43 1.04.83 1.36 1.68 1.36 3.35 2.75 5.15 3.94q12.01 7.88 24.08 15.68c1.9 1.23 3.87 2.36 6.02 3.66m191.08-38.94c.26-.05.48-.06.68-.11a231 231 0 0 0 37.36-13.73c.53-.24.67-.56.68-1.1.2-12.36-1.06-24.57-3.67-36.65-.3-1.42-.66-2.84-1-4.32l-.92.38c-3.99 1.6-7.94 3.28-11.96 4.79a225 225 0 0 1-24.42 7.38c-.75.19-1.04.4-.88 1.27.42 2.28.71 4.59 1.02 6.89a409 409 0 0 1 2.94 31.89zm15.93-99.78c-9.85 4.14-19.55 8.24-29.85 10.9a356 356 0 0 1 9.5 45.02c4.67-1.3 9.19-2.5 13.65-3.83 8.1-2.42 16.05-5.3 23.8-8.74.65-.3.78-.6.58-1.26-.6-1.93-1.1-3.9-1.72-5.83-3.31-10.43-7.86-20.34-12.71-30.12-1.02-2.05-2.14-4.05-3.25-6.14m-212.2 84.97.13-.26.01-1.28a159 159 0 0 1 4.59-39.1c.17-.72.06-1.04-.65-1.38-11.71-5.67-23.08-11.93-33.68-19.53-.12-.1-.26-.16-.45-.27l-.25.88c-3.06 11.58-4.22 23.4-4.5 35.34-.07 3.26-.11 3.32 2.5 5.24a257 257 0 0 0 29.2 18.76q1.51.8 3.1 1.6m53.6 111.61-.22-.57c-1.02-2.52-2.12-5.02-3.05-7.57-1.6-4.4-2.46-9-3.3-13.59-1.18-6.42-2.45-12.83-3.62-19.26-.16-.85-.55-1.1-1.3-1.3-12.12-3.06-23.87-7.12-34.8-13.32-.15-.1-.33-.14-.56-.24l.06.61c1.33 8.2 2.94 16.33 5.1 24.36 1.74 6.48 3.28 13.04 5.84 19.28.17.41.58.84.98 1.03a66 66 0 0 0 4.28 1.8c8.2 3.18 16.67 5.43 25.2 7.52 1.73.42 3.47.8 5.39 1.25m-12.62-95.56v3.94c-.1 10.02.08 20.02 1.1 30q.9 8.95 1.78 17.92c.08.71.36 1.02 1.08 1.2a354 354 0 0 0 27.47 5.8c1.3.23 2.61.4 4.04.61-.39-.93-.15-1.6.39-2.2.23-.26.5-.49.72-.75.38-.48.39-.9-.2-1.27-.3-.2-.54-.5-.82-.74-.58-.53-1.14-1.09-1.76-1.57-1.05-.8-2.04-1.69-1.85-3.13.12-.95.53-1.88.9-2.78.25-.62.38-1.11-.23-1.63-.35-.3-.57-.72-.12-1.23.5-.58.89-1.25 1.34-1.87.4-.55.7-1.08.63-1.82q-.74-7.53-1.44-15.07l-.14-.9c-2.54.28-2.73.26-4.58-1.05-.6-.42-1.03-1.1-1.62-1.52-1.41-1.01-1.9-2.46-2.14-4.06-.3-1.87-1.06-2.39-2.94-2.07-.83.14-1.69.28-2.53.28-2.1.02-3.35-1.65-2.75-3.68.22-.73.6-1.42.88-2.14.62-1.5.93-3.05.62-4.69-.14-.75-.45-1.2-1.29-1.37-1.44-.27-2.85-.7-4.27-1.05l-1.01-.2c.42 1.1.8 2.01 1.11 2.94.25.72.55 1.47.57 2.22.05 1.57-.05 3.14-.11 4.72-.05 1.2-.54 2.16-1.64 2.74-.64.34-1.3.59-1.96.13-.68-.46-.76-1.2-.66-1.94.12-.84.31-1.67.45-2.51a5.5 5.5 0 0 0-1.16-4.7c-1.15-1.35-1.16-2.59-.13-4 .09-.12.15-.26.28-.47zM72.29 128.55q-.18.19-.32.37c-2 3.02-4.17 5.95-5.99 9.09-5.73 9.9-9.53 20.6-12.54 31.6-.53 1.95-.52 1.98 1.11 3.12 10.38 7.29 21.44 13.4 32.85 18.92q.24.09.5.16c.06-.12.12-.18.14-.26q1.72-5.54 3.41-11.08c.07-.23.03-.52-.05-.75q-.27-.83-.62-1.63c-.32-.67-.63-1.35-1.04-1.96-.37-.56-.93-.75-1.61-.45-.72.3-1.48.25-2.04-.28s-1.01-1.2-1.44-1.85c-.41-.61-.64-1.36-1.1-1.93-2.74-3.33-3.18-7.05-1.17-10.83.6-1.14.88-2.31.9-3.6.02-.9.05-1.84.35-2.67.52-1.45 1.23-2.83 1.92-4.21.75-1.5 1.6-2.95 2.35-4.44.8-1.6 1.89-2.84 3.76-3.16.17-.02.32-.13.55-.23-6.92-4.33-13.64-8.8-19.92-13.93m54.68 175.72.24 1.51c1.27 6.65 2.6 13.3 3.78 19.96a76 76 0 0 0 6.19 19.7c.26.55.58.87 1.21.98 2.76.48 5.5 1.13 8.27 1.5 6.98.91 13.97 1.71 20.96 2.53 1.4.17 2.8.21 4.28.32-.1-.36-.15-.58-.24-.8a199 199 0 0 1-8.48-29.5c-.06-.25-.12-.56-.29-.73-.86-.87-.81-1.87-.4-2.9.28-.72.19-1.33-.28-1.93q-.18-.25-.27-.57c-.81-2.08-2.01-3.68-4.5-3.76q-.23 0-.47-.06a341 341 0 0 1-28.58-5.91zm119.23-92.55c1.05 15.24.97 30.35.11 45.54l.71-.1 30.3-7.43c.47-.12.65-.34.62-.83-.1-1.5-.14-2.99-.23-4.48a417 417 0 0 0-3.17-32.25c-.26-1.9-.56-3.8-.85-5.8a198 198 0 0 1-27.49 5.35m-193.84 54.1c.02.22.01.32.04.42l7.48 30.44c.08.36.27.7.45 1.02a159 159 0 0 0 16.42 23.72q.33.4.76.7c6.45 4.38 13.11 8.4 20.25 11.6l1.68.76-.39-1.06c-.51-1.4-1.09-2.79-1.52-4.21-3.88-12.86-7.2-25.85-9.23-39.14-.09-.6-.35-.92-.85-1.23a537 537 0 0 1-29.2-18.66c-1.97-1.36-3.85-2.85-5.9-4.37m187.28-100.03c-.3 0-.51-.02-.72 0-7.84.89-15.68 1.8-23.52 2.63-.86.09-1.03.34-1.01 1.13q.27 11.69.5 23.37l.37 19.37c0 .49-.02.88.7.84 3.13-.17 6.29-.22 9.42-.46 6.15-.46 12.28-1.02 18.42-1.53 1.17-.1 1.17-.1 1.09-1.27l-.02-.24a433 433 0 0 0-4.3-38.17zm62.84 168.63c.34-.13.57-.22.8-.33a133 133 0 0 0 21.12-12.02c.42-.28.78-.66 1.1-1.05a158 158 0 0 0 15.87-22.93q.4-.7.6-1.47 3.45-13.7 6.85-27.4c.27-1.08.45-2.2.72-3.5-1.3 1-2.4 1.9-3.55 2.71-10.19 7.33-20.86 13.92-31.6 20.41-.5.3-.76.63-.85 1.23a239 239 0 0 1-5.54 26.05c-1.65 5.99-3.06 12.05-5.42 17.82-.04.11-.05.24-.1.48m-24.54-83.92c-.24.04-.39.06-.54.1l-30.53 7.46c-.5.12-.6.37-.64.82q-.71 10.06-1.45 20.13c-.03.44.08.61.53.68 1.23.16 2.17.84 2.63 1.97a4.2 4.2 0 0 0 2.85 2.55c1.73.53 2.6 2.2 2.26 3.98-.14.7-.44 1.38-.53 2.1-.17 1.2-.25 2.43-.34 3.65 0 .17.06.4.18.52.85.87 1.64 1.83 2.96 2.04 1.48.23 2.82.08 4.2-.72 2.06-1.17 3.92-1.26 5.36 1.11a2.4 2.4 0 0 0 2.67 1.22 8 8 0 0 1 4.18.3q1.4.44 2.83.83c.88.24 1.02.12 1.1-.79l1.5-16.1c.97-10.21 1.04-20.45.86-30.7q-.02-.54-.08-1.15m-47.72 9.84c-.38-.71-.73-1.27-.98-1.87-.23-.6-.33-1.24-.54-1.84-.28-.79-.73-.93-1.48-.56-.4.2-.81.42-1.24.55-1.23.38-2.18-.17-2.5-1.42-.16-.67-.24-1.36-.38-2.04-.18-.84.08-1.42.85-1.86.42-.24.84-.62 1.04-1.05a2.4 2.4 0 0 1 2.36-1.48c.77 0 1.55.12 2.32.07 1.66-.1 3.04.35 4.01 1.78.12.17.3.34.48.4.26.1.6.21.83.13.59-.23 1.32-.43 1.67-.88a4.2 4.2 0 0 1 3.87-1.76q.28 0 .55-.09c.83-.22 1.55-.12 2.03.67.51.83.68 1.68 0 2.52l-1.28 1.54c-.54.65-1.19 1.28-1.1 2.22.09.98.26 1.95.4 3 1.2-.25 2.39-.46 3.55-.74.18-.05.4-.39.42-.6q.13-1.88.2-3.76c.68-13.56.65-27.11-.23-40.66q-.03-.32-.11-.72c-1.45.15-2.82.35-4.2.45q-12.25.86-24.52 1.66c-.78.05-.94.3-.94 1.04q.22 22.98.39 45.96v1.1zm83.66 27.72.97-.54c6.2-3.88 12.42-7.72 18.59-11.65 5.38-3.43 10.71-6.93 15.65-10.99.36-.3.74-.75.82-1.19.55-3.12 1.16-6.25 1.51-9.4.58-5.22.98-10.47 1.44-15.7q.15-1.94.28-3.99c-.85.67-1.67 1.2-2.32 1.87a3.6 3.6 0 0 0-.81 1.67c-.54 2.48-1 4.99-3.89 5.92-.12.04-.22.15-.33.23-2.27 1.65-4.44 1.32-6.1-.96-.64-.9-1.42-1.5-2.54-1.6a3.6 3.6 0 0 1-2.35-1.26c-.81-.92-1.56-1.9-2.39-2.8a3 3 0 0 0-1.21-.81 3 3 0 0 1-2.07-1.74c-.6-1.4-1.13-2.83-1.7-4.28l-.54.29c-2.37 1.28-4.73 2.59-7.12 3.83-.63.32-.88.66-.88 1.4a286 286 0 0 1-1.7 28.67c-.65 6.37-1.8 12.68-2.71 19.02zM269.42 112l.65.81c4.48 5.68 9.16 11.2 13.39 17.06 4.11 5.7 7.76 11.75 11.61 17.64.24.38.36.78 1.01.5 7.8-3.33 15.32-7.17 22.2-12.18.16-.12.3-.26.53-.47-1.04-.25-1.98-.44-2.89-.72-2.39-.76-3.42-2.37-3.25-4.85a2 2 0 0 0-.34-1.14c-.68-.95-1-1.97-.63-3.09.27-.82.74-1.58 1.08-2.4.14-.34.26-.75.21-1.1-.15-1.1-.41-2.2-.6-3.29a5.2 5.2 0 0 1 .81-4.1c.83-1.18-.03-2.81-1.46-3.03-.5-.07-1.02-.08-1.5-.2-.77-.2-1.5-.53-1.81-1.32-.3-.8-.84-1.22-1.63-1.5-1.08-.38-1.5-1.23-1.09-2.3.26-.65.71-1.23 1.08-1.84.19-.3.55-.59.13-.96l-2.61-2.34c-.57.77-1.05 1.51-1.62 2.17-1.28 1.5-2.82 1.66-4.34.4-.55-.44-1.04-.55-1.68-.3-.98.37-1.88.16-2.73-.42a4 4 0 0 1-1.62-2.65 3.3 3.3 0 0 0-1.13-2.09c-6.36 5.95-13.88 10-21.77 13.7m-70.66-20.5.06.3c.59-.04 1.2-.02 1.77-.12a5 5 0 0 1 4.27 1.13 7 7 0 0 0 5.7 1.74q1.03-.12 2.08-.05c.86.05 1.67.38 2 1.24.3.8.84 1.17 1.62 1.34q.63.16 1.23.37c1.38.5 1.84 1.24 1.45 2.65a4.8 4.8 0 0 0 .27 3.42c.3.63.65 1.23.88 1.88.19.56.36 1.18.3 1.75-.1 1.27.25 1.92 1.42 2.45 1.19.54 2.38 1.1 3.48 1.79.98.6 1.6 1.53 1.3 2.77-.22.93.18 1.58.85 2.08s1.4.9 2.1 1.31a3.2 3.2 0 0 1 1.5 1.88c.16.48.57.97 1 1.26 1.29.84 2.68 1.55 3.96 2.4.6.4 1.18.96 1.5 1.58.57 1.08.56 1.23 1.78 1.04a7 7 0 0 0 2.08-.74 8 8 0 0 0 1.8-1.2 7 7 0 0 0 1.42-1.65c.42-.7.6-1.55 1.01-2.26.4-.7.44-1.32.12-2.04a116 116 0 0 1-1.7-3.87 5 5 0 0 1 1.53-5.81q.39-.3.71-.65a4 4 0 0 1 3.95-1.15c.53.11 1.04.31 1.56.33.4.02.9-.07 1.17-.32a10 10 0 0 1 4.2-2.06q.7-.19 1.32-.54c.86-.52 1.67-1.12 2.54-1.64 1.43-.85 2.01-2.1 1.55-3.72-.25-.86-.66-1.68-.95-2.54a2.3 2.3 0 0 0-1.72-1.63c-1.7-.4-2.66-1.5-3.21-3.12-.64-1.88-1.88-3.1-3.96-3.39a4.4 4.4 0 0 1-2.9-1.4 5 5 0 0 0-2.74-1.64c-1.62-.42-2.06-1.88-.94-3.13.41-.46 1.08-.73 1.68-.98.68-.28 1.47-.34 2.1-.7a6 6 0 0 1 2.9-.8c.37 0 .88-.05 1.1-.3.32-.33.5-.85.58-1.31.04-.2-.27-.64-.5-.7-1.85-.5-3.93-.82-5.2 1.42a3.6 3.6 0 0 1-3.46 1.87c-.38-.01-.75.03-1.12 0-1.38-.1-2.4.5-3.28 1.51a4.6 4.6 0 0 1-1.71 1.4 38 38 0 0 0-5.82 2.78 9 9 0 0 1-2.43.8q-1.72.38-3.46.57a26 26 0 0 0-8.52 2.35c-.59.29-1.27.4-1.91.56-1.7.4-3.4.87-5.13 1.16-1.38.22-2.81.38-4.2.25-2.14-.2-4.25-.67-6.38-1.03-1.13-.19-1.95.26-2.6 1.11m41.97 74.1a416 416 0 0 1 5.4 45.25l1.43-.18a196 196 0 0 0 25.33-4.98c.5-.13.63-.34.55-.84q-.44-2.48-.81-4.97a348 348 0 0 0-8.33-38.54c-.06-.24-.16-.48-.22-.67-3.94.93-7.77 1.9-11.62 2.72-3.86.81-7.74 1.47-11.73 2.22M296 148.92c7.24 13.86 13.9 27.8 17.9 42.9q.3-.08.5-.16l16.87-8.85c.61-.32.46-.83.47-1.3.01-.54-.08-1.06-.67-1.24-1.38-.41-1.97-1.46-2.09-2.75a57 57 0 0 1-.28-5.34q.01-1.52.44-2.98c.42-1.48.97-2.93 1.53-4.37.8-2.05 1.86-3.91 3.79-5.12 1.05-.67 1.22-1.65 1.03-2.8a8 8 0 0 1-.07-2.28c.13-1.02.41-2.01.63-3.01.08-.37.1-.78.29-1.08.56-.94.34-1.77-.18-2.6l-.42-.7a2.2 2.2 0 0 1-.2-1.99c.48-1.36 1.35-2.27 2.9-2.44-.36-.8-.61-1.53-1.49-1.93a2.7 2.7 0 0 1-1.19-1.43c-.5-1.32-1.56-2.05-2.6-2.83-.5-.37-.95-.21-1.33.24-.76.9-.76 1.78.1 2.82.53.63.8 1.3.75 2.12q-.05.49.1.95c.4 1.26.13 2.26-.89 3.15-.6.52-1.14 1.27-.89 2.11.31 1.06.63 2.22 1.3 3.06 1.36 1.7 1.13 3.3.27 5.06q-.57 1.19-.88 2.46c-.25 1-.6 1.86-1.51 2.52-.73.53-1.2 1.4-1.86 2.04-.66.63-1.33 1.37-2.14 1.7-1.4.56-2.77-.67-2.94-2.5-.06-.6 0-1.23-.07-1.83a3.5 3.5 0 0 1 .74-2.79c.93-1.06 1.08-2.17.98-3.53-.16-2.1-.65-3.97-2.22-5.49a2.5 2.5 0 0 1-.5-3.15c.36-.72.7-1.45 1.18-2.1.92-1.25.5-2.24-.44-3.27-.52-.57-1.09-1.1-1.58-1.7-.64-.77-1.23-1.6-1.93-2.5-7.18 5.44-15.13 9.47-23.4 12.93m-46.5-29.82a307 307 0 0 1 15.44 40.4c10.23-2.66 19.84-6.74 29.53-10.81-.17-.33-.26-.57-.4-.79-2.64-4.17-5.23-8.38-7.94-12.5-5.2-7.94-11.44-15.09-17.29-22.54-.32-.4-.59-.38-1.02-.21-3.51 1.33-7.02 2.68-10.56 3.94-2.53.9-5.12 1.66-7.77 2.51m-35.3 95.03q-.42-.04-.7-.04-12.58 0-25.15-.02c-.59 0-.79.16-.8.76l-.26 23.47c0 .24.06.57.22.72.7.68 1.53 1.06 2.54.86.55-.11 1.09-.27 1.64-.35a4.1 4.1 0 0 1 3.45.9c.47.41.85.96.56 1.55-.45.9-.22 1.75-.04 2.64.27 1.37-.43 2.34-1.8 2.63-.66.13-1.34.2-1.95.43a5 5 0 0 1-4.17-.33q-.22-.09-.55-.14v14c-.01.73.23.96.93 1l12.14.79c.66.04 1.31 0 2 0-.05-.19-.05-.25-.08-.28-1.84-1.45-1.77-3.09.15-4.46q.64-.46 1.18-1.07c.28-.3.6-.7.11-1.1-.42-.35-.78-.14-1.1.21q-.32.37-.7.66c-1.12.78-2.37.22-2.55-1.12-.19-1.44.44-2.53 1.48-3.44.28-.25.67-.44.82-.75.53-1.1 1.36-1.54 2.57-1.5.32 0 .86-.37.93-.66.1-.38-.03-1.01-.3-1.25-.44-.38-1.07-.58-1.64-.77-.68-.23-1.4-.36-2.09-.55-.82-.24-1.1-.86-1.14-1.65-.06-1.08.66-1.62 1.46-2.1.6-.36 1.11-.15 1.6.28q.97.86 2.14.25c.36-.18.74-.41 1.11-.43.41 0 .97.08 1.22.34.6.63 1.03 1.42 1.58 2.1q.48.62 1.14 1.04c1 .6 2.05 1.13 3.06 1.73.62.36.9.98.89 1.69a3.3 3.3 0 0 1-1.38 2.75q-.4.28-.77.58c-.37.32-.45.65-.13 1.1.43.61.76 1.3 1.15 1.93 1.1 1.78.3 4.2-1.2 5.17q-.37.27-.7.55c.86.08 1.66.02 2.45-.03 1.09-.07 1.1-.07 1.1-1.16l-.37-46.04q-.01-.42-.05-.89m51.23 131.78c.43-.06.66-.08.89-.14 5.02-1.26 10.05-2.45 15.04-3.8a126 126 0 0 0 18.96-6.56c.37-.17.78-.53.92-.89.75-1.9 1.51-3.82 2.1-5.79a292 292 0 0 0 7.85-31.83c.4-2.23.76-4.46 1.18-6.91a121 121 0 0 1-22.14 9.8c1.55.84 2.58 1.93 2.88 3.37a20 20 0 0 0 1.13 3.54c.33.8.4 1.7-.38 2.28-1.1.83-1.75 1.96-2.42 3.12-.95 1.62-2.26 2.78-4.36 2.47-.4-.06-.8.01-1.2-.03-2.04-.23-3.35 1.32-5 2.03-.1.05-.18.2-.25.31-.73 1.19-1.21 2.4-.79 3.86a4.4 4.4 0 0 1-.44 3.63c-.22.36-.37.86-.35 1.28.1 1.75-.72 3.04-1.93 4.13-1.77 1.6-3.35 3.3-4.24 5.59-.47 1.22-1.38 2.27-1.98 3.46a9 9 0 0 1-3.27 3.86c-1.24.76-1.55 1.94-2.2 3.22m-52.13-177.29c-1.1.12-2.2-.2-3.09.75a2 2 0 0 1-1.13.54c-1.08.17-2.16.22-3.24.35-.53.07-1.16.05-1.53.35-1.26 1.02-2.55.85-3.93.4-1.37-.45-2.48.06-3.14 1.37-.15.29-.3.59-.51.8-.46.47-.34.82.17 1.07q1.09.52 2.2.96c1.45.57 2.12 1.8 1.6 3.27-.24.68-.76 1.26-1.14 1.9-.18.3-.47.63-.48.95-.04 1.6-.69 2.65-2.35 2.94-.23.04-.45.16-.67.24-.59.22-1.23.17-1.5-.36-.23-.42-.3-1.14-.1-1.54.39-.7.4-1.37.48-2.12.13-1.23-.4-1.64-1.56-1.8-.93-.14-1.72-.54-2.16-1.47a1.2 1.2 0 0 0-.73-.53c-.94-.2-2.18.86-2.2 1.81l-.19 9.77c0 .21.04.43.08.9.37-.47.68-.7.77-1 .2-.74.66-1.05 1.36-1.27.74-.24 1.31-.11 1.83.4.5.5.44 1.1.24 1.72-.17.53-.44 1.06-.45 1.6-.03 2.32-1.28 3.7-3.32 4.52-.49.2-.66.48-.67 1.02l-.31 16.17c0 .25.03.5.06.84h25.44c1.08 0 1.08 0 1.06-1.1l-.83-42.75q0-.28-.06-.7m-85.15 37.8c-.08.51-.17.95-.23 1.4-.78 6.19-1.62 12.38-2.33 18.58-.44 3.84-.7 7.7-1.03 11.56-.06.77.16.95.92.84q1.88-.26 1.61-2.17c-.19-1.26.16-2.2 1.26-2.95a3 3 0 0 0 1.11-1.49c.68-2.2 4.22-4.16 6.68-2.8.84.47 1.76.58 2.7.21.96-.37 1.8-.07 2.65.45 1.91 1.16 2.16 3.06 2.3 5 .1 1.48-.28 2.8-1.52 3.76a12.5 12.5 0 0 0-3.42 4.03c-.66 1.24-.33 2.07.95 2.62.47.2.9.47 1.38.63.72.23 1.45.49 2.19.56.6.05 1.2-.16 1.81-.24 1.4-.18 2.7-.04 3.8 1q.88.81 1.89 1.47a5.7 5.7 0 0 1 2.35 6.42l-.37 1.42 2.54.56-.66-24.6c-.35-.03-.75-.04-1.14-.13-1.67-.34-2.8-2.28-2.2-3.72.34-.83 1.04-1.15 1.85-1.36 1.38-.34 1.69-.76 1.75-2.14.18-4.24.35-8.47.6-12.71.04-.76-.2-.96-.88-1.03a190 190 0 0 1-25.57-4.97q-.44-.1-.99-.2M238.92 79.57c.49.17 1.2.65 1.43.48a6 6 0 0 1 4.25-1.08c1.62.16 2.73-.41 3.57-1.84.81-1.38 2.19-1.9 3.78-1.7q1.07.17 2.12.43c.64.15 1.15.48 1.27 1.17.11.7-.01 1.4-.65 1.78-2.05 1.26-4 2.77-6.5 3.1-.6.08-1.18.35-1.16.97.01.28.65.55 1.03.78.71.44 1.56.72 2.13 1.3a4.7 4.7 0 0 0 2.67 1.5c2.65.34 4.26 1.92 5.24 4.26a3.4 3.4 0 0 0 2.2 2.03c.74.26 1.63.69 2 1.32a10.7 10.7 0 0 1 1.56 5.79 4 4 0 0 1-1.81 3.4c2.22 2.62 4.36 5.17 6.54 7.69.12.14.55.18.75.08 7.11-3.25 13.94-6.96 19.9-12.12l1.32-1.19c-.59-1.25-.25-2.26.5-3.19.21-.25.59-.44.63-.7.08-.49.16-1.16-.1-1.47-.39-.45-.79.1-1.1.41-1.23 1.31-2.58 1.25-3.84-.09a4 4 0 0 0-1.38-.83c-1.3-.48-2.65-.84-3.93-1.35-1.11-.44-1.75-1.33-1.65-2.57.07-.87.17-1.77.43-2.6.22-.69.05-.97-.54-1.3a241 241 0 0 0-26.05-12.63q-3.6-1.47-7.2-2.87c-1.02-.4-2.08-.73-3.25-1.12 3.29 5.96 1.23 10.05-4.16 12.16M72.84 127.83q.37.37.73.67c2.1 1.6 4.14 3.3 6.32 4.78 4.1 2.8 8.27 5.48 12.43 8.2.22.14.56.3.79.23a4 4 0 0 0 2.78-3.78c-.04-.87-.33-1.72-.43-2.59-.1-.85-.31-1.76-.13-2.57.45-1.99 1.1-3.92 2.76-5.3q.2-.16.28-.39c.48-1.4 1.57-2.09 2.9-2.5.67-.2 1.05-.67 1.25-1.34.34-1.08.27-2.1-.54-2.9-.79-.8-1.66-1.5-2.53-2.2-1.16-.94-1.78-2.1-1.63-3.62q.1-1.16.12-2.31c.02-1.05.74-1.5 1.57-.86a6 6 0 0 1 1.55 1.88c.79 1.43 3.02 1.79 4.04.5a8 8 0 0 0 1.43-2.38 13.3 13.3 0 0 1 3.82-6.05c.3-.27.55-.7.6-1.1a8.4 8.4 0 0 1 1.28-3.65c.3-.46.08-.74-.27-1.08q-2.59-2.5-5.14-5.05l-.28-.24c-6.64 3.34-28.65 25.29-33.7 33.64m50 121.42a16 16 0 0 0-1.36-6.96c-.19-.43-.71-.78-1.16-1.03-1.05-.59-2.21-.65-3.4-.7a8 8 0 0 1-5.83-2.6 4 4 0 0 0-1.55-1.04c-1.83-.57-3.08-1.83-4.33-3.17-2.17-2.34-3.52-5.2-5.13-7.89a5 5 0 0 1-.59-1.56c-.27-1.52-.58-3.05-.66-4.59-.19-3.3-.22-6.6-.35-9.91-.06-1.6-.39-3.18-1.6-4.33a8.6 8.6 0 0 1-2.56-5.03c-.33-2.05-1.35-3.8-2.32-5.59a1 1 0 0 0-.27-.28q-1.43-.65-2.95-1.31c-.11.4-.2.67-.26.95a161 161 0 0 0-4.46 40c.01.64.25.93.8 1.19A229 229 0 0 0 120 248.47zm15.36 98.13 1.5 2.63c3.72 6.78 7.92 13.22 13.11 19 1.1 1.22 2.1 2.55 3.19 3.79a3 3 0 0 0 1.3.86 158 158 0 0 0 24.2 4.82c.82.1 1.65.16 2.63.25-.24-.46-.37-.74-.53-1.02-1.02-1.86-2.22-3.65-3.04-5.6-2.72-6.5-5.3-13.05-7.92-19.58-.2-.5-.46-.69-.99-.73q-3.42-.25-6.86-.54a212 212 0 0 1-22.11-3zm93.15-224.02.19.8 2.3 9.24c.5 2.07.48 2.07 2.54 1.47 1.62-.48 2.4-.17 3.3 1.25q.35.53.86.92c.85.63 1.82 1.14 2.6 1.86.53.49.95 1.2 1.2 1.9.3.77.7 1.12 1.52 1.13.66 0 1.35 0 1.97.17 1.97.56 2.61 2.7 1.3 4.24a5 5 0 0 1-2.96 1.63l-4.23.74c-1.63.3-2.86-.09-3.18-1.88-.22-1.22-1.17-1.6-2.27-2.04.06.39.06.65.14.9.31.92.82 1.82.92 2.77.12 1.13.75 1.5 1.65 1.85.66.25 1.27.68 1.84 1.12.64.49 1.1 1.17.93 2-.27 1.25-.51 2.6-1.61 3.4-1.03.75-1.06 1.55-.78 2.66.42 1.7.69 3.44 1.04 5.24a195 195 0 0 0 23.24-4.92q-.13-.56-.25-.99a287 287 0 0 0-14.64-38.5c-.47-1.02-.5-1.04-1.54-.63-.26.1-.51.42-.63.7-.25.59-.32 1.26-.62 1.81-.42.81-.86 1.67-1.5 2.3a10 10 0 0 1-2.52 1.68c-.87.43-1.83.76-2.78.92-1.36.23-2.34-.46-2.9-1.7a2.6 2.6 0 0 0-.82-.94c-.47-.35-1.06-.55-1.5-.92-.9-.77-1.81-.5-2.81-.18m15.19 249.75.6-.17a162 162 0 0 0 42.75-19.92q2.26-1.5 3.92-3.62c2.62-3.3 4.24-7.14 5.9-10.96.29-.65.53-1.31.86-2.15l-.92.35c-2.38.94-4.74 1.95-7.15 2.79a253 253 0 0 1-26.89 7.48c-.54.13-.89.36-1.15.85q-1.25 2.32-2.57 4.62c-3.41 6.03-7.2 11.8-11.86 16.95-1.1 1.23-2.23 2.43-3.49 3.78m96.49-231.88c-1.7-6.42-23.91-35.75-29.66-39.02-.05.55-.16 1.03-.12 1.48.07.88.32 1.74.34 2.61.02.98-.48 1.74-1.39 2.17-1.13.53-2.23-.2-2.17-1.44.02-.45.19-.9.17-1.34-.03-.7-.05-1.45-.28-2.1-.24-.63-.95-.64-1.33-.06q-.9 1.36-1.67 2.8c-.44.84-.24 1.12.61 1.53.56.27 1.25.61 1.48 1.11.56 1.22 1.46 1.57 2.69 1.56 1.13 0 2.25.23 2.77 1.38.55 1.23.74 2.5-.12 3.73-.35.49-.73 1.1-.71 1.65q.06 2.18.48 4.34a3.5 3.5 0 0 1-.28 2.46 6 6 0 0 0-.76 1.84c-.1.48-.05 1.17.24 1.5.8.92.89 1.9.79 3.05a2.94 2.94 0 0 0 1.87 2.97q.86.37 1.75.55a4.8 4.8 0 0 1 3.02 2.06 35 35 0 0 0 3.04 3.58c1.2 1.27 1.54 2.76.82 4.34q-.52 1.16-1.11 2.3-.56 1.05.25 1.9c1.92 2.04 2.43 4.55 2.55 7.23.04.94-.2 1.72-.86 2.4-1.59 1.66-1.25 3.63-.75 5.57.08.32.73.74 1.07.7.79-.08 1.5-.43 1.93-1.24.38-.72.93-1.34 1.4-2.02.2-.3.44-.61.55-.95.61-1.83.97-3.74 2.25-5.32.62-.78.37-1.64-.2-2.51a21 21 0 0 1-1.69-3.42c-.63-1.55-.25-2.92 1-4.06.19-.18.4-.5.38-.73-.23-1.44-.04-2.94-.9-4.31-.74-1.16-.08-2.96 1.12-3.8.87-.62 1.76-.42 3 .66l.17.16a7.4 7.4 0 0 1 2.1 2.69c.4.96.85.96 1.8.48a2 2 0 0 1 1.48-.03c.99.42 1.9 1.01 2.88 1.55M101.48 336.35l-.14.17c1.79 4.31 3.5 8.66 6.36 12.42a15 15 0 0 0 3.3 3.33 159 159 0 0 0 43.42 20.57c.2.06.4.08.8.16-.39-.43-.64-.7-.88-.99-2.28-2.64-4.68-5.2-6.82-7.94-3.96-5.06-7.04-10.7-10.14-16.3a1.6 1.6 0 0 0-1.14-.86c-3.28-.77-6.55-1.53-9.8-2.39-7.84-2.05-15.65-4.25-23.14-7.4zm162.16 11.02c-.95.2-1.72.37-2.5.5-3.49.62-6.99 1.2-10.48 1.83-.37.07-.84.27-1.02.56q-.89 1.43-1.58 2.96a4.2 4.2 0 0 1-3.24 2.57 4.8 4.8 0 0 0-2.9 1.96c-1.76 2.26-3.7 4.3-6.4 5.56a12.5 12.5 0 0 0-4.83 3.67c-1.31 1.71-3.9 2.2-5.9 1.43-.6-.23-1-.16-1.23.52a6.2 6.2 0 0 1-6.84 4.16 5 5 0 0 0-3.35.47c-1.5.82-3.16 1.33-4.88.34-.28-.16-.87-.06-1.16.15-.95.68-1.14 2.14-.57 3.16.26.45.53.96.58 1.46.06.74.4.86 1.03.8 3.33-.27 6.66-.47 9.97-.79 8.33-.8 16.5-2.41 24.6-4.52 1.5-.4 2.9-.85 3.65-2.39.12-.25.38-.44.58-.66 1.18-1.34 2.4-2.65 3.54-4.02a100 100 0 0 0 9.86-14.28c1.01-1.75 1.99-3.52 3.07-5.44M186.1 262.1c.02-.44.04-.7.04-.96v-14c0-1.02-.06-1.08-1.06-1.15q-.25-.05-.48-.02c-2.22.46-3.89-.47-5.28-2.1l-.34-.34c-1.14-1.35-2.53-1.98-4.33-1.54-.45.11-.95.05-1.43.03-1.15-.04-2.3-.18-3.44-.13a6 6 0 0 1-3.4-.94c-1.11-.66-1.44-1.5-1-2.7q.36-.95-.37-1.58c-.28-.25-.56-.53-.89-.68-.94-.41-1.32-1.14-1.43-2.12-.1-.91-.81-1.38-1.72-1.24q-.56.1-1.1.26c-.99.3-1.96.46-2.92-.13-.21-.13-.5-.13-.84-.22-.02.36-.05.62-.04.88l.6 23.28c.02.7.27.95.94 1.07 5.39.92 10.75 1.96 16.15 2.8 4.05.63 8.14 1.02 12.34 1.53m-21.73-49.44c.06.72.26 1.36.11 1.91a7 7 0 0 1-1.06 2.23c-.5.68-.5 1.22-.14 1.96.53 1.1.05 2.39-.98 2.88-.87.4-1.91.68-2.7.14-1-.69-1.77-1.68-2.64-2.55-.04-.05-.04-.16-.03-.24.04-1.58-.22-3.2.57-4.7.4-.77.2-1.07-.67-1.43l-.04.06q-.33 6.75-.62 13.5c0 .18.25.45.44.52a3 3 0 0 0 2.46-.33c.42-.24.82-.52 1.26-.69 2.41-.93 5.5.24 6.7 2.51.18.33.28.72.51 1q.53.61 1.18 1.1.91.75 1.89 1.42c.63.45 1.25 1.01 1.97 1.24.87.27 1.84.33 2.77.32a5 5 0 0 1 4 1.83q.66.76 1.53 1.24c.91.48 1.88.86 2.85 1.23.76.29 1.56.5 2.44.77l.06-1.21c.1-7.48.17-14.95.3-22.43 0-.7-.18-.9-.88-.93q-8.27-.46-16.54-.98c-1.62-.1-3.24-.25-4.74-.37m167.15-28.91c-.22.09-.34.13-.46.2q-8.22 4.3-16.46 8.58c-.52.27-.42.58-.33.97a160 160 0 0 1 4.64 39.98c0 .27.03.55.06 1.03l8.49-4.72a.6.6 0 0 0 .27-.36l.88-4.15q.33-1.66.72-3.33c.13-.51.42-1 .51-1.51.32-1.75.32-3.4-1.46-4.52-1.08-.67-1.43-1.8-1.62-3-.27-1.62.11-3.17.5-4.74.2-.83.16-1.72.17-2.58.01-1.09-.08-2.18-.05-3.26.05-1.49.36-2.99.23-4.45-.17-1.95.41-3.62 1.24-5.28.25-.52.51-1.05.63-1.6.18-.81.42-1.5 1.17-2.01.3-.2.5-.7.54-1.08.16-1.35.22-2.7.33-4.17M187.9 351.43c-.26-.44-.42-.81-.67-1.1a4.1 4.1 0 0 1-.88-3.53c.07-.44.02-.9-.04-1.35-.22-1.64-.51-3.27.14-4.9.5-1.21 1.05-1.6 2.34-1.51-.09-1.58-.04-3.17-.3-4.7a3.5 3.5 0 0 0-1.33-2.08c-1.17-.78-1.86-1.53-1.55-3.05.24-1.24-.42-2.04-1.66-2.46-.45-.15-.88-.36-1.33-.52-.3-.11-.8-.35-.88-.26-.23.28-.39.69-.4 1.06-.03.63.08 1.27.1 1.9.04.77-.36 1.28-1.03 1.57-1.44.6-2.85.68-4.1-.46-.36-.33-.76-.6-1.08-.96-.68-.73-1.33-1.45-2.44-1.48a1 1 0 0 1-.65-.42c-.44-.77-1.03-1.55-1.18-2.4a8 8 0 0 0-1.38-3.1c-.47-.7-1.09-1.32-2.12-1.14-1 .18-2.01.27-3.07.4.03.15.06.44.12.72q3.08 14.5 8.27 28.4c.24.62.56.85 1.2.88 2.75.15 5.5.37 8.24.48 1.83.07 3.66.01 5.68.01m-28.61-61.3c1.59-.32 3.08-.64 4.57-.9.8-.15 1.48.39 1.57 1.23.06.52-.06 1.06-.06 1.59 0 .3.07.6.1.9q.46-.11.88-.24.19-.08.35-.2 1.63-1.05.27-2.41a19 19 0 0 1-1.48-1.68c-.84-1.11-.56-2.1.67-2.73.37-.2.73-.55.91-.93.38-.76.62-1.57.32-2.46-.11-.33-.11-.79.03-1.1.48-.97.36-1.94.18-2.95-.42-2.42.05-3.37 2.2-4.59q1.49-.84 2.14-2.4c.46-1.14.88-2.3 1.35-3.42.15-.36.35-.74.63-1a4.63 4.63 0 0 1 6.61.3c.35.4.87.67 1.32.99.52.35 1.08.64 1.56 1.05.57.48.77.48 1.13-.22.36-.68.56-1.5 1.06-2.04.58-.63.65-1.27.62-2.04-.07-2-.06-2-2.1-2.2-7.62-.7-15.18-1.85-22.7-3.3l-4.65-.9.58 9.47c1.65.31 3.14.33 4.61-.22.63-.24 1.19.15 1.58.69 1.3 1.76 1.3 2.86.02 4.61l-.55.8c-.64.84-1.37 1.06-2.4.74-.48-.15-.95-.35-1.44-.46-.85-.2-1.33.22-1.26 1.08q.47 5.67.98 11.33c.1 1.21.27 2.42.4 3.61m27.76-110.05-.32.25c-1.15.89-1.98 2.18-3.43 2.7-.8.3-1.06.88-1.08 1.74-.03 1.3-.31 2.58-1.5 3.37-.6.4-.68.81-.36 1.41.38.71.26 1.44-.26 2.01-.4.44-.97.72-1.42 1.13-.3.28-.64.62-.77 1-.29.85-.61 1.7-1.45 2.12a7 7 0 0 0-3.35 3.67 2.7 2.7 0 0 1-2.84 1.68c-.68-.05-1.34-.3-2-.5-.54-.15-1.18-.28-1.41.31-.41 1-1.2 1.37-2.12 1.64a1.8 1.8 0 0 0-1.34 1.42 4 4 0 0 1-.86 1.6c-1.22 1.5-1.24 1.73.17 3.1.7.68 1.18 1.44 1.06 2.46-.06.52.25.56.63.58q10.62.65 21.24 1.35c.73.05.95-.14.96-.9q.12-7.52.28-15.04c0-.22-.02-.44-.05-.78l-.96.77c-.53.4-1.17.5-1.62.05-.34-.35-.67-1.01-.57-1.43a5 5 0 0 1 1.07-1.97c.44-.5.74-.92.7-1.6a2.7 2.7 0 0 1 1.23-2.53c.17-.12.35-.37.35-.56q.03-4.51.02-9.05M50.68 263.19c0-.26.02-.34 0-.42-1.72-8.52-2.23-17.18-2.93-25.82a295 295 0 0 1-1-24.4c0-.28-.13-.63-.31-.84q-2.93-3.29-5.89-6.55l-.64-.69c-.13 2.04-.28 3.84-.36 5.65q-.51 11.04.43 22.07 1.02 11.9 3.8 23.5c.06.31.14.65.32.9 1.84 2.48 4.13 4.51 6.58 6.6m190.68-3.98q-.02.22 0 .3c.84 2.07.1 3.64-1.44 5.06-.85.79-1.53 1.76-2.27 2.66-.37.45-.67.97-1.04 1.41-.99 1.16-1.53 1.17-2.95.67-.92-.33-1.96-.34-2.95-.45-.34-.04-.69.07-1.03.06-1.5-.03-2.82-1.34-2.98-2.94-.14-1.48.66-2.47 2.3-2.86.36-.08.78-.11 1.06-.32.38-.28.75-.67.97-1.1s0-.7-.54-.6q-.94.16-1.9.28l-12.31 1.47c-.2.02-.56.18-.56.29-.05.9-.03 1.82-.03 2.77.18-.03.3-.01.38-.06.84-.45 1.7-.85 2.48-1.4 1-.71 2.02-1.22 3.26-.79.56.2.86.66.35 1.09-1.5 1.23-3.07 2.38-4.62 3.56-.12.09-.3.1-.45.16-.12.05-.28.08-.36.17q-.37.39-.7.8c.32.21.62.55.96.6.62.1 1.27.02 1.91.03.86.02 1.55.36 2.01 1.11q1.36 2.2 2.68 4.42c.63 1.07 2.05 1.56 3.01 1.06q1.12-.6 2.29-1.14c1.39-.62 2.29-.32 3.36 1.07.9 1.17.88 2.18-.06 3.34-.28.35-.69.68-.78 1.09-.22.9-.78 1.46-1.47 2-.91.71-.84 1.59.1 2.21.44.3.89.61 1.38.8.37.15.82.16 1.23.15q1.58-.03 3.16-.14c.44-.03.87-.14 1.5-.24-.57-.51-.96-.8-1.27-1.15-.85-.95-.78-1.75.15-2.61q.35-.35.53-.78c.54-1.55 1.69-2.21 3.26-2.21 1.18 0 2.36.06 3.67.1l1.47-20.68-2.68.52zM148.86 71.1c2.11 2.9.73 4.97-1.83 5.5-.76.17-1.22.49-1.61 1.13-.6.96-2.8 1.49-3.7.9-1.04-.7-1.6-1.56-1.28-2.93.07-.27.11-.55.2-1l-5.93 2.81c.15.16.25.18.35.18 2.91 0 4.65 2.17 3.94 4.97a4.2 4.2 0 0 0 .14 2.8c.35.87.3 1.7-.3 2.5-.23.34-.45.92-.32 1.25.5 1.23.93 2.61 1.8 3.55.87.92 2.22 1.44 3.4 2.03.82.4 1.72.64 2.57.95q7.97-8.16 16.14-16.57c-2.33-.93-4.24-2.25-5.02-4.74-.79-2.5.2-4.69 1.3-6.85l-.12-.22zm34.34 35.6.9.04c1.38.11 1.84.97 1.25 2.21a4 4 0 0 1-2.6 2.2c-.96.3-1.89.72-2.85 1.03-1.64.55-3.3 1.04-4.93 1.6-.27.1-.6.38-.68.64q-1.19 3.86-2.33 7.73-.04.21-.05.5c.93.16 1.83.28 2.71.45.4.08.66.07.93-.32.45-.63 1.07-.56 1.34.16.18.46.44.57.88.63q3.9.45 7.78.94c.95.13 1.8.3 2.5-.74.31-.47.63-.82.64-1.41.05-1.68-.02-3.4.27-5.03.28-1.61-.9-3.26.21-4.8.05-.08.01-.21.02-.32l1.06-14.04c.13-1.6.32-3.2.5-5-1.7 1.3-2.64 3.26-4.69 3.77-1.93.47-3.88 1.01-5.91.06l-2.57 7.78c.3-.1.43-.18.58-.21 1.43-.32 2.84-.7 4.28-.9.41-.05 1 .28 1.34.62.42.41.24.98-.07 1.47-.17.26-.3.55-.5.94m7 5.82c.53-.12.94-.24 1.35-.28.87-.1 1.74-.2 2.6-.2.75 0 1.5.18 2.24.18 2.5 0 5.72-1.7 4.65-5.27-.23-.76-.55-1.06-1.37-1.12a4.7 4.7 0 0 1-2.37-.7 6 6 0 0 0-2.23-1.15 3.7 3.7 0 0 1-2.32-1.57c-.97-1.48-.62-2.79 1.05-3.36 1-.34 1.73-.9 2.3-1.74 1.68-2.46 4.8-1.87 6.6-.7 1.24.81 1.21 2.3.06 3.24l-.74.6c-.51.44-.5.97.04 1.26a6 6 0 0 0 2.05.71c.76.1 1.58.09 2.03.74 1.26 1.8 3.46 2.04 5.19 3.37l-.96-10.87c-.26-.03-.37-.05-.47-.04a8.3 8.3 0 0 1-5.63-1.9 3.4 3.4 0 0 0-1.83-.62c-1.06-.06-2.13.1-3.2.11-.82 0-1.44-.5-1.58-1.2-.17-.81.2-1.46.9-1.67a9 9 0 0 1 3.17-.54c1.98.17 3.93.65 5.9.95.67.1 1.35.08 2.13.12-.22-1.5-.38-2.82-.62-4.13-.03-.15-.42-.34-.64-.34-5.04-.02-10.08 0-15.12-.03-.53 0-.7.15-.76.65q-.36 2.78-.77 5.56l-.02.24q-.7 7.6-1.38 15.22c-.13 1.45-.17 2.91-.25 4.48m-71.66 91.35c-.23.84-.33 1.6-.65 2.25-.53 1.07-1.26 2.03-1.82 3.1a22 22 0 0 0-1.38 3.1c-.3.91-.42 1.88-.59 2.82-.38 2.1-.71 4.24-.25 6.36.72 3.32 2.4 6.25 4.16 9.11.26.44.8.83 1.29.98 1.93.59 2.42 1.18 2.42 3.18 0 .27-.03.54 0 .8.14 1.1.6 2 1.66 2.56.05-.16.1-.23.1-.3a361 361 0 0 1 3.5-31.16c.07-.45-.09-.62-.5-.71q-1.49-.36-2.95-.77zM212.9 58.6c2.15.19 4.3.29 6.43.58 5.4.72 10.68 2 15.87 3.68a21 21 0 0 1 6.08 2.99c.29.21.65.35 1 .47 1.98.7 4 1.32 5.96 2.06a243 243 0 0 1 31.52 14.7l.75.37.17-.14c-.14-.32-.25-.66-.41-.97-.54-1.07-.44-1.83.33-2.72q.59-.73 1.18-1.52l-.6-.37q-13.7-7.82-28.62-12.86a165 165 0 0 0-32.7-7.36 12.6 12.6 0 0 0-6.96 1.1m95.48 39.09.09-.27-.82-.75q-2.43-2.09-4.9-4.13a161 161 0 0 0-19.54-13.64c-.62-.38-.95-.27-1.22.38q-.23.5-.6.94c-.52.58-.5 1.12-.16 1.82.25.52.35 1.17.33 1.75a40 40 0 0 1-.34 3.82c-.13 1 .32 1.7 1.15 2.07 1.14.5 2.34.86 3.51 1.3.4.14.83.28 1.13.55 1.46 1.31 1.45 1.33 2.9.08.97-.84 2.97-.29 3.33.93.07.26.04.62-.1.83-.37.58-.85 1.09-1.24 1.66-.32.48-.65.98-.82 1.52-.19.6-.01 1.14.72 1.37.9.29 1.32 1.03 1.6 1.88.13.4.2.83.37 1.22.5 1.16 1.58 1.83 2.56 1.5a2.6 2.6 0 0 1 2.8.52c1.1.93 1.9.72 2.76-.44a4.8 4.8 0 0 0 1.1-3.48c-.18-1.66 1.26-2.5 2.79-1.87.8.32 1.73.3 2.6.44M188.94 58.59c-1.73-.8-3.5-1.44-5.35-1.21a160 160 0 0 0-64.56 21.34q-.38.22-.68.42c.14.45.33.82.36 1.2.05.62.38.81.9 1.04.55.23 1.01.7 1.46 1.12.22.2.31.53.48.84.7-.38 1.33-.7 1.95-1.08.14-.09.3-.33.28-.5-.08-1.07.6-1.53 1.46-1.83.48-.16 1.01-.18 1.47-.37.26-.1.58-.42.61-.67.11-.93.64-1.43 1.46-1.72a4.4 4.4 0 0 1 3.35.04c.3.13.75.16 1.04.03q4-1.84 7.97-3.72c.88-.42.97-.71.59-1.58-.58-1.3.1-2.52 1.53-2.74q.43-.06.86-.16c1.19-.3 1.98-.06 2.61.96.43.68.84.76 1.58.48 3.78-1.44 7.6-2.81 11.4-4.2.22-.1.46-.16.65-.3 2.67-2.03 5.78-3.04 8.95-3.95a83 83 0 0 1 14.14-2.95c1.83-.2 3.66-.33 5.49-.49m22.57 36.94 1.9 29.37 16.65-2.16c-.69-1.9-.47-4.07-2.79-4.83-.22-.08-.4-.26-.59-.4-1.03-.81-1.7-1.82-1.47-3.17.18-1.02-.29-1.6-1.09-1.99q-1.61-.78-3.26-1.52a3.4 3.4 0 0 1-1.9-3.32 5 5 0 0 0-.26-1.9c-.67-1.89-1.57-3.71-.87-5.8.2-.59-.2-.82-.69-.95-.74-.2-1.5-.35-2.23-.6a2 2 0 0 1-1.42-1.5c-.3-1.23-.66-1.44-1.98-1.23M192.5 246.05c1.87.15 2.19-.23 1.9-1.83a4 4 0 0 1 0-1.8c.25-.97.2-1.29-.76-1.58-.57-.17-1.2-.2-1.8-.16-.68.05-1.35.29-2.04.38-1.28.17-2.25-.53-3.34-1.07-1.76-.87-3.62-1.52-5.47-2.2a7 7 0 0 1-2.63-1.87 7 7 0 0 0-2.28-1.35c-.54-.2-1.22-.02-1.82-.08-1.8-.17-3.6-.31-4.7-2.1-.18-.3-.47-.66-.78-.75-1.33-.4-1.9-1.4-2.44-2.55a4.6 4.6 0 0 0-6.34-2.11c-.54.27-1.13.6-1.7.62-1.78.02-3.44.46-5.06 1.1q-1.1.43-.56 1.45c.41.76 1.05 1.03 1.91 1.04 1.05.02 2.1.22 3.14.35.49.05.98.18 1.46.16.85-.04 1.7-.26 2.53-.23a2.2 2.2 0 0 1 2.11 1.96c.11.78.45 1.26 1.13 1.69 1.29.81 2.21 1.87 1.6 3.6-.09.22.15.75.36.83q1.33.49 2.73.76c.6.12 1.22.04 1.83.1.8.09 1.58.34 2.37.32 4.5-.07 3.99.31 6.67 2.75q.1.08.17.17c.84 1.29 2.04 1.42 3.44 1.2 1.16-.19 2.3-.04 3.19.89.17.17.46.26.71.32 1.21.32 2.42.63 3.67.1.3-.14.68-.1.8-.11M47.42 167.7q-.06.06-.11.18-.13.33-.24.68a160 160 0 0 0-6.99 34.23c-.03.28.07.65.25.86q2.84 3.26 5.72 6.49c.17.2.4.36.6.54l.22-.1c0-1.14-.04-2.28 0-3.43.3-7.46.6-14.93 1.98-22.3.79-4.16 1.77-8.29 2.64-12.44.06-.32.08-.82-.11-1q-1.95-1.88-3.96-3.71m145.4-104.12c-1.1-.19-2.13-.5-3.15-.5-3.78-.02-7.58-.37-11.32.5-.78.18-1.57.35-2.36.43-4.71.46-9.3 1.6-13.93 2.46-2.37.44-3.35 1.8-3.83 3.87-.1.42-.14.85-.23 1.26a5 5 0 0 0 .82 3.88c1.14 1.83 3 2.58 4.88 3.3.18.06.5-.1.7-.25q4.29-3.08 8.53-6.23c3.05-2.27 6.22-4.35 9.77-5.75 1.7-.68 3.43-1.36 5.33-1.21q.28.01.55-.1c1.39-.53 2.77-1.08 4.24-1.66m18.99.8-.06.22c.49.15.97.36 1.47.46.81.17 1.65.2 2.45.4 3.8.87 7.2 2.62 10.38 4.83 3.39 2.36 6.7 4.83 10.05 7.26 1.96 1.42 1.96 1.42 4.19.31 1.88-.93 3.24-2.37 3.56-4.44a8 8 0 0 0-1.53-5.88 1.5 1.5 0 0 0-.84-.56c-4.73-.95-9.44-2-14.19-2.77-5.15-.83-10.32.12-15.48.17m-58.27 25.24.42.15a4.6 4.6 0 0 1 3.4 5.12c-.05.38.1.84.28 1.19.46.88.63 1.74.15 2.67-.47.88-.1 1.72.18 2.54.1.27.5.64.75.63.79-.03 1.77.03 2.3-.4.78-.65 1.47-.9 2.44-.73.54.1.76-.32.5-.83-.24-.45-.61-.84-.77-1.3-.17-.5-.42-1.25-.19-1.58.6-.83 1.2-1.75 2.3-2.08.31-.1.65-.34.84-.6l7.18-10.01c.18-.26.37-.5.62-.83-.42-.12-.72-.2-1.01-.3-2.77-.95-5.55-1.87-8.31-2.86-.55-.2-.93-.2-1.36.2l-9.3 8.54c-.14.12-.24.28-.42.48m20.01 262.33c.14.38.22.65.33.92 2.36 5.86 4.66 11.75 7.1 17.57 1.14 2.7 2.56 5.27 3.88 7.89.13.24.44.5.7.55.75.13 1.52.15 2.31.22-.36-.57-.75-1.05-1-1.6q-.74-1.66-1.36-3.38a2.3 2.3 0 0 1-.17-1.24c.48-1.9.51-3.94 1.8-5.56.55-.68.62-1.41.51-2.25-.13-1.05-.14-2.12-.22-3.18-.06-.67-.02-1.4-.27-2a3.4 3.4 0 0 1-.16-2.63q.59-1.57 1.2-3.13c.48-1.2.03-1.9-1.2-1.8q-.47.02-.95.02l-11.12-.33c-.42-.01-.84-.04-1.38-.07M103.23 89.34l-.6.45a164 164 0 0 0-32.64 33.58c-.17.24-.35.71-.23.88.66.95 1.4 1.84 2.17 2.8a173 173 0 0 1 33.9-33.82zm259.16 136.42-.14.03q-.92 1.9-1.89 3.77c-.3.58-.84.92-1.53.8-.64-.12-.87-.66-.87-1.2 0-1.08.08-2.17.14-3.25.03-.47.42-1.1-.22-1.31-.2-.07-.71.57-.98.96q-.84 1.25-1.58 2.56c-.27.47-.64.97-.68 1.48-.33 3.67-.57 7.34-.85 11.02-.5 6.3-.93 12.61-2.06 18.85l-.6 3.55.24.16 5.28-5.2a7 7 0 0 0 1.84-3.65q2.47-10.94 3.46-22.11c.2-2.15.3-4.3.44-6.46m-310.57-55c4.34-15.54 9.82-30.28 19.68-43l-2.44-2.95q-.1.03-.15.08-.14.15-.24.31A161 161 0 0 0 47.94 166c-.08.23-.15.61-.03.74 1.25 1.33 2.53 2.63 3.91 4.04m149.93-56.21q1.25.18 1.9 1.37c.35.66.32 1.32-.15 1.87-.37.44-.85.8-1.31 1.15-.45.34-.54.7-.2 1.16q.65.9 1.35 1.78c.4.47.93.88 1.54.55 1.7-.93 3.41-1.85 5.02-2.93.9-.6.78-1.43.09-2.28-.52-.63-.9-1.37-1.36-2.05-.26-.38-.51-.8-.85-1.11q-.88-.81-.35-1.8c.27-.47.66-.9 1.04-1.3q.65-.66 1.34-1.26c.56-.5.7-1.15.33-1.73-.31-.47-.85-.8-1.33-1.14-.95-.68-2.07-1.17-2.83-2-.7-.78-1.3-1.25-2.4-1.24a3 3 0 0 1-2.82-1.9c-.5-1.1.23-1.87.99-2.56l.05-.06q.76-.75-.06-1.42c-1.8-1.42-3.7-1.55-5.08.52a3.8 3.8 0 0 1-2.11 1.61q-.46.16-.87.4-.71.41-.25 1.14c.42.69 1.02 1 1.78 1.23.9.26 1.76.69 2.64 1.05.51.22 1 .5 1.53.7.35.11.74.1 1.1.18 1.04.22 1.5.75 1.63 1.8q.12 1.06.33 2.13c.38 1.8-.82 3.9-2.61 4.24-1.4.27-2.87.43-4.28.34-1.67-.1-3.28-.2-4.9.31-.47.15-.9.36-.82.78.05.25.62.57.96.57 2.43.06 4.82.37 7.12 1.2.9.33 1.63.15 2.36-.45.43-.36.98-.58 1.48-.85m25.93 139.87c1.2.15 1.9.7 2.27 1.6.23.56.33 1.18.56 1.74.19.46.4.96.76 1.27 1.51 1.3 1.4 3.56-.34 4.57-.56.32-1.24.45-1.87.66q-1.23.4-.94 1.65c.22.94.93 1.47 1.92 1.45 1.34-.02 2.66-.12 3.84.74 1.2.85 1.86.7 2.43-.66a10 10 0 0 1 3.12-4.34c.69-.53 1.05-1.4.9-2.3-.26-1.5-.62-3-.92-4.5-.38-1.87.1-2.96 1.7-4.03.48-.32 1.03-.63 1.35-1.08.23-.31.26-.9.13-1.3-.1-.33-.56-.8-.84-.78-1.44.1-2.88.11-3.97 1.43-1.64 2-3.25 2.12-5.34.66-.23-.17-.44-.38-.7-.53a2 2 0 0 0-.71-.3q-1.89-.35-3.77-.66c-.65-.12-1.1.08-1.5.64a6 6 0 0 1-1.37 1.48c-.62.46-.63.9-.31 1.5.16.3.35.6.43.93.3 1.26.56 1.38 1.75.8.52-.26 1.06-.48 1.42-.64m40.2-142.67c-.27-.35-.42-.56-.59-.76l-5.44-6.4c-.77-.9-.94-.84-1.86-.14-.66.5-1.43.9-2.21 1.2-1.35.49-2.76.82-4.11 1.3-.94.33-1.83.48-2.81.24a3.6 3.6 0 0 0-3.2.6c-.73.57-1.38 1.24-2.07 1.87-.46.4-.55.81-.23 1.4q1.73 3.24 3.35 6.55c.27.53.52.67 1.1.48 3.97-1.33 7.97-2.59 11.93-3.94 2.03-.7 4.01-1.56 6.15-2.4m-72.93-39.23-2.1 13.07h16.12L206.8 71.8c-3.9 1-7.87.7-11.84.74m5.7-1.32c2.27-.19 4.25-.26 6.2-.55 1.66-.24 3.3-.71 4.94-1.16.44-.12.86-.44 1.18-.78.7-.72.46-2.23-.45-2.62a27.2 27.2 0 0 0-17.24-1.93q-3 .66-5.85 1.83c-1.6.64-1.73 2.18-.32 3.18a6 6 0 0 0 2.6 1.11c3.07.4 6.15.65 8.94.92m13.67-5.1c.1.62.29 1.14.26 1.65-.03.52.18.82.51 1.16 2.2 2.32 4.44 4.6 6.55 7 1.83 2.08 3.53 4.29 5.27 6.44.27.34.52.57 1 .41q3.93-1.22 7.84-2.48c.45-.15.83-.48 1.33-.78-.73-.57-1.3-1.05-1.9-1.48q-3.96-2.91-7.95-5.8c-3.54-2.57-7.26-4.78-11.55-5.85q-.7-.16-1.36-.27m-33.41 25.1c.7-1.97 1.4-3.86 2.08-5.76q-3.87-.8-7.65-1.53c-.23-.04-.6.2-.77.41q-3.41 4.64-6.79 9.3c-.12.18-.2.38-.34.63 2.67-.31 4.26 1.57 3.53 4.04-.13.44-.36.85-.44 1.28q-.06.56.1 1.1c.16.66.53 1.29.55 1.93.03.86.34 1.39 1.13 1.6 1.13.32 2.28.58 3.41.87.5.12.7-.1.86-.57l2.46-7.44c.06-.16.06-.35.09-.58-.4-.08-.77-.22-1.13-.2a5 5 0 0 1-3.17-1.13c-.48-.34-1-.61-1.48-.95-.4-.3-.84-.59-1.15-.97-.8-.98-.53-2.04.54-2.7.82-.49 1.66-.39 2.55-.28.71.1 1.47.09 2.17-.04a3 3 0 0 1 2.09.22zm6.43-25.06-.6.1a26 26 0 0 0-9.4 4.13c-3.3 2.24-6.51 4.64-9.76 6.98-.92.66-1.8 1.36-2.87 2.17.6.33 1.02.66 1.5.81 2.46.8 4.94 1.54 7.4 2.35.67.22 1.04.04 1.47-.5 3.65-4.45 7.07-9.1 11.35-13 .17-.17.26-.45.32-.69q.31-1.17.59-2.35M128.3 205.51a192 192 0 0 0 27.01 5.3c-.26-.54-.35-.96-.62-1.22a4.7 4.7 0 0 1-1.26-3.51c0-1.35-.6-1.99-1.97-1.99a4.4 4.4 0 0 1-3.09-1.12c-1.25-1.18-2.61-1.1-4.1-.73a4 4 0 0 1-1.73.16c-1.27-.3-2.3.12-3.3.81a4 4 0 0 1-3.2.6c-.76-.18-1.55-.32-2.22-.67-1.64-.84-3.34-.43-5.06-.5zm79.85 55.64.02.1h.4c1.35.13 2.34-.56 3.02-1.6.73-1.11.82-2.34-.06-3.5-.18-.23-.3-.5-.46-.75-.9-1.37-.8-1.94.4-3.1a6 6 0 0 0 1.13-1.5c.28-.52.15-1.05-.4-1.4q-1.46-.89-2.88-1.84c-.35-.23-.7-.5-.96-.82q-.7-.86-1.26-1.83c-.36-.65-.78-.68-1.37-.38a3.2 3.2 0 0 1-3.35-.2c-.22-.14-.7-.17-.88-.03a2 2 0 0 0-.58 1.04c-.03.14.43.45.72.56 1.07.37 2.22.6 3.25 1.06 1.22.55 1.6 1.48 1.29 2.6-.34 1.2-.73 1.47-2.27 1.42-.7-.02-1.22.15-1.6.8-.25.42-.69.73-1.05 1.08-.6.58-1.22 1.15-.84 2.13.07.16-.03.37 0 .55q.05.33.14.64c.23-.06.5-.08.71-.2.18-.1.3-.3.44-.45.81-.85 1.76-.95 2.54-.27.75.65.82 1.6.04 2.49a10 10 0 0 1-1.82 1.53q-.89.61-.64 1.58c.16.7.68 1 1.36 1.02q.51.02 1.03-.07zm114.63 62.83-1 .65c-5.95 4.25-12.42 7.58-19.05 10.62-.58.26-.92.62-1.15 1.21-1.68 4.3-3.52 8.53-6.08 12.4-.04.04-.01.12-.02.28a155 155 0 0 0 27.3-25.16m-243.4.2q-.05.1-.12.18a164 164 0 0 0 27.03 24.67q.02-.2 0-.25c-2.56-3.9-4.4-8.17-6.13-12.48a2 2 0 0 0-.94-.96c-5.94-2.82-11.85-5.68-17.27-9.43q-1.27-.87-2.56-1.72m153.86-188.75-2.92-11.83-17 2.17.15 2.81a4.6 4.6 0 0 1 3.9 2.04c.75 1 2.32 1.13 3.28.26 2.84-2.55 7.66-.77 8.52 2.65.53 2.1 1.87 2.65 4.07 1.9m-21.21-16.14c-.67.66-1.25 1.36-1.96 1.89-.98.73-2.05 1.34-3.1 1.98q-.64.4-1.35.67c-1.45.54-2.64.17-3.47-1.12q-.7-1.08-1.23-2.24c-.49-1.03-.26-1.74.68-2.42q.27-.17.52-.37c.42-.4.85-.8.35-1.42-.47-.58-.98-.43-1.45 0a3.2 3.2 0 0 1-3.48.67c-.6-.22-1.28-.24-1.85-.5-1.8-.84-3.74-.22-5.7-.72l-.3 6.43.72-.46c2.06-1.25 3.58-1 5.24.64.66.64 1.56 1.1 2.43 1.45.74.29 1.36.62 1.69 1.33.2.45.47.6.92.57q5.55-.36 11.09-.74c.17-.02.44-.37.44-.55q-.06-2.56-.2-5.09m2.46 48.37c8.33-.65 16.65-1.49 25-2.76-.41-2.2-.8-4.26-1.21-6.32-.04-.18-.3-.48-.42-.46-.6.11-1.37.12-1.76.5a66 66 0 0 0-4.6 4.77c-1.64 1.9-3.1 2.13-5.52 1.26-1.29-.47-1.78-1.67-1.25-2.94.28-.65.75-1.22 1.16-1.8.61-.85.42-1.47-.61-1.62-.44-.06-.97.04-1.36.25q-1.92 1.04-3.78 2.2c-.39.22-.74.52-1.16.81.21.2.3.3.4.38.72.53 1.2 1.2.94 2.12-.26.94-1.08 1.11-1.93 1.28-.62.11-1.2.38-1.8.6-.47.16-.94.42-1.43.47-.82.1-.97.48-.67 1.26m129.4 125.5a153 153 0 0 0 13.58-34.73l-.53.46q-2.74 2.56-5.44 5.2c-.38.37-.73.9-.86 1.43-1.35 5.6-2.63 11.2-3.98 16.8-.88 3.63-1.84 7.23-2.76 10.84M44.63 258.6q4.5 18 13.2 34.34.02-.3-.06-.56-3.3-13.58-6.62-27.13a2.3 2.3 0 0 0-.64-1.04c-1.5-1.41-3.04-2.77-4.54-4.17-.48-.44-.9-.96-1.34-1.44M217.5 84.8c-.14-.37-.2-.58-.28-.77l-4.09-10.33q-.48-1.22-1.07-2.4c-.1-.18-.4-.4-.56-.37-1.2.21-2.39.5-3.74.79L210 85.6zm-49.6 58.69.25.34c.6-.19 1.26-.3 1.82-.58a4.3 4.3 0 0 1 2.6-.46q1.44.16 2.87-.03c1.11-.14 1.41-.68 1.55-1.79.31-2.49.85-3.6 3.14-3.58.21 0 .45-.03.63-.13.37-.23.87-.44 1.03-.8.36-.8.78-1.7.76-2.56-.04-1.32.62-1.94 1.62-2.48 1.07-.6 1.07-.66.56-1.79-.81-1.78-.47-2.69 1.3-3.52.25-.1.46-.27.69-.41l-.06-.17-9.38-1.12c.74 1.78 1.37 3.41 2.1 5 .38.82.55 1.56.2 2.44-.2.53-.24 1.13-.35 1.7-.07.33-.12.68-.24 1-.45 1.17-1.4 1.66-2.58 1.88-.86.15-1.1.52-1.04 1.4q.06.54.16 1.1c.09.73-.22 1.27-.79 1.73a5.4 5.4 0 0 1-5.14 1.19c-.26-.08-.7 0-.85.17-.35.44-.58.97-.86 1.47m71.81-77.85.08-.23c-1.14-.5-2.25-1.1-3.42-1.5-7.23-2.41-14.6-4.12-22.25-4.6-2.13-.14-3.94.14-5.6 1.45-.89.7-1.83 1.34-2.93 2.13 1.62.39 2.99.72 4.35 1.03.15.04.32-.01.48-.04 3.28-.62 6.56-.92 9.93-.82 4.22.13 8.41.37 12.56 1.19zm-27 4.75q.84 1.89 1.6 3.7 1.98 4.94 3.94 9.89c.18.48.41.67.94.56.94-.19 1.89-.3 2.83-.49 1.4-.27 2.8-.57 4.38-.9-4.06-4.85-7.65-9.87-12.3-13.95zm-18.73 2.1c-1.3-.27-2.45-.45-3.58-.77-.63-.17-.88 0-1.1.58q-1.75 4.47-3.52 8.93c-.45 1.14-.93 2.26-1.46 3.57l7.54.77zm-20.73 41.67-.11-.3-4.59 1.2c-1.15.3-2.3.8-3.45.85-2.26.07-4.53-.06-6.79-.22-1.21-.08-2.3.03-3.14.97-.33.37-.8.94-.7 1.27.13.47.68.95 1.16 1.14.96.37 1.98.6 3 .81q5.74 1.24 11.5 2.45c.34.07.66.14.8-.36q1.14-3.9 2.32-7.81M187 69.92c-4.3 3.9-7.68 8.65-11.48 13.17.32.1.48.18.66.21q3.18.6 6.35 1.23c.62.13.9-.05 1.12-.63q2.12-5.4 4.28-10.77c.25-.62.82-1.3.68-1.81-.14-.55-.94-.92-1.46-1.37q-.01-.02-.15-.03m-24.67-4.73.07.28.77-.17a87 87 0 0 1 24.93-2.95c1.8.04 3.63.26 5.37.72.95.25 1.68 0 2.7-.1a23 23 0 0 0-5.41-3.68c-.2-.1-.47-.08-.7-.06-2.43.17-4.86.25-7.26.55a86 86 0 0 0-15.87 3.65c-1.56.5-3.07 1.17-4.6 1.76m25 200.5c.5-.41.85-.73 1.22-1.02.63-.5 1.33-.9 2.14-.58a44 44 0 0 1 3.91 1.75c.82.42 1.53.7 2.35.07 1.06-.82 2.3-.8 3.53-.56 1.02.2 2 .6 3.03.7q3.62.44 7.25.6c1.23.06 2.48-.2 3.77-.31v-3.37q-13.63 1.43-27.2 0zm25.03-139.89c-.9.05-1.71.09-2.53.15-2.98.22-5.95.47-8.93.67-1.03.07-1.35.45-1.2 1.49.1.63.01 1.3.05 1.94.01.23.1.53.25.66.46.35.95.7 1.48.93.65.28 1.35.6 2.03.6 1.19-.01 2.38-.25 3.56-.41.93-.13 1.78-.45 2.34-1.24a4.7 4.7 0 0 1 2.65-1.83c.18-.05.42-.33.42-.51 0-.77-.07-1.54-.12-2.45m137.19 28.52q-1.51-3.3-3.02-6.5c-.1-.22-.38-.46-.62-.51-1.36-.3-2.13-1.02-2.26-2.5-.1-1.33-1.04-2.25-2.07-2.98-.59-.42-1.32-.65-2.02-.91-.17-.07-.43.08-.64.13.3.5.53 1.38.92 1.46 1.7.35 2.4 2.04 1.95 3.52-.12.4-.07.9.08 1.3q2.1 5.4 4.24 10.8l.27.64c1-.26 1.34-.96 1.5-1.83a3.4 3.4 0 0 1 1.67-2.62m-180.2-26.54 1.15-4.38-14.65-3.2c.1 1.2.23 2.35 1.63 2.81.35.11.67.45.9.76a3.4 3.4 0 0 0 3.43 1.38c.55-.08 1.12-.07 1.68-.07.7.01 1.13.4 1.28 1.09.07.28.1.58.18.86q.52 1.57 2.13 1.17c.69-.16 1.39-.26 2.27-.42m3.69-35.7c.26.25.52.58.85.8 1.63 1.03 3.18 2.25 5.25 2.3a1 1 0 0 1 .52.19c1.5 1.1 3.09.9 4.7.4.24-.07.5-.06.7-.17.8-.42 1.7-.73 2.31-1.34.9-.9 1.8-1.73 2.95-2.27.17-.08.4-.18.45-.32.13-.35.28-.76.21-1.1-.03-.18-.52-.41-.77-.38-1.1.11-2.17.36-3 1.15a5.2 5.2 0 0 1-6.46.88q-.6-.3-1.18-.67a2.5 2.5 0 0 0-2.2-.34c-.48.14-1.04.27-1.49.13-1.07-.32-1.95-.14-2.84.74M187.5 57l3.6 1.46q.2.06.4.05c3.06.1 6.13.25 9.2.25 2.85 0 5.7-.25 8.55-.2 1.84.04 3.21-1.05 4.85-1.5-8.8-.78-17.58-.79-26.6-.06m5.1 2.28.3.27q2.05 1.57 4.11 3.12c.15.11.39.12.59.12q3.3.01 6.62 0c.21 0 .48-.04.64-.16q1.87-1.41 3.72-2.86c.19-.15.4-.28.69-.49zm-39.65 198.37c0 1.38.06 2.65-.02 3.92a5 5 0 0 1-.53 1.64c-.31.66-.76 1.27-1.07 1.93-.34.71-.2 1.44.28 2.04a9 9 0 0 0 1.59 1.67c.44.32 1.06.48 1.62.54.62.07 1.4-.66 1.37-1.16q-.3-4.8-.62-9.58c-.01-.18-.2-.45-.37-.5-.71-.2-1.44-.33-2.25-.5m28.9-166.1c1.22.7 2.76.53 3.65-.52 1.54-1.84 3.5-2.23 5.81-1.96l.4-2.71c-2.05-.23-4-.42-5.95-.66-1.73-.22-1.74-.25-2.33 1.39zm-38.39-13.5c.37-.25.9-.43 1.07-.78.51-1.09 1.3-1.57 2.47-1.72 1.22-.15 1.6-.9 1.36-2.11a2.2 2.2 0 0 0-.92-1.43c-.5-.37-.9-.9-1.26-1.4-.42-.59-.91-.89-1.63-.78q-.47.08-.95.12c-.73.06-1.26.5-1.42 1.11-.1.34.25.87.51 1.24q.62.89.04 1.82t-.91 1.98c-.24.81.68 1.83 1.64 1.95M313 101.6q-1.86-1.76-3.6-3.37c-.47.15-.89.42-1.27.38q-1.5-.16-2.95-.57c-.46-.13-.81-.08-.85.34-.04.54-.06 1.26.24 1.6.95 1.02 2.05 1.9 3.1 2.84.72-.57 1.43-.88 2.21-.45a2.2 2.2 0 0 1 1.17 2.13c0 .74-.17 1.48-.17 2.22 0 .33.15.83.38.92s.79-.05.95-.28a3 3 0 0 0 .55-1.43c.04-.52-.1-1.07-.28-1.56-.36-1.02-.35-1.94.52-2.77m-141.4 21.9c-.3 1.13-.54 2.2-.87 3.23-.4 1.26-.67 2.46.5 3.48.13.12.17.33.27.5.47.83 1.21.97 2 .41q.73-.52 1.54-.95c.55-.3.9-.67.82-1.32-.16-1.42-.3-2.84-.51-4.25-.04-.23-.35-.54-.58-.59q-1.5-.28-3.17-.5m38.52-37.14.65 4.3 8.06-2.42c-.22-.62-.38-1.08-.55-1.52-.44-1.18-.44-1.2-1.7-1.06zm-61.3 8.23c-.53.6-1.09 1.18-1.58 1.8-.13.18-.14.53-.09.77.3 1.29.43 2.51-.63 3.57-.22.21-.35.65-.3.95.15.88.4 1.76.61 2.63.04.14.15.33.27.38 1.2.48 1.28 1.56 1.52 2.61.12.54.44 1.06.78 1.51.29.38.77.53 1.2.15.41-.36.6-.83.31-1.36l-1.87-3.38c-.33-.61-.72-1.26-.32-1.95.23-.4.21-.68 0-1.08a2.45 2.45 0 0 1 .73-3.14q.33-.23.64-.48c.42-.36.46-.7.08-1.16-.46-.54-.85-1.15-1.34-1.82m41.83 253.72c.86-.5.99-.86 1.26-1.88.3-1.13.6-2.3 1.16-3.29.7-1.18.6-2.26-.17-3.18a7.3 7.3 0 0 1-1.68-3.63c-.12-.77-.66-1.23-1.46-1.33 0 .73-.04 1.42.01 2.1.18 2.23.05 4.48.86 6.63.15.42.02.95.02 1.42zM127.2 205.26c.15-1.08.44-2.03.35-2.95-.03-.37-.92-.62-1.34-1-.58-.53-1.11-.54-1.71-.08-.72.56-1.5.6-2.33.24-1.26-.53-2.89.15-3.53 1.52zM109.32 84.88l-5.48 3.95 2.71 4c.38-.25.63-.4.87-.57l.74-.53c-1-1.21-.96-1.71.12-2.73l1.7-1.58c.32-.33.56-.7.19-1.19-.3-.39-.53-.83-.85-1.35m48.42 188.04c.67 0 1.31-.19 1.75.03 1.6.8 2.62.27 3.56-1.11.68-1 .68-2.25-.32-2.97-.2-.14-.6-.24-.8-.15q-1.85.8-3.82.5c-.18-.02-.58.34-.58.51.02 1.06.13 2.12.2 3.19m-65.16-91.67-.33-.03q-1.6 5.4-3.17 10.8c-.04.13.06.4.17.45.78.38 1.58.72 2.43 1.1 0-.53-.02-.92 0-1.31.08-1.3.06-2.61.28-3.88.19-1.07.68-2.07 1.03-3.1.47-1.42-.02-2.72-.41-4.03M227.92 83.6c.38.49.72.89 1 1.33.3.45.65.63 1.15.43 1.26-.49 2.53-.96 3.76-1.5 1.34-.59 2.64-1.25 3.95-1.88l1.44-.65c-.96-1.23-1.11-1.26-2.32-.77q-1.62.69-3.28 1.26c-1.85.6-3.7 1.16-5.7 1.78m-42.99 112.86c.2-.1.35-.13.42-.22a12 12 0 0 1 4.18-3.15c.75-.37 1.11-1.01 1.26-1.83.15-.78.38-1.54.54-2.32.06-.31.02-.64.03-.95q-.52.07-1 .2c-.18.08-.33.26-.49.4-.65.58-1.24 1.23-1.95 1.72-.78.54-1.3 1.21-1.39 2.13a3.2 3.2 0 0 1-1.13 2.28c-.48.4-.76.96-.47 1.74m80.43 147.49c-2.18.28-3.97.96-5.68 1.95-1.62.95-3.31 1.5-5.27 1.07-1.53-.33-2.86.21-3.9 1.6.3 0 .47.03.65 0q6.3-1.1 12.6-2.24c.21-.04.5-.16.59-.34.35-.62.64-1.27 1-2.04m-37.01-258.2c-.3-.4-.47-.6-.6-.83-.5-.95-1.21-1.23-2.23-.83-.41.16-.87.21-1.32.3l-5.4 1.02.9 2.3c2.7-1.34 5.6-1.64 8.65-1.96m7.2 60.16c-.21-.35.16-.98-.67-1.1-.56-.1-1.1-.43-1.6-.72-.9-.52-1.7-1.22-2.64-1.59a2.24 2.24 0 0 0-2.92 1.38c.34.07.68.1.98.23.58.26 1.27.47 1.68.91.84.9 1.78 1.17 2.95 1.03.7-.09 1.41-.1 2.21-.14M107.12 93.67l5.52 5.4c.53-1.28.43-1.84-.63-2.65-1.14-.87-1.69-1.92-1.52-3.37.03-.28-.14-.74-.36-.86-.23-.13-.68-.05-.95.1-.64.36-1.23.82-2.06 1.38m234.15 55.11c-1.18 1.65-1.28 2.9-.47 4.52q.15.31.23.67c.4 1.84.4 1.84 2.25 1.81h.71zm-129.75-38.56c-1.03.84-1.97 1.59-2.86 2.38-.09.08.02.5.15.68.26.36.65.63.9.99q1 1.49 1.96 3l.23-.11zm-71.17 143.56.11-.2a6.5 6.5 0 0 0-2.43-2.52c-1.38-.76-2.37-.24-2.72 1.46zm-16.39-5.43c-.02.6-.35 1.16.52 1.37 2.4.6 4.79 1.25 7.18 1.86.2.05.6.01.62-.08.1-.28.12-.62.04-.9-.03-.12-.38-.23-.58-.22-2.55.1-4.99-.24-7.17-1.7q-.25-.15-.6-.33m120.85-136.32c-.45 1.25-.05 2.28.48 3.28.61 1.16 1.26 2.3 1.93 3.52l.9-.29zM124.05 83.06c-.83.47-1.7.78-2.29 1.36-.37.37-.36 1.16-.45 1.76-.01.1.4.34.62.34.63.02 1.56-.86 1.68-1.5zm89.28 84.66c0-.37.07-.7-.02-.99-.07-.18-.4-.43-.56-.4-.8.17-1.15.78-1.51 1.59z" fill="#7A8594"/><g filter="url(#filter0_d_4474_41270)"><rect x="310" y="284" width="32" height="35" rx="4" fill="#2C3239"/><rect x="312" y="286" width="11" height="11" rx="2" fill="#2B47FF"/><rect x="325" y="288" width="15" height="3" rx="1.5" fill="#888888"/><rect opacity="0.5" x="312" y="299" width="28" height="2" rx="1" fill="#888888"/><rect opacity="0.5" x="312" y="303" width="28" height="2" rx="1" fill="#888888"/><rect opacity="0.5" x="312" y="307" width="28" height="2" rx="1" fill="#888888"/><rect opacity="0.5" x="312" y="311" width="28" height="2" rx="1" fill="#888888"/><rect opacity="0.5" x="312" y="315" width="23" height="2" rx="1" fill="#888888"/><rect x="325" y="293" width="10" height="3" rx="1.5" fill="#888888"/></g><g filter="url(#filter1_d_4474_41270)"><rect x="161" y="297" width="32" height="35" rx="4" fill="#2C3239"/><rect x="163" y="299" width="11" height="11" rx="2" fill="#2B47FF"/><rect x="176" y="301" width="15" height="3" rx="1.5" fill="#888888"/><rect opacity="0.5" x="163" y="312" width="28" height="2" rx="1" fill="#888888"/><rect opacity="0.5" x="163" y="316" width="28" height="2" rx="1" fill="#888888"/><rect opacity="0.5" x="163" y="320" width="28" height="2" rx="1" fill="#888888"/><rect opacity="0.5" x="163" y="324" width="28" height="2" rx="1" fill="#888888"/><rect opacity="0.5" x="163" y="328" width="23" height="2" rx="1" fill="#888888"/><rect x="176" y="306" width="10" height="3" rx="1.5" fill="#888888"/></g><g filter="url(#filter2_d_4474_41270)"><rect x="322" y="128" width="32" height="35" rx="4" fill="#2C3239"/><rect x="324" y="130" width="11" height="11" rx="2" fill="#2B47FF"/><rect x="337" y="132" width="15" height="3" rx="1.5" fill="#888888"/><rect opacity="0.5" x="324" y="143" width="28" height="2" rx="1" fill="#888888"/><rect opacity="0.5" x="324" y="147" width="28" height="2" rx="1" fill="#888888"/><rect opacity="0.5" x="324" y="151" width="28" height="2" rx="1" fill="#888888"/><rect opacity="0.5" x="324" y="155" width="28" height="2" rx="1" fill="#888888"/><rect opacity="0.5" x="324" y="159" width="23" height="2" rx="1" fill="#888888"/><rect x="337" y="137" width="10" height="3" rx="1.5" fill="#888888"/></g><g filter="url(#filter3_d_4474_41270)"><rect x="203" y="149" width="32" height="35" rx="4" fill="#2C3239"/><rect x="205" y="151" width="11" height="11" rx="2" fill="#FF5E3A"/><rect x="218" y="153" width="15" height="3" rx="1.5" fill="#888888"/><rect opacity="0.5" x="205" y="164" width="28" height="2" rx="1" fill="#888888"/><rect opacity="0.5" x="205" y="168" width="28" height="2" rx="1" fill="#888888"/><rect opacity="0.5" x="205" y="172" width="28" height="2" rx="1" fill="#888888"/><rect opacity="0.5" x="205" y="176" width="28" height="2" rx="1" fill="#888888"/><rect opacity="0.5" x="205" y="180" width="23" height="2" rx="1" fill="#888888"/><rect x="218" y="158" width="10" height="3" rx="1.5" fill="#888888"/></g><g filter="url(#filter4_d_4474_41270)"><rect x="102" y="206" width="32" height="35" rx="4" fill="#2C3239"/><rect x="104" y="208" width="11" height="11" rx="2" fill="#FF5E3A"/><rect x="117" y="210" width="15" height="3" rx="1.5" fill="#888888"/><rect opacity="0.5" x="104" y="221" width="28" height="2" rx="1" fill="#888888"/><rect opacity="0.5" x="104" y="225" width="28" height="2" rx="1" fill="#888888"/><rect opacity="0.5" x="104" y="229" width="28" height="2" rx="1" fill="#888888"/><rect opacity="0.5" x="104" y="233" width="28" height="2" rx="1" fill="#888888"/><rect opacity="0.5" x="104" y="237" width="23" height="2" rx="1" fill="#888888"/><rect x="117" y="215" width="10" height="3" rx="1.5" fill="#888888"/></g><g filter="url(#filter5_d_4474_41270)"><rect x="243" y="312" width="32" height="35" rx="4" fill="#2C3239"/><rect x="245" y="314" width="11" height="11" rx="2" fill="#FF5E3A"/><rect x="258" y="316" width="15" height="3" rx="1.5" fill="#888888"/><rect opacity="0.5" x="245" y="327" width="28" height="2" rx="1" fill="#888888"/><rect opacity="0.5" x="245" y="331" width="28" height="2" rx="1" fill="#888888"/><rect opacity="0.5" x="245" y="335" width="28" height="2" rx="1" fill="#888888"/><rect opacity="0.5" x="245" y="339" width="28" height="2" rx="1" fill="#888888"/><rect opacity="0.5" x="245" y="343" width="23" height="2" rx="1" fill="#888888"/><rect x="258" y="321" width="10" height="3" rx="1.5" fill="#888888"/></g><g filter="url(#filter6_d_4474_41270)"><rect x="128" y="82" width="32" height="35" rx="4" fill="#2C3239"/><rect x="130" y="84" width="11" height="11" rx="2" fill="#2B47FF"/><rect x="143" y="86" width="15" height="3" rx="1.5" fill="#888888"/><rect opacity="0.5" x="130" y="97" width="28" height="2" rx="1" fill="#888888"/><rect opacity="0.5" x="130" y="101" width="28" height="2" rx="1" fill="#888888"/><rect opacity="0.5" x="130" y="105" width="28" height="2" rx="1" fill="#888888"/><rect opacity="0.5" x="130" y="109" width="28" height="2" rx="1" fill="#888888"/><rect opacity="0.5" x="130" y="113" width="23" height="2" rx="1" fill="#888888"/><rect x="143" y="91" width="10" height="3" rx="1.5" fill="#888888"/></g></g><defs><filter id="filter0_d_4474_41270" x="302" y="282" width="48" height="51" filterUnits="userSpaceOnUse" color-interpolation-filters="sRGB"><feFlood flood-opacity="0" result="BackgroundImageFix"/><feColorMatrix in="SourceAlpha" type="matrix" values="0 0 0 0 0 0 0 0 0 0 0 0 0 0 0 0 0 0 127 0" result="hardAlpha"/><feOffset dy="6"/><feGaussianBlur stdDeviation="4"/><feComposite in2="hardAlpha" operator="out"/><feColorMatrix type="matrix" values="0 0 0 0 0 0 0 0 0 0 0 0 0 0 0 0 0 0 0.17 0"/><feBlend mode="normal" in2="BackgroundImageFix" result="effect1_dropShadow_4474_41270"/><feBlend mode="normal" in="SourceGraphic" in2="effect1_dropShadow_4474_41270" result="shape"/></filter><filter id="filter1_d_4474_41270" x="153" y="295" width="48" height="51" filterUnits="userSpaceOnUse" color-interpolation-filters="sRGB"><feFlood flood-opacity="0" result="BackgroundImageFix"/><feColorMatrix in="SourceAlpha" type="matrix" values="0 0 0 0 0 0 0 0 0 0 0 0 0 0 0 0 0 0 127 0" result="hardAlpha"/><feOffset dy="6"/><feGaussianBlur stdDeviation="4"/><feComposite in2="hardAlpha" operator="out"/><feColorMatrix type="matrix" values="0 0 0 0 0 0 0 0 0 0 0 0 0 0 0 0 0 0 0.17 0"/><feBlend mode="normal" in2="BackgroundImageFix" result="effect1_dropShadow_4474_41270"/><feBlend mode="normal" in="SourceGraphic" in2="effect1_dropShadow_4474_41270" result="shape"/></filter><filter id="filter2_d_4474_41270" x="314" y="126" width="48" height="51" filterUnits="userSpaceOnUse" color-interpolation-filters="sRGB"><feFlood flood-opacity="0" result="BackgroundImageFix"/><feColorMatrix in="SourceAlpha" type="matrix" values="0 0 0 0 0 0 0 0 0 0 0 0 0 0 0 0 0 0 127 0" result="hardAlpha"/><feOffset dy="6"/><feGaussianBlur stdDeviation="4"/><feComposite in2="hardAlpha" operator="out"/><feColorMatrix type="matrix" values="0 0 0 0 0 0 0 0 0 0 0 0 0 0 0 0 0 0 0.17 0"/><feBlend mode="normal" in2="BackgroundImageFix" result="effect1_dropShadow_4474_41270"/><feBlend mode="normal" in="SourceGraphic" in2="effect1_dropShadow_4474_41270" result="shape"/></filter><filter id="filter3_d_4474_41270" x="195" y="147" width="48" height="51" filterUnits="userSpaceOnUse" color-interpolation-filters="sRGB"><feFlood flood-opacity="0" result="BackgroundImageFix"/><feColorMatrix in="SourceAlpha" type="matrix" values="0 0 0 0 0 0 0 0 0 0 0 0 0 0 0 0 0 0 127 0" result="hardAlpha"/><feOffset dy="6"/><feGaussianBlur stdDeviation="4"/><feComposite in2="hardAlpha" operator="out"/><feColorMatrix type="matrix" values="0 0 0 0 0 0 0 0 0 0 0 0 0 0 0 0 0 0 0.17 0"/><feBlend mode="normal" in2="BackgroundImageFix" result="effect1_dropShadow_4474_41270"/><feBlend mode="normal" in="SourceGraphic" in2="effect1_dropShadow_4474_41270" result="shape"/></filter><filter id="filter4_d_4474_41270" x="94" y="204" width="48" height="51" filterUnits="userSpaceOnUse" color-interpolation-filters="sRGB"><feFlood flood-opacity="0" result="BackgroundImageFix"/><feColorMatrix in="SourceAlpha" type="matrix" values="0 0 0 0 0 0 0 0 0 0 0 0 0 0 0 0 0 0 127 0" result="hardAlpha"/><feOffset dy="6"/><feGaussianBlur stdDeviation="4"/><feComposite in2="hardAlpha" operator="out"/><feColorMatrix type="matrix" values="0 0 0 0 0 0 0 0 0 0 0 0 0 0 0 0 0 0 0.17 0"/><feBlend mode="normal" in2="BackgroundImageFix" result="effect1_dropShadow_4474_41270"/><feBlend mode="normal" in="SourceGraphic" in2="effect1_dropShadow_4474_41270" result="shape"/></filter><filter id="filter5_d_4474_41270" x="235" y="310" width="48" height="51" filterUnits="userSpaceOnUse" color-interpolation-filters="sRGB"><feFlood flood-opacity="0" result="BackgroundImageFix"/><feColorMatrix in="SourceAlpha" type="matrix" values="0 0 0 0 0 0 0 0 0 0 0 0 0 0 0 0 0 0 127 0" result="hardAlpha"/><feOffset dy="6"/><feGaussianBlur stdDeviation="4"/><feComposite in2="hardAlpha" operator="out"/><feColorMatrix type="matrix" values="0 0 0 0 0 0 0 0 0 0 0 0 0 0 0 0 0 0 0.17 0"/><feBlend mode="normal" in2="BackgroundImageFix" result="effect1_dropShadow_4474_41270"/><feBlend mode="normal" in="SourceGraphic" in2="effect1_dropShadow_4474_41270" result="shape"/></filter><filter id="filter6_d_4474_41270" x="120" y="80" width="48" height="51" filterUnits="userSpaceOnUse" color-interpolation-filters="sRGB"><feFlood flood-opacity="0" result="BackgroundImageFix"/><feColorMatrix in="SourceAlpha" type="matrix" values="0 0 0 0 0 0 0 0 0 0 0 0 0 0 0 0 0 0 127 0" result="hardAlpha"/><feOffset dy="6"/><feGaussianBlur stdDeviation="4"/><feComposite in2="hardAlpha" operator="out"/><feColorMatrix type="matrix" values="0 0 0 0 0 0 0 0 0 0 0 0 0 0 0 0 0 0 0.17 0"/><feBlend mode="normal" in2="BackgroundImageFix" result="effect1_dropShadow_4474_41270"/><feBlend mode="normal" in="SourceGraphic" in2="effect1_dropShadow_4474_41270" result="shape"/></filter><clipPath id="clip0_4474_41270"><path fill="white" d="M-17 0h436v436H-17z"/></clipPath></defs></svg>