<svg width="448" height="448" viewBox="0 0 448 448" fill="none" xmlns="http://www.w3.org/2000/svg"><circle opacity="0.5" cx="224" cy="224" r="68.5" stroke="#6484FF"/><circle opacity="0.3" cx="224" cy="224" r="100.5" stroke="#6484FF"/><circle opacity="0.2" cx="224" cy="224" r="151.5" stroke="#6484FF"/><circle opacity="0.1" cx="224" cy="224" r="223.5" stroke="#6484FF"/><g filter="url(#filter0_dd_4474_41233)"><rect x="180" y="176" width="88" height="97" rx="11" fill="#1C2024"/><rect x="180.5" y="176.5" width="87" height="96" rx="10.5" stroke="#2C3239"/><rect x="185.5" y="181.5" width="30.25" height="30.25" rx="5.5" fill="#6484FF"/><rect opacity="0.4" x="221.25" y="183" width="41.25" height="8.25" rx="4.125" fill="#888888"/><rect opacity="0.3" x="185.5" y="217.25" width="77" height="5.5" rx="2.75" fill="#5A5D61"/><rect opacity="0.3" x="185.5" y="228.25" width="77" height="5.5" rx="2.75" fill="#5A5D61"/><rect opacity="0.3" x="185.5" y="239.25" width="77" height="5.5" rx="2.75" fill="#5A5D61"/><rect opacity="0.3" x="185.5" y="250.25" width="77" height="5.5" rx="2.75" fill="#5A5D61"/><rect opacity="0.3" x="185.5" y="261.25" width="63.25" height="5.5" rx="2.75" fill="#5A5D61"/><rect opacity="0.4" x="221.25" y="196.75" width="27.5" height="8.25" rx="4.125" fill="#888888"/></g><g filter="url(#filter1_d_4474_41233)"><rect x="49" y="155.412" width="42" height="42" rx="16" transform="rotate(-20.0685 49 155.412)" fill="#1C2024" shape-rendering="crispEdges"/><rect x="49.6412" y="155.71" width="41" height="41" rx="15.5" transform="rotate(-20.0685 49.6412 155.71)" stroke="#2C3239" shape-rendering="crispEdges"/><g clip-path="url(#clip0_4474_41233)"><path d="M70.33 161.72a6.3 6.3 0 0 1 5.66-4.63 8.4 8.4 0 0 1 7.78 4.24c-1.18.01-2.34.4-3.29 1.1a5.7 5.7 0 0 0-5.3 1.16 7 7 0 0 0-2.2 6.66c.67 3.32 3.62 5.45 7.2 6.86l.6.23q-.55.22-1.14.29l-.6.07-.69.05c-6.18.47-10.83-.62-13.26-3.92a8.4 8.4 0 0 1-1.03-8.37 6.3 6.3 0 0 1 6.27-3.74m5.1 8.04c-.69-3.46 2.51-6.46 5.49-4.36q.04.03.1.02.05 0 .08-.05c2.07-3 6.1-1.28 6.64 2.2q.48 3.05-3.53 6.62l-.44.39-.26.24c-.23.2-.48.39-.75.43-.27.05-.57-.04-.85-.15l-.49-.2q-5.35-2-5.98-5.14" fill="#E6352B"/></g></g><g filter="url(#filter2_d_4474_41233)"><rect x="333.954" y="271.854" width="42" height="42" rx="16" transform="rotate(21.0711 333.954 271.854)" fill="#1C2024" shape-rendering="crispEdges"/><rect x="334.241" y="272.5" width="41" height="41" rx="15.5" transform="rotate(21.0711 334.241 272.5)" stroke="#2C3239" shape-rendering="crispEdges"/><g clip-path="url(#clip1_4474_41233)"><path d="m341.49 295.01-1.42 1.7-1.69-.65 5.77-6.52 1.96.75-.11 8.7-1.78-.68.1-2.21zm2.92-.16.15-3.48-.07-.03-2.22 2.68z" fill="#AE4FCB"/><path d="M337.33 285.16a3.26 3.26 0 0 1 4.22-1.87l10.67 4.1a3.26 3.26 0 0 1 1.87 4.23l-1.76 4.57 4.57 1.76a3.26 3.26 0 0 1 1.88 4.22l-4.11 10.67a3.27 3.27 0 0 1-4.23 1.87l-10.66-4.1a3.26 3.26 0 0 1-1.87-4.23l1.76-4.57-4.57-1.76a3.26 3.26 0 0 1-1.88-4.22zm3.64-.35a1.63 1.63 0 0 0-2.11.94l-4.11 10.66a1.63 1.63 0 0 0 .93 2.11l10.67 4.11a1.63 1.63 0 0 0 2.11-.93l4.1-10.67a1.63 1.63 0 0 0-.93-2.11zm5 19.42q.18.85.47 1.66-2.22.65-4.98.34c.15.44.32 1.23.34 1.65a14 14 0 0 0 5.27-.58 12 12 0 0 0 3.6 3.96c.35-.3 1.03-.78 1.48-.99a12 12 0 0 1-3.54-3.6 13 13 0 0 0 4.09-3.26l1.83.7.61-1.59-4.57-1.76-.61 1.6 1.16.44a11 11 0 0 1-3.19 2.5 10 10 0 0 1-.34-1q-.83.18-1.61-.07" fill="#AE4FCB"/></g></g><g filter="url(#filter3_d_4474_41233)"><rect x="300.426" y="141.887" width="42" height="42" rx="16" transform="rotate(26.194 300.426 141.887)" fill="#1C2024" shape-rendering="crispEdges"/><rect x="300.654" y="142.556" width="41" height="41" rx="15.5" transform="rotate(26.194 300.654 142.556)" stroke="#2C3239" shape-rendering="crispEdges"/><g clip-path="url(#clip2_4474_41233)"><path d="M320.49 161.8a1.5 1.5 0 0 0-1.97 1.58c.05.5.4.86.62 1.27.2.38.47.92.66 1.6.4 1.32.54 3.1-.41 5.03a1.5 1.5 0 1 0 2.7 1.32 9.8 9.8 0 0 0 .59-7.21c-.27-.92-.63-1.67-.92-2.2s-.65-1.18-1.28-1.39m-8.52 2.49a5.25 5.25 0 0 0-6.74 1.88 1.5 1.5 0 0 1-2.53-1.61 8.25 8.25 0 1 1 9.93 12.13q-1.14.47-1.45 1.1l-.12.26a5.25 5.25 0 0 1-7.03 2.4 1.5 1.5 0 1 1 1.32-2.7c1.12.55 2.46.09 3.01-1.03l.13-.25a5.5 5.5 0 0 1 3.06-2.57 5.23 5.23 0 0 0 .42-9.6zm-17.37 9.84a1.5 1.5 0 1 1 2.69 1.32 1.5 1.5 0 0 1-2.7-1.32m8.71-.73a1.5 1.5 0 1 0 1.33-2.69 1.5 1.5 0 0 0-1.33 2.69m-2.62-2.47a1.5 1.5 0 0 0-2.84.97l1.37 4.01a1.5 1.5 0 0 0 2.84-.96zm9.63-3.28a1.5 1.5 0 0 0-2 .69c-.28.56-.96.78-1.51.5a1.1 1.1 0 0 1-.52-1.5 3.75 3.75 0 1 1 6.73 3.31 1.12 1.12 0 1 1-2.02-1 1.5 1.5 0 0 0-.68-2" fill="#FF815C"/></g></g><g filter="url(#filter4_d_4474_41233)"><rect x="238.933" y="63.5996" width="42" height="42" rx="16" transform="rotate(-9.1356 238.933 63.5996)" fill="#1C2024" shape-rendering="crispEdges"/><rect x="239.506" y="64.0139" width="41" height="41" rx="15.5" transform="rotate(-9.1356 239.506 64.0139)" stroke="#2C3239" shape-rendering="crispEdges"/><path d="m259.37 86.96 5.94-2.79a2.5 2.5 0 0 0 1.43-1.97l.79-6.52a.6.6 0 0 0-.27-.57.6.6 0 0 0-.63-.08l-5.94 2.8a2.5 2.5 0 0 0-1.43 1.97l-.78 6.52a.6.6 0 0 0 .26.57q.3.22.63.07m3.93-4.1a1.8 1.8 0 0 1-1.4-.34q-.63-.45-.75-1.22a1.8 1.8 0 0 1 .33-1.4q.45-.63 1.22-.75.77-.14 1.4.33.63.44.75 1.22.12.77-.33 1.4-.44.63-1.22.75m1.69 10.48q-2.57.41-4.97-.2-2.42-.6-4.35-2a12.6 12.6 0 0 1-5.01-8.16q-.42-2.55.2-4.97.6-2.4 2-4.34a12.6 12.6 0 0 1 8.16-5.01q2.55-.42 4.97.2a12.6 12.6 0 0 1 7.6 5.5 12 12 0 0 1 1.75 4.65q.4 2.57-.2 4.97a12.6 12.6 0 0 1-5.5 7.62q-2.1 1.33-4.65 1.74m-.4-2.47a9.7 9.7 0 0 0 6.52-4 9.6 9.6 0 0 0 1.76-7.46 9.7 9.7 0 0 0-4-6.52 9.6 9.6 0 0 0-7.46-1.76 9.6 9.6 0 0 0-6.52 4 9.7 9.7 0 0 0-1.76 7.46 9.6 9.6 0 0 0 4 6.52 9.6 9.6 0 0 0 7.46 1.76" fill="#1C9FAF"/></g><g filter="url(#filter5_d_4474_41233)"><rect x="134.529" y="266.533" width="42" height="42" rx="16" transform="rotate(18.0256 134.529 266.533)" fill="#1C2024" shape-rendering="crispEdges"/><rect x="134.85" y="267.163" width="41" height="41" rx="15.5" transform="rotate(18.0256 134.85 267.163)" stroke="#2C3239" shape-rendering="crispEdges"/><g clip-path="url(#clip3_4474_41233)"><path fill-rule="evenodd" clip-rule="evenodd" d="M151.87 281.11a12.5 12.5 0 0 0-16.27 13.46l-2.86 5.03a1.24 1.24 0 0 0 .37 1.64q.26.19.57.22l5.75.65a12.5 12.5 0 1 0 12.44-21" fill="#00BFA5"/></g></g><g filter="url(#filter6_d_4474_41233)"><rect x="201" y="357" width="42" height="42" rx="16" fill="#1C2024" shape-rendering="crispEdges"/><rect x="201.5" y="357.5" width="41" height="41" rx="15.5" stroke="#2C3239" shape-rendering="crispEdges"/><path d="m222 385.5-5.25 2.25a2.4 2.4 0 0 1-2.37-.2 2.3 2.3 0 0 1-1.13-2.08v-16.22q0-1.04.74-1.76a2.4 2.4 0 0 1 1.76-.74h12.5q1.03 0 1.77.74.73.73.73 1.76v16.22q0 1.35-1.12 2.08-1.13.74-2.38.2z" fill="#6484FF"/></g><defs><filter id="filter0_dd_4474_41233" x="152.7" y="160.5" width="142.6" height="157.8" filterUnits="userSpaceOnUse" color-interpolation-filters="sRGB"><feFlood flood-opacity="0" result="BackgroundImageFix"/><feColorMatrix in="SourceAlpha" type="matrix" values="0 0 0 0 0 0 0 0 0 0 0 0 0 0 0 0 0 0 127 0" result="hardAlpha"/><feOffset dy="6.5"/><feGaussianBlur stdDeviation="11"/><feComposite in2="hardAlpha" operator="out"/><feColorMatrix type="matrix" values="0 0 0 0 0 0 0 0 0 0 0 0 0 0 0 0 0 0 0.11 0"/><feBlend mode="normal" in2="BackgroundImageFix" result="effect1_dropShadow_4474_41233"/><feColorMatrix in="SourceAlpha" type="matrix" values="0 0 0 0 0 0 0 0 0 0 0 0 0 0 0 0 0 0 127 0" result="hardAlpha"/><feOffset dy="18"/><feGaussianBlur stdDeviation="13.65"/><feComposite in2="hardAlpha" operator="out"/><feColorMatrix type="matrix" values="0 0 0 0 0.168627 0 0 0 0 0.278431 0 0 0 0 1 0 0 0 0.13 0"/><feBlend mode="normal" in2="effect1_dropShadow_4474_41233" result="effect2_dropShadow_4474_41233"/><feBlend mode="normal" in="SourceGraphic" in2="effect2_dropShadow_4474_41233" result="shape"/></filter><filter id="filter1_d_4474_41233" x="41" y="140" width="69.8623" height="69.8613" filterUnits="userSpaceOnUse" color-interpolation-filters="sRGB"><feFlood flood-opacity="0" result="BackgroundImageFix"/><feColorMatrix in="SourceAlpha" type="matrix" values="0 0 0 0 0 0 0 0 0 0 0 0 0 0 0 0 0 0 127 0" result="hardAlpha"/><feOffset dy="7"/><feGaussianBlur stdDeviation="4"/><feComposite in2="hardAlpha" operator="out"/><feColorMatrix type="matrix" values="0 0 0 0 0 0 0 0 0 0 0 0 0 0 0 0 0 0 0.06 0"/><feBlend mode="normal" in2="BackgroundImageFix" result="effect1_dropShadow_4474_41233"/><feBlend mode="normal" in="SourceGraphic" in2="effect1_dropShadow_4474_41233" result="shape"/></filter><filter id="filter2_d_4474_41233" x="310.854" y="270.854" width="70.292" height="70.291" filterUnits="userSpaceOnUse" color-interpolation-filters="sRGB"><feFlood flood-opacity="0" result="BackgroundImageFix"/><feColorMatrix in="SourceAlpha" type="matrix" values="0 0 0 0 0 0 0 0 0 0 0 0 0 0 0 0 0 0 127 0" result="hardAlpha"/><feOffset dy="7"/><feGaussianBlur stdDeviation="4"/><feComposite in2="hardAlpha" operator="out"/><feColorMatrix type="matrix" values="0 0 0 0 0 0 0 0 0 0 0 0 0 0 0 0 0 0 0.06 0"/><feBlend mode="normal" in2="BackgroundImageFix" result="effect1_dropShadow_4474_41233"/><feBlend mode="normal" in="SourceGraphic" in2="effect1_dropShadow_4474_41233" result="shape"/></filter><filter id="filter3_d_4474_41233" x="273.887" y="140.887" width="72.2256" height="72.2266" filterUnits="userSpaceOnUse" color-interpolation-filters="sRGB"><feFlood flood-opacity="0" result="BackgroundImageFix"/><feColorMatrix in="SourceAlpha" type="matrix" values="0 0 0 0 0 0 0 0 0 0 0 0 0 0 0 0 0 0 127 0" result="hardAlpha"/><feOffset dy="7"/><feGaussianBlur stdDeviation="4"/><feComposite in2="hardAlpha" operator="out"/><feColorMatrix type="matrix" values="0 0 0 0 0 0 0 0 0 0 0 0 0 0 0 0 0 0 0.06 0"/><feBlend mode="normal" in2="BackgroundImageFix" result="effect1_dropShadow_4474_41233"/><feBlend mode="normal" in="SourceGraphic" in2="effect1_dropShadow_4474_41233" result="shape"/></filter><filter id="filter4_d_4474_41233" x="230.933" y="55.9316" width="64.1357" height="64.1348" filterUnits="userSpaceOnUse" color-interpolation-filters="sRGB"><feFlood flood-opacity="0" result="BackgroundImageFix"/><feColorMatrix in="SourceAlpha" type="matrix" values="0 0 0 0 0 0 0 0 0 0 0 0 0 0 0 0 0 0 127 0" result="hardAlpha"/><feOffset dy="7"/><feGaussianBlur stdDeviation="4"/><feComposite in2="hardAlpha" operator="out"/><feColorMatrix type="matrix" values="0 0 0 0 0 0 0 0 0 0 0 0 0 0 0 0 0 0 0.06 0"/><feBlend mode="normal" in2="BackgroundImageFix" result="effect1_dropShadow_4474_41233"/><feBlend mode="normal" in="SourceGraphic" in2="effect1_dropShadow_4474_41233" result="shape"/></filter><filter id="filter5_d_4474_41233" x="113.533" y="265.533" width="68.9346" height="68.9355" filterUnits="userSpaceOnUse" color-interpolation-filters="sRGB"><feFlood flood-opacity="0" result="BackgroundImageFix"/><feColorMatrix in="SourceAlpha" type="matrix" values="0 0 0 0 0 0 0 0 0 0 0 0 0 0 0 0 0 0 127 0" result="hardAlpha"/><feOffset dy="7"/><feGaussianBlur stdDeviation="4"/><feComposite in2="hardAlpha" operator="out"/><feColorMatrix type="matrix" values="0 0 0 0 0 0 0 0 0 0 0 0 0 0 0 0 0 0 0.06 0"/><feBlend mode="normal" in2="BackgroundImageFix" result="effect1_dropShadow_4474_41233"/><feBlend mode="normal" in="SourceGraphic" in2="effect1_dropShadow_4474_41233" result="shape"/></filter><filter id="filter6_d_4474_41233" x="193" y="356" width="58" height="58" filterUnits="userSpaceOnUse" color-interpolation-filters="sRGB"><feFlood flood-opacity="0" result="BackgroundImageFix"/><feColorMatrix in="SourceAlpha" type="matrix" values="0 0 0 0 0 0 0 0 0 0 0 0 0 0 0 0 0 0 127 0" result="hardAlpha"/><feOffset dy="7"/><feGaussianBlur stdDeviation="4"/><feComposite in2="hardAlpha" operator="out"/><feColorMatrix type="matrix" values="0 0 0 0 0 0 0 0 0 0 0 0 0 0 0 0 0 0 0.06 0"/><feBlend mode="normal" in2="BackgroundImageFix" result="effect1_dropShadow_4474_41233"/><feBlend mode="normal" in="SourceGraphic" in2="effect1_dropShadow_4474_41233" result="shape"/></filter><clipPath id="clip0_4474_41233"><path fill="white" d="m56.7 158.99 28.17-10.3 10.3 28.18-28.18 10.3z"/></clipPath><clipPath id="clip1_4474_41233"><path fill="white" d="m337.4 279.6 27.99 10.8-10.79 27.99-27.99-10.79z"/></clipPath><clipPath id="clip2_4474_41233"><path fill="white" d="m303.16 149.92 26.92 13.24-13.24 26.92-26.92-13.24z"/></clipPath><clipPath id="clip3_4474_41233"><path fill="white" d="m138.38 274.1 28.53 9.28-9.29 28.53-28.53-9.29z"/></clipPath></defs></svg>