<svg width="400" height="427" viewBox="0 0 400 427" fill="none" xmlns="http://www.w3.org/2000/svg"><g clip-path="url(#clip0_4455_34356)"><circle opacity="0.3" cx="201" cy="224" r="68.5" stroke="#2B47FF"/><circle opacity="0.2" cx="201" cy="224" r="100.5" stroke="#2B47FF"/><circle opacity="0.1" cx="201" cy="224" r="151.5" stroke="#2B47FF"/><circle opacity="0.03" cx="201" cy="224" r="223.5" stroke="#2B47FF"/><g filter="url(#filter0_dd_4455_34356)"><rect x="157" y="176" width="88" height="97" rx="11" fill="#F9FAFB"/><rect x="157.5" y="176.5" width="87" height="96" rx="10.5" stroke="#E4E7EB"/><rect x="162.5" y="181.5" width="30.25" height="30.25" rx="5.5" fill="#2B47FF"/><rect x="198.25" y="183" width="41.25" height="8.25" rx="4.125" fill="#D9D9D9"/><rect opacity="0.5" x="162.5" y="217.25" width="77" height="5.5" rx="2.75" fill="#D9D9D9"/><rect opacity="0.5" x="162.5" y="228.25" width="77" height="5.5" rx="2.75" fill="#D9D9D9"/><rect opacity="0.5" x="162.5" y="239.25" width="77" height="5.5" rx="2.75" fill="#D9D9D9"/><rect opacity="0.5" x="162.5" y="250.25" width="77" height="5.5" rx="2.75" fill="#D9D9D9"/><rect opacity="0.5" x="162.5" y="261.25" width="63.25" height="5.5" rx="2.75" fill="#D9D9D9"/><rect x="198.25" y="196.75" width="27.5" height="8.25" rx="4.125" fill="#D9D9D9"/></g><g filter="url(#filter1_d_4455_34356)"><rect x="26" y="155.412" width="42" height="42" rx="16" transform="rotate(-20.0685 26 155.412)" fill="white" shape-rendering="crispEdges"/><g clip-path="url(#clip1_4455_34356)"><path d="M47.33 161.72a6.3 6.3 0 0 1 5.66-4.63 8.4 8.4 0 0 1 7.78 4.24c-1.18.01-2.34.4-3.29 1.1a5.7 5.7 0 0 0-5.3 1.16 7 7 0 0 0-2.2 6.66c.67 3.32 3.62 5.45 7.2 6.86l.6.23q-.55.22-1.14.29l-.6.07-.69.05c-6.18.47-10.83-.62-13.26-3.92a8.4 8.4 0 0 1-1.03-8.37 6.3 6.3 0 0 1 6.27-3.74m5.1 8.04c-.69-3.46 2.51-6.46 5.49-4.36q.04.03.1.02.05 0 .08-.05c2.07-3 6.1-1.28 6.64 2.2q.48 3.05-3.53 6.62l-.44.39-.26.24c-.23.2-.48.39-.75.43-.27.05-.57-.04-.85-.15l-.49-.2q-5.35-2-5.98-5.14" fill="#E6352B"/></g></g><g filter="url(#filter2_d_4455_34356)"><rect x="302" y="278" width="42" height="42" rx="16" fill="white" shape-rendering="crispEdges"/><path d="m317.36 296.9-.71 2.1h-1.81l3.04-8.16h2.1L323 299h-1.9l-.72-2.1zm2.67-1.2-1.11-3.3h-.08l-1.11 3.3z" fill="#8E24AA"/><path d="M309.94 289.2a3.27 3.27 0 0 1 3.26-3.26h11.43a3.27 3.27 0 0 1 3.27 3.26v4.9h4.9a3.27 3.27 0 0 1 3.26 3.27v11.43a3.27 3.27 0 0 1-3.26 3.26h-11.43a3.27 3.27 0 0 1-3.27-3.26v-4.9h-4.9a3.27 3.27 0 0 1-3.26-3.27zm3.26-1.63a1.63 1.63 0 0 0-1.63 1.63v11.43a1.63 1.63 0 0 0 1.63 1.64h11.43a1.63 1.63 0 0 0 1.64-1.64V289.2a1.63 1.63 0 0 0-1.64-1.63zm11.66 16.32q.47.74 1.03 1.38a13 13 0 0 1-4.52 2.11c.29.36.73 1.04.9 1.42q2.75-.87 4.72-2.44a12 12 0 0 0 4.78 2.4c.22-.41.68-1.1 1.03-1.45a12 12 0 0 1-4.6-2.1q1.66-1.81 2.64-4.5h1.96V299h-4.9v1.71h1.25a11 11 0 0 1-2.08 3.48 10 10 0 0 1-.68-.8q-.7.44-1.53.5" fill="#8E24AA"/></g><g filter="url(#filter3_d_4455_34356)"><rect x="266" y="149" width="42" height="42" rx="16" fill="white" shape-rendering="crispEdges"/><path d="M292.8 158.02a1.5 1.5 0 0 0-1.07 2.28c.26.42.72.6 1.11.87.35.24.83.62 1.3 1.13a6.8 6.8 0 0 1 1.85 4.7 1.5 1.5 0 1 0 3 0c0-3.1-1.34-5.31-2.65-6.73a10 10 0 0 0-1.8-1.56c-.5-.36-1.1-.78-1.76-.7zm-6.55 5.98a5.25 5.25 0 0 0-5.22 4.67 1.5 1.5 0 0 1-2.98-.33 8.25 8.25 0 1 1 14.27 6.5q-.84.93-.82 1.63v.29c0 2.9-2.35 5.25-5.25 5.25a1.5 1.5 0 1 1 0-3 2.25 2.25 0 0 0 2.25-2.25v-.29c0-1.54.82-2.8 1.61-3.66a5.25 5.25 0 0 0-3.86-8.8M275 180.5a1.5 1.5 0 1 1 3 0 1.5 1.5 0 0 1-3 0m7.5-4.5a1.5 1.5 0 1 0 0-3 1.5 1.5 0 0 0 0 3m-3.44-1.06a1.5 1.5 0 0 0-2.12 2.13l3 3a1.5 1.5 0 0 0 2.12-2.13zm7.19-7.19c-.83 0-1.5.67-1.5 1.5a1.12 1.12 0 1 1-2.25 0 3.75 3.75 0 1 1 7.5 0 1.12 1.12 0 1 1-2.25 0c0-.83-.67-1.5-1.5-1.5" fill="#FF5E3A"/></g><g filter="url(#filter4_d_4455_34356)"><rect x="219" y="60" width="42" height="42" rx="16" fill="white" shape-rendering="crispEdges"/><path d="m235.47 86.31 6.31-1.81a2.5 2.5 0 0 0 1.72-1.72l1.81-6.31a.6.6 0 0 0-.17-.61.6.6 0 0 0-.6-.17l-6.32 1.81a2.5 2.5 0 0 0-1.72 1.72l-1.81 6.31a.6.6 0 0 0 .17.61q.27.27.6.17m4.53-3.44a1.8 1.8 0 0 1-1.33-.54q-.54-.55-.54-1.33t.54-1.33 1.33-.55 1.33.55.54 1.33-.54 1.33-1.33.55m0 10.63q-2.6 0-4.87-.98A12.6 12.6 0 0 1 227.5 81q-.01-2.6.98-4.89A12.6 12.6 0 0 1 240 68.5q2.59 0 4.88.98a12.6 12.6 0 0 1 6.64 6.64q.99 2.29.98 4.88 0 2.59-.99 4.88a12.6 12.6 0 0 1-6.63 6.64 12 12 0 0 1-4.88.98m0-2.5q4.16 0 7.08-2.92A9.6 9.6 0 0 0 250 81q0-4.16-2.92-7.08A9.6 9.6 0 0 0 240 71q-4.16 0-7.08 2.92A9.7 9.7 0 0 0 230 81q0 4.16 2.92 7.08A9.6 9.6 0 0 0 240 91" fill="#1C9FAF"/></g><g filter="url(#filter5_d_4455_34356)"><rect x="104" y="272" width="42" height="42" rx="16" fill="white" shape-rendering="crispEdges"/><path fill-rule="evenodd" clip-rule="evenodd" d="M125 280.5a12.5 12.5 0 0 0-11.31 17.83l-1.16 5.67a1.25 1.25 0 0 0 1.47 1.47l5.67-1.16A12.5 12.5 0 1 0 125 280.5" fill="#00BFA5"/></g><g filter="url(#filter6_d_4455_34356)"><rect x="178" y="357" width="42" height="42" rx="16" fill="white" shape-rendering="crispEdges"/><path d="m199 385.5-5.25 2.25a2.4 2.4 0 0 1-2.37-.2 2.3 2.3 0 0 1-1.13-2.08v-16.22q0-1.04.74-1.76a2.4 2.4 0 0 1 1.76-.74h12.5q1.03 0 1.77.74.73.73.73 1.76v16.22q0 1.35-1.12 2.08-1.13.74-2.38.2z" fill="#2340E6"/></g></g><defs><filter id="filter0_dd_4455_34356" x="129.7" y="160.5" width="142.6" height="157.8" filterUnits="userSpaceOnUse" color-interpolation-filters="sRGB"><feFlood flood-opacity="0" result="BackgroundImageFix"/><feColorMatrix in="SourceAlpha" type="matrix" values="0 0 0 0 0 0 0 0 0 0 0 0 0 0 0 0 0 0 127 0" result="hardAlpha"/><feOffset dy="6.5"/><feGaussianBlur stdDeviation="11"/><feComposite in2="hardAlpha" operator="out"/><feColorMatrix type="matrix" values="0 0 0 0 0 0 0 0 0 0 0 0 0 0 0 0 0 0 0.11 0"/><feBlend mode="normal" in2="BackgroundImageFix" result="effect1_dropShadow_4455_34356"/><feColorMatrix in="SourceAlpha" type="matrix" values="0 0 0 0 0 0 0 0 0 0 0 0 0 0 0 0 0 0 127 0" result="hardAlpha"/><feOffset dy="18"/><feGaussianBlur stdDeviation="13.65"/><feComposite in2="hardAlpha" operator="out"/><feColorMatrix type="matrix" values="0 0 0 0 0.168627 0 0 0 0 0.278431 0 0 0 0 1 0 0 0 0.07 0"/><feBlend mode="normal" in2="effect1_dropShadow_4455_34356" result="effect2_dropShadow_4455_34356"/><feBlend mode="normal" in="SourceGraphic" in2="effect2_dropShadow_4455_34356" result="shape"/></filter><filter id="filter1_d_4455_34356" x="18" y="140" width="69.8623" height="69.8613" filterUnits="userSpaceOnUse" color-interpolation-filters="sRGB"><feFlood flood-opacity="0" result="BackgroundImageFix"/><feColorMatrix in="SourceAlpha" type="matrix" values="0 0 0 0 0 0 0 0 0 0 0 0 0 0 0 0 0 0 127 0" result="hardAlpha"/><feOffset dy="7"/><feGaussianBlur stdDeviation="4"/><feComposite in2="hardAlpha" operator="out"/><feColorMatrix type="matrix" values="0 0 0 0 0 0 0 0 0 0 0 0 0 0 0 0 0 0 0.06 0"/><feBlend mode="normal" in2="BackgroundImageFix" result="effect1_dropShadow_4455_34356"/><feBlend mode="normal" in="SourceGraphic" in2="effect1_dropShadow_4455_34356" result="shape"/></filter><filter id="filter2_d_4455_34356" x="294" y="277" width="58" height="58" filterUnits="userSpaceOnUse" color-interpolation-filters="sRGB"><feFlood flood-opacity="0" result="BackgroundImageFix"/><feColorMatrix in="SourceAlpha" type="matrix" values="0 0 0 0 0 0 0 0 0 0 0 0 0 0 0 0 0 0 127 0" result="hardAlpha"/><feOffset dy="7"/><feGaussianBlur stdDeviation="4"/><feComposite in2="hardAlpha" operator="out"/><feColorMatrix type="matrix" values="0 0 0 0 0 0 0 0 0 0 0 0 0 0 0 0 0 0 0.06 0"/><feBlend mode="normal" in2="BackgroundImageFix" result="effect1_dropShadow_4455_34356"/><feBlend mode="normal" in="SourceGraphic" in2="effect1_dropShadow_4455_34356" result="shape"/></filter><filter id="filter3_d_4455_34356" x="258" y="148" width="58" height="58" filterUnits="userSpaceOnUse" color-interpolation-filters="sRGB"><feFlood flood-opacity="0" result="BackgroundImageFix"/><feColorMatrix in="SourceAlpha" type="matrix" values="0 0 0 0 0 0 0 0 0 0 0 0 0 0 0 0 0 0 127 0" result="hardAlpha"/><feOffset dy="7"/><feGaussianBlur stdDeviation="4"/><feComposite in2="hardAlpha" operator="out"/><feColorMatrix type="matrix" values="0 0 0 0 0 0 0 0 0 0 0 0 0 0 0 0 0 0 0.06 0"/><feBlend mode="normal" in2="BackgroundImageFix" result="effect1_dropShadow_4455_34356"/><feBlend mode="normal" in="SourceGraphic" in2="effect1_dropShadow_4455_34356" result="shape"/></filter><filter id="filter4_d_4455_34356" x="211" y="59" width="58" height="58" filterUnits="userSpaceOnUse" color-interpolation-filters="sRGB"><feFlood flood-opacity="0" result="BackgroundImageFix"/><feColorMatrix in="SourceAlpha" type="matrix" values="0 0 0 0 0 0 0 0 0 0 0 0 0 0 0 0 0 0 127 0" result="hardAlpha"/><feOffset dy="7"/><feGaussianBlur stdDeviation="4"/><feComposite in2="hardAlpha" operator="out"/><feColorMatrix type="matrix" values="0 0 0 0 0 0 0 0 0 0 0 0 0 0 0 0 0 0 0.06 0"/><feBlend mode="normal" in2="BackgroundImageFix" result="effect1_dropShadow_4455_34356"/><feBlend mode="normal" in="SourceGraphic" in2="effect1_dropShadow_4455_34356" result="shape"/></filter><filter id="filter5_d_4455_34356" x="96" y="271" width="58" height="58" filterUnits="userSpaceOnUse" color-interpolation-filters="sRGB"><feFlood flood-opacity="0" result="BackgroundImageFix"/><feColorMatrix in="SourceAlpha" type="matrix" values="0 0 0 0 0 0 0 0 0 0 0 0 0 0 0 0 0 0 127 0" result="hardAlpha"/><feOffset dy="7"/><feGaussianBlur stdDeviation="4"/><feComposite in2="hardAlpha" operator="out"/><feColorMatrix type="matrix" values="0 0 0 0 0 0 0 0 0 0 0 0 0 0 0 0 0 0 0.06 0"/><feBlend mode="normal" in2="BackgroundImageFix" result="effect1_dropShadow_4455_34356"/><feBlend mode="normal" in="SourceGraphic" in2="effect1_dropShadow_4455_34356" result="shape"/></filter><filter id="filter6_d_4455_34356" x="170" y="356" width="58" height="58" filterUnits="userSpaceOnUse" color-interpolation-filters="sRGB"><feFlood flood-opacity="0" result="BackgroundImageFix"/><feColorMatrix in="SourceAlpha" type="matrix" values="0 0 0 0 0 0 0 0 0 0 0 0 0 0 0 0 0 0 127 0" result="hardAlpha"/><feOffset dy="7"/><feGaussianBlur stdDeviation="4"/><feComposite in2="hardAlpha" operator="out"/><feColorMatrix type="matrix" values="0 0 0 0 0 0 0 0 0 0 0 0 0 0 0 0 0 0 0.06 0"/><feBlend mode="normal" in2="BackgroundImageFix" result="effect1_dropShadow_4455_34356"/><feBlend mode="normal" in="SourceGraphic" in2="effect1_dropShadow_4455_34356" result="shape"/></filter><clipPath id="clip0_4455_34356"><path fill="white" d="M0 0h402v427H0z"/></clipPath><clipPath id="clip1_4455_34356"><path fill="white" d="m33.7 158.99 28.17-10.3 10.3 28.18-28.18 10.3z"/></clipPath></defs></svg>