<svg width="448" height="448" viewBox="0 0 448 448" fill="none" xmlns="http://www.w3.org/2000/svg">
<circle opacity="0.5" cx="224" cy="224" r="68.5" stroke="#6484FF"/>
<circle opacity="0.3" cx="224" cy="224" r="100.5" stroke="#6484FF"/>
<circle opacity="0.2" cx="224" cy="224" r="151.5" stroke="#6484FF"/>
<circle opacity="0.1" cx="224" cy="224" r="223.5" stroke="#6484FF"/>
<g filter="url(#filter0_dd_4474_41233)">
<rect x="180" y="176" width="88" height="97" rx="11" fill="#1C2024"/>
<rect x="180.5" y="176.5" width="87" height="96" rx="10.5" stroke="#2C3239"/>
<rect x="185.5" y="181.5" width="30.25" height="30.25" rx="5.5" fill="#6484FF"/>
<rect opacity="0.4" x="221.25" y="183" width="41.25" height="8.25" rx="4.125" fill="#888888"/>
<rect opacity="0.3" x="185.5" y="217.25" width="77" height="5.5" rx="2.75" fill="#5A5D61"/>
<rect opacity="0.3" x="185.5" y="228.25" width="77" height="5.5" rx="2.75" fill="#5A5D61"/>
<rect opacity="0.3" x="185.5" y="239.25" width="77" height="5.5" rx="2.75" fill="#5A5D61"/>
<rect opacity="0.3" x="185.5" y="250.25" width="77" height="5.5" rx="2.75" fill="#5A5D61"/>
<rect opacity="0.3" x="185.5" y="261.25" width="63.25" height="5.5" rx="2.75" fill="#5A5D61"/>
<rect opacity="0.4" x="221.25" y="196.75" width="27.5" height="8.25" rx="4.125" fill="#888888"/>
</g>
<g filter="url(#filter1_d_4474_41233)">
<rect x="49" y="155.412" width="42" height="42" rx="16" transform="rotate(-20.0685 49 155.412)" fill="#1C2024" shape-rendering="crispEdges"/>
<rect x="49.6412" y="155.71" width="41" height="41" rx="15.5" transform="rotate(-20.0685 49.6412 155.71)" stroke="#2C3239" shape-rendering="crispEdges"/>
<g clip-path="url(#clip0_4474_41233)">
<path d="M70.3314 161.717C71.182 158.872 73.4502 157.303 75.9856 157.089C78.7222 156.857 81.6918 158.196 83.5064 160.908C83.5997 161.047 83.6879 161.188 83.7711 161.33C82.5854 161.34 81.4337 161.728 80.4841 162.438C78.5647 161.872 76.6245 162.368 75.1847 163.589C73.3817 165.119 72.4668 167.664 72.9864 170.255C73.6528 173.573 76.5977 175.696 80.1808 177.108L80.7805 177.336C80.4224 177.496 80.028 177.575 79.6432 177.629C79.4454 177.656 79.2469 177.679 79.048 177.697L78.3532 177.751C72.172 178.222 67.5184 177.126 65.0949 173.833C63.1605 171.205 62.9109 167.957 64.0593 165.461C65.1232 163.15 67.368 161.55 70.3314 161.717ZM75.4375 169.763C74.7425 166.301 77.9435 163.301 80.9178 165.403C80.9461 165.422 80.9807 165.43 81.0144 165.423C81.048 165.417 81.078 165.398 81.0976 165.37C83.1662 162.374 87.2035 164.089 87.7424 167.578C88.0558 169.602 86.8783 171.806 84.2099 174.192L83.772 174.578L83.5096 174.818C83.2812 175.019 83.0299 175.206 82.7588 175.254C82.4889 175.302 82.1886 175.212 81.9051 175.103L81.421 174.907C77.8511 173.562 75.8566 171.847 75.4375 169.763Z" fill="#E6352B"/>
</g>
</g>
<g filter="url(#filter2_d_4474_41233)">
<rect x="333.954" y="271.854" width="42" height="42" rx="16" transform="rotate(21.0711 333.954 271.854)" fill="#1C2024" shape-rendering="crispEdges"/>
<rect x="334.241" y="272.5" width="41" height="41" rx="15.5" transform="rotate(21.0711 334.241 272.5)" stroke="#2C3239" shape-rendering="crispEdges"/>
<g clip-path="url(#clip1_4474_41233)">
<path d="M341.49 295.011L340.072 296.715L338.381 296.063L344.153 289.538L346.11 290.292L345.999 298.999L344.221 298.314L344.313 296.099L341.49 295.011ZM344.412 294.849L344.564 291.37L344.49 291.341L342.268 294.023L344.412 294.849Z" fill="#AE4FCB"/>
<path d="M337.333 285.161C337.644 284.352 338.264 283.701 339.055 283.35C339.847 282.998 340.746 282.976 341.554 283.287L352.22 287.397C353.028 287.708 353.679 288.328 354.03 289.119C354.382 289.911 354.404 290.81 354.093 291.618L352.332 296.189L356.903 297.95C357.711 298.261 358.362 298.881 358.713 299.673C359.065 300.464 359.087 301.363 358.776 302.171L354.666 312.837C354.355 313.645 353.735 314.296 352.944 314.648C352.152 314.999 351.253 315.021 350.445 314.71L339.78 310.601C338.971 310.289 338.32 309.67 337.969 308.878C337.617 308.086 337.595 307.188 337.906 306.379L339.668 301.808L335.097 300.047C334.288 299.736 333.637 299.116 333.286 298.325C332.935 297.533 332.912 296.634 333.223 295.826L337.333 285.161ZM340.967 284.811C340.563 284.655 340.114 284.667 339.718 284.842C339.322 285.018 339.012 285.343 338.856 285.748L334.747 296.413C334.591 296.817 334.603 297.267 334.778 297.662C334.954 298.058 335.28 298.368 335.684 298.524L346.349 302.633C346.753 302.789 347.203 302.777 347.598 302.602C347.994 302.426 348.304 302.1 348.46 301.696L352.569 291.031C352.725 290.627 352.714 290.177 352.538 289.782C352.362 289.386 352.037 289.076 351.633 288.92L340.967 284.811ZM345.975 304.23C346.092 304.801 346.247 305.354 346.439 305.889C344.961 306.326 343.302 306.432 341.463 306.232C341.607 306.668 341.777 307.465 341.799 307.879C343.724 307.993 345.464 307.814 347.074 307.297C347.867 308.766 349.039 310.093 350.674 311.26C351.025 310.951 351.7 310.478 352.155 310.273C350.589 309.227 349.428 308.008 348.612 306.661C350.088 305.923 351.443 304.863 352.7 303.412L354.527 304.116L355.141 302.521L350.57 300.76L349.956 302.355L351.121 302.804C350.141 303.903 349.086 304.725 347.933 305.303C347.801 304.978 347.686 304.646 347.59 304.309C347.053 304.419 346.498 304.391 345.975 304.23Z" fill="#AE4FCB"/>
</g>
</g>
<g filter="url(#filter3_d_4474_41233)">
<rect x="300.426" y="141.887" width="42" height="42" rx="16" transform="rotate(26.194 300.426 141.887)" fill="#1C2024" shape-rendering="crispEdges"/>
<rect x="300.654" y="142.556" width="41" height="41" rx="15.5" transform="rotate(26.194 300.654 142.556)" stroke="#2C3239" shape-rendering="crispEdges"/>
<g clip-path="url(#clip2_4474_41233)">
<path d="M320.488 161.805C320.089 161.671 319.637 161.71 319.255 161.934C318.753 162.231 318.461 162.803 318.522 163.381C318.573 163.871 318.911 164.236 319.14 164.652C319.348 165.026 319.607 165.571 319.804 166.243C320.197 167.569 320.342 169.344 319.39 171.279C319.024 172.023 319.33 172.921 320.074 173.287C320.819 173.653 321.716 173.348 322.082 172.603C323.448 169.827 323.23 167.244 322.679 165.39C322.407 164.467 322.05 163.717 321.757 163.197C321.452 162.65 321.112 162.012 320.48 161.801L320.488 161.805ZM311.974 164.287C309.552 163.096 306.652 163.947 305.234 166.17C304.79 166.87 303.861 167.071 303.164 166.629C302.467 166.187 302.262 165.256 302.704 164.559C304.933 161.058 309.488 159.721 313.299 161.595C317.387 163.607 319.071 168.552 317.06 172.64C316.108 174.575 314.497 175.971 312.631 176.694C311.858 176.992 311.386 177.377 311.181 177.793L311.055 178.05C309.774 180.653 306.631 181.724 304.027 180.443C303.282 180.077 302.977 179.179 303.343 178.435C303.709 177.69 304.607 177.385 305.351 177.751C306.466 178.299 307.815 177.84 308.363 176.725L308.49 176.469C309.17 175.085 310.455 174.322 311.55 173.9C312.738 173.439 313.76 172.552 314.366 171.32C315.647 168.716 314.576 165.572 311.972 164.292L311.974 164.287ZM294.596 174.127C294.963 173.383 295.86 173.077 296.605 173.443C297.349 173.809 297.655 174.707 297.288 175.451C296.922 176.196 296.025 176.501 295.28 176.135C294.536 175.769 294.23 174.871 294.596 174.127ZM303.313 173.4C304.057 173.766 304.954 173.46 305.321 172.716C305.687 171.971 305.381 171.074 304.637 170.708C303.892 170.342 302.995 170.647 302.629 171.392C302.263 172.136 302.568 173.033 303.313 173.4ZM300.693 170.93C300.426 170.146 299.572 169.726 298.788 169.993C298.003 170.26 297.583 171.114 297.85 171.898L299.218 175.915C299.485 176.699 300.339 177.119 301.123 176.852C301.908 176.585 302.328 175.731 302.061 174.947L300.693 170.93ZM310.319 167.652C309.575 167.286 308.677 167.592 308.311 168.336C308.036 168.896 307.364 169.124 306.805 168.849C306.246 168.574 306.017 167.902 306.292 167.343C307.207 165.484 309.453 164.719 311.312 165.633C313.171 166.548 313.936 168.794 313.022 170.654C312.747 171.213 312.075 171.442 311.516 171.166C310.956 170.891 310.728 170.22 311.003 169.66C311.369 168.916 311.064 168.018 310.319 167.652Z" fill="#FF815C"/>
</g>
</g>
<g filter="url(#filter4_d_4474_41233)">
<rect x="238.933" y="63.5996" width="42" height="42" rx="16" transform="rotate(-9.1356 238.933 63.5996)" fill="#1C2024" shape-rendering="crispEdges"/>
<rect x="239.506" y="64.0139" width="41" height="41" rx="15.5" transform="rotate(-9.1356 239.506 64.0139)" stroke="#2C3239" shape-rendering="crispEdges"/>
<path d="M259.371 86.9639L265.315 84.1722C265.707 83.9826 266.028 83.7145 266.279 83.3678C266.529 83.0211 266.683 82.6326 266.739 82.2023L267.527 75.6821C267.552 75.4459 267.463 75.2543 267.261 75.1071C267.058 74.9599 266.848 74.9358 266.631 75.0348L260.687 77.8266C260.295 78.0162 259.974 78.2842 259.725 78.6308C259.475 78.9773 259.321 79.3659 259.262 79.7964L258.475 86.3166C258.45 86.5528 258.539 86.7444 258.742 86.8915C258.946 87.0386 259.155 87.0627 259.371 86.9639ZM263.299 82.8506C262.784 82.9333 262.319 82.8238 261.901 82.522C261.484 82.2203 261.233 81.812 261.15 81.2971C261.066 80.7822 261.176 80.3163 261.479 79.8995C261.783 79.4827 262.191 79.2322 262.703 79.1482C263.216 79.0641 263.682 79.1739 264.102 79.4777C264.522 79.7815 264.772 80.1895 264.852 80.7017C264.932 81.2138 264.822 81.68 264.524 82.1003C264.225 82.5206 263.817 82.7707 263.299 82.8506ZM264.986 93.3408C263.278 93.6154 261.622 93.5492 260.016 93.1423C258.41 92.7355 256.963 92.0664 255.673 91.1351C254.384 90.2038 253.295 89.039 252.406 87.6408C251.517 86.2426 250.935 84.6903 250.659 82.984C250.384 81.2777 250.45 79.6212 250.858 78.0145C251.266 76.4077 251.935 74.9602 252.865 73.6719C253.796 72.3837 254.961 71.2945 256.359 70.4045C257.758 69.5144 259.311 68.9322 261.016 68.6579C262.722 68.3837 264.378 68.4498 265.986 68.8564C267.593 69.263 269.041 69.9321 270.328 70.8637C271.616 71.7952 272.705 72.9599 273.597 74.3578C274.489 75.7556 275.07 77.3079 275.342 79.0147C275.614 80.7215 275.548 82.3781 275.144 83.9843C274.74 85.5905 274.07 87.038 273.137 88.3268C272.203 89.6156 271.038 90.7052 269.643 91.5955C268.247 92.4859 266.695 93.0677 264.986 93.3408ZM264.589 90.8725C267.324 90.4326 269.499 89.0966 271.114 86.8644C272.728 84.6323 273.315 82.148 272.874 79.4117C272.433 76.6753 271.097 74.5002 268.866 72.8865C266.635 71.2728 264.151 70.686 261.413 71.1262C258.676 71.5664 256.501 72.9029 254.888 75.1356C253.276 77.3682 252.689 79.8521 253.128 82.5871C253.567 85.3221 254.903 87.4971 257.137 89.112C259.371 90.727 261.855 91.3138 264.589 90.8725Z" fill="#1C9FAF"/>
</g>
<g filter="url(#filter5_d_4474_41233)">
<rect x="134.529" y="266.533" width="42" height="42" rx="16" transform="rotate(18.0256 134.529 266.533)" fill="#1C2024" shape-rendering="crispEdges"/>
<rect x="134.85" y="267.163" width="41" height="41" rx="15.5" transform="rotate(18.0256 134.85 267.163)" stroke="#2C3239" shape-rendering="crispEdges"/>
<g clip-path="url(#clip3_4474_41233)">
<path fill-rule="evenodd" clip-rule="evenodd" d="M151.869 281.113C145.304 278.977 138.25 282.567 136.114 289.132C135.543 290.883 135.366 292.738 135.596 294.566L132.736 299.599C132.633 299.779 132.578 299.981 132.573 300.187C132.568 300.394 132.615 300.599 132.709 300.783C132.802 300.967 132.94 301.125 133.11 301.243C133.28 301.361 133.476 301.435 133.682 301.458L139.434 302.107C140.736 303.333 142.324 304.296 144.133 304.885C150.698 307.021 157.751 303.433 159.887 296.867C162.023 290.303 158.434 283.248 151.869 281.112" fill="#00BFA5"/>
</g>
</g>
<g filter="url(#filter6_d_4474_41233)">
<rect x="201" y="357" width="42" height="42" rx="16" fill="#1C2024" shape-rendering="crispEdges"/>
<rect x="201.5" y="357.5" width="41" height="41" rx="15.5" stroke="#2C3239" shape-rendering="crispEdges"/>
<path d="M222 385.5L216.75 387.75C215.917 388.104 215.125 388.037 214.375 387.548C213.625 387.058 213.25 386.365 213.25 385.469V369.25C213.25 368.562 213.495 367.974 213.985 367.485C214.475 366.996 215.063 366.751 215.75 366.75H228.25C228.938 366.75 229.526 366.995 230.016 367.485C230.506 367.975 230.751 368.563 230.75 369.25V385.469C230.75 386.365 230.375 387.058 229.625 387.548C228.875 388.038 228.083 388.105 227.25 387.75L222 385.5Z" fill="#6484FF"/>
</g>
<defs>
<filter id="filter0_dd_4474_41233" x="152.7" y="160.5" width="142.6" height="157.8" filterUnits="userSpaceOnUse" color-interpolation-filters="sRGB">
<feFlood flood-opacity="0" result="BackgroundImageFix"/>
<feColorMatrix in="SourceAlpha" type="matrix" values="0 0 0 0 0 0 0 0 0 0 0 0 0 0 0 0 0 0 127 0" result="hardAlpha"/>
<feOffset dy="6.5"/>
<feGaussianBlur stdDeviation="11"/>
<feComposite in2="hardAlpha" operator="out"/>
<feColorMatrix type="matrix" values="0 0 0 0 0 0 0 0 0 0 0 0 0 0 0 0 0 0 0.11 0"/>
<feBlend mode="normal" in2="BackgroundImageFix" result="effect1_dropShadow_4474_41233"/>
<feColorMatrix in="SourceAlpha" type="matrix" values="0 0 0 0 0 0 0 0 0 0 0 0 0 0 0 0 0 0 127 0" result="hardAlpha"/>
<feOffset dy="18"/>
<feGaussianBlur stdDeviation="13.65"/>
<feComposite in2="hardAlpha" operator="out"/>
<feColorMatrix type="matrix" values="0 0 0 0 0.168627 0 0 0 0 0.278431 0 0 0 0 1 0 0 0 0.13 0"/>
<feBlend mode="normal" in2="effect1_dropShadow_4474_41233" result="effect2_dropShadow_4474_41233"/>
<feBlend mode="normal" in="SourceGraphic" in2="effect2_dropShadow_4474_41233" result="shape"/>
</filter>
<filter id="filter1_d_4474_41233" x="41" y="140" width="69.8623" height="69.8613" filterUnits="userSpaceOnUse" color-interpolation-filters="sRGB">
<feFlood flood-opacity="0" result="BackgroundImageFix"/>
<feColorMatrix in="SourceAlpha" type="matrix" values="0 0 0 0 0 0 0 0 0 0 0 0 0 0 0 0 0 0 127 0" result="hardAlpha"/>
<feOffset dy="7"/>
<feGaussianBlur stdDeviation="4"/>
<feComposite in2="hardAlpha" operator="out"/>
<feColorMatrix type="matrix" values="0 0 0 0 0 0 0 0 0 0 0 0 0 0 0 0 0 0 0.06 0"/>
<feBlend mode="normal" in2="BackgroundImageFix" result="effect1_dropShadow_4474_41233"/>
<feBlend mode="normal" in="SourceGraphic" in2="effect1_dropShadow_4474_41233" result="shape"/>
</filter>
<filter id="filter2_d_4474_41233" x="310.854" y="270.854" width="70.292" height="70.291" filterUnits="userSpaceOnUse" color-interpolation-filters="sRGB">
<feFlood flood-opacity="0" result="BackgroundImageFix"/>
<feColorMatrix in="SourceAlpha" type="matrix" values="0 0 0 0 0 0 0 0 0 0 0 0 0 0 0 0 0 0 127 0" result="hardAlpha"/>
<feOffset dy="7"/>
<feGaussianBlur stdDeviation="4"/>
<feComposite in2="hardAlpha" operator="out"/>
<feColorMatrix type="matrix" values="0 0 0 0 0 0 0 0 0 0 0 0 0 0 0 0 0 0 0.06 0"/>
<feBlend mode="normal" in2="BackgroundImageFix" result="effect1_dropShadow_4474_41233"/>
<feBlend mode="normal" in="SourceGraphic" in2="effect1_dropShadow_4474_41233" result="shape"/>
</filter>
<filter id="filter3_d_4474_41233" x="273.887" y="140.887" width="72.2256" height="72.2266" filterUnits="userSpaceOnUse" color-interpolation-filters="sRGB">
<feFlood flood-opacity="0" result="BackgroundImageFix"/>
<feColorMatrix in="SourceAlpha" type="matrix" values="0 0 0 0 0 0 0 0 0 0 0 0 0 0 0 0 0 0 127 0" result="hardAlpha"/>
<feOffset dy="7"/>
<feGaussianBlur stdDeviation="4"/>
<feComposite in2="hardAlpha" operator="out"/>
<feColorMatrix type="matrix" values="0 0 0 0 0 0 0 0 0 0 0 0 0 0 0 0 0 0 0.06 0"/>
<feBlend mode="normal" in2="BackgroundImageFix" result="effect1_dropShadow_4474_41233"/>
<feBlend mode="normal" in="SourceGraphic" in2="effect1_dropShadow_4474_41233" result="shape"/>
</filter>
<filter id="filter4_d_4474_41233" x="230.933" y="55.9316" width="64.1357" height="64.1348" filterUnits="userSpaceOnUse" color-interpolation-filters="sRGB">
<feFlood flood-opacity="0" result="BackgroundImageFix"/>
<feColorMatrix in="SourceAlpha" type="matrix" values="0 0 0 0 0 0 0 0 0 0 0 0 0 0 0 0 0 0 127 0" result="hardAlpha"/>
<feOffset dy="7"/>
<feGaussianBlur stdDeviation="4"/>
<feComposite in2="hardAlpha" operator="out"/>
<feColorMatrix type="matrix" values="0 0 0 0 0 0 0 0 0 0 0 0 0 0 0 0 0 0 0.06 0"/>
<feBlend mode="normal" in2="BackgroundImageFix" result="effect1_dropShadow_4474_41233"/>
<feBlend mode="normal" in="SourceGraphic" in2="effect1_dropShadow_4474_41233" result="shape"/>
</filter>
<filter id="filter5_d_4474_41233" x="113.533" y="265.533" width="68.9346" height="68.9355" filterUnits="userSpaceOnUse" color-interpolation-filters="sRGB">
<feFlood flood-opacity="0" result="BackgroundImageFix"/>
<feColorMatrix in="SourceAlpha" type="matrix" values="0 0 0 0 0 0 0 0 0 0 0 0 0 0 0 0 0 0 127 0" result="hardAlpha"/>
<feOffset dy="7"/>
<feGaussianBlur stdDeviation="4"/>
<feComposite in2="hardAlpha" operator="out"/>
<feColorMatrix type="matrix" values="0 0 0 0 0 0 0 0 0 0 0 0 0 0 0 0 0 0 0.06 0"/>
<feBlend mode="normal" in2="BackgroundImageFix" result="effect1_dropShadow_4474_41233"/>
<feBlend mode="normal" in="SourceGraphic" in2="effect1_dropShadow_4474_41233" result="shape"/>
</filter>
<filter id="filter6_d_4474_41233" x="193" y="356" width="58" height="58" filterUnits="userSpaceOnUse" color-interpolation-filters="sRGB">
<feFlood flood-opacity="0" result="BackgroundImageFix"/>
<feColorMatrix in="SourceAlpha" type="matrix" values="0 0 0 0 0 0 0 0 0 0 0 0 0 0 0 0 0 0 127 0" result="hardAlpha"/>
<feOffset dy="7"/>
<feGaussianBlur stdDeviation="4"/>
<feComposite in2="hardAlpha" operator="out"/>
<feColorMatrix type="matrix" values="0 0 0 0 0 0 0 0 0 0 0 0 0 0 0 0 0 0 0.06 0"/>
<feBlend mode="normal" in2="BackgroundImageFix" result="effect1_dropShadow_4474_41233"/>
<feBlend mode="normal" in="SourceGraphic" in2="effect1_dropShadow_4474_41233" result="shape"/>
</filter>
<clipPath id="clip0_4474_41233">
<rect width="30" height="30" fill="white" transform="translate(56.6943 158.988) rotate(-20.0685)"/>
</clipPath>
<clipPath id="clip1_4474_41233">
<rect width="30" height="30" fill="white" transform="translate(337.396 279.609) rotate(21.0711)"/>
</clipPath>
<clipPath id="clip2_4474_41233">
<rect width="30" height="30" fill="white" transform="translate(303.161 149.92) rotate(26.194)"/>
</clipPath>
<clipPath id="clip3_4474_41233">
<rect width="30" height="30" fill="white" transform="translate(138.378 274.096) rotate(18.0256)"/>
</clipPath>
</defs>
</svg>
