<svg width="18" height="18" viewBox="0 0 18 18" fill="none" xmlns="http://www.w3.org/2000/svg"><path d="M6.47 9a.28.28 0 1 1-.56 0 .28.28 0 0 1 .56 0m0 0h-.28m3.1 0a.28.28 0 1 1-.57 0 .28.28 0 0 1 .56 0m0 0H9m3.1 0a.28.28 0 1 1-.57 0 .28.28 0 0 1 .56 0m0 0h-.29m3.94 0c0 3.42-3.02 6.19-6.75 6.19q-1-.01-1.92-.26a4.5 4.5 0 0 1-3.38.75q.55-.65.74-1.52c.06-.34-.1-.68-.35-.92A6 6 0 0 1 2.25 9c0-3.42 3.02-6.19 6.75-6.19S15.75 5.58 15.75 9" stroke="#9AA3AF" stroke-width="1.125" stroke-linecap="round" stroke-linejoin="round"/></svg>