<svg width="24" height="24" viewBox="0 0 24 24" fill="none" xmlns="http://www.w3.org/2000/svg"><path d="M8.63 12a.38.38 0 1 1-.76 0 .38.38 0 0 1 .75 0m0 0h-.38m4.13 0a.38.38 0 1 1-.76 0 .38.38 0 0 1 .76 0m0 0H12m4.13 0a.38.38 0 1 1-.76 0 .38.38 0 0 1 .76 0m0 0h-.38M21 12c0 4.56-4.03 8.25-9 8.25q-1.34 0-2.55-.34a6 6 0 0 1-4.51 1q.73-.87.97-2.03c.1-.46-.13-.9-.46-1.23A8 8 0 0 1 3 12c0-4.56 4.03-8.25 9-8.25s9 3.7 9 8.25" stroke="#5E6875" stroke-width="1.5" stroke-linecap="round" stroke-linejoin="round"/></svg>