<svg width="20" height="20" viewBox="0 0 20 20" fill="none" xmlns="http://www.w3.org/2000/svg">
<path d="M7.49935 18.3327H12.4993C16.666 18.3327 18.3327 16.666 18.3327 12.4993V7.49935C18.3327 3.33268 16.666 1.66602 12.4993 1.66602H7.49935C3.33268 1.66602 1.66602 3.33268 1.66602 7.49935V12.4993C1.66602 16.666 3.33268 18.3327 7.49935 18.3327Z" stroke="#424A55" stroke-width="1.5" stroke-linecap="round" stroke-linejoin="round"/>
<path d="M5.83398 6.875C6.66732 7.70833 8.02565 7.70833 8.86732 6.875" stroke="#424A55" stroke-width="1.5" stroke-miterlimit="10" stroke-linecap="round" stroke-linejoin="round"/>
<path d="M11.1328 6.875C11.9661 7.70833 13.3245 7.70833 14.1661 6.875" stroke="#424A55" stroke-width="1.5" stroke-miterlimit="10" stroke-linecap="round" stroke-linejoin="round"/>
<path d="M7 10.834H13C13.4167 10.834 13.75 11.1673 13.75 11.584C13.75 13.659 12.075 15.334 10 15.334C7.925 15.334 6.25 13.659 6.25 11.584C6.25 11.1673 6.58333 10.834 7 10.834Z" stroke="#424A55" stroke-width="1.5" stroke-miterlimit="10" stroke-linecap="round" stroke-linejoin="round"/>
</svg>
