<svg width="20" height="20" viewBox="0 0 20 20" fill="none" xmlns="http://www.w3.org/2000/svg">
<path d="M7.50033 18.3327H12.5003C16.667 18.3327 18.3337 16.666 18.3337 12.4993V7.49935C18.3337 3.33268 16.667 1.66602 12.5003 1.66602H7.50033C3.33366 1.66602 1.66699 3.33268 1.66699 7.49935V12.4993C1.66699 16.666 3.33366 18.3327 7.50033 18.3327Z" stroke="#879AFF" stroke-width="1.5" stroke-linecap="round" stroke-linejoin="round"/>
<path d="M5.83301 6.875C6.66634 7.70833 8.02467 7.70833 8.86634 6.875" stroke="#879AFF" stroke-width="1.5" stroke-miterlimit="10" stroke-linecap="round" stroke-linejoin="round"/>
<path d="M11.1338 6.875C11.9671 7.70833 13.3255 7.70833 14.1671 6.875" stroke="#879AFF" stroke-width="1.5" stroke-miterlimit="10" stroke-linecap="round" stroke-linejoin="round"/>
<path d="M7 10.834H13C13.4167 10.834 13.75 11.1673 13.75 11.584C13.75 13.659 12.075 15.334 10 15.334C7.925 15.334 6.25 13.659 6.25 11.584C6.25 11.1673 6.58333 10.834 7 10.834Z" stroke="#879AFF" stroke-width="1.5" stroke-miterlimit="10" stroke-linecap="round" stroke-linejoin="round"/>
</svg>
