<svg width="20" height="20" viewBox="0 0 20 20" fill="none" xmlns="http://www.w3.org/2000/svg"><path d="M7.5 18.33h5c4.17 0 5.83-1.66 5.83-5.83v-5c0-4.17-1.66-5.83-5.83-5.83h-5c-4.17 0-5.83 1.66-5.83 5.83v5c0 4.17 1.66 5.83 5.83 5.83" stroke="#4352DB" stroke-width="1.5" stroke-linecap="round" stroke-linejoin="round"/><path d="M5.83 6.88c.84.83 2.2.83 3.04 0m2.26 0c.84.83 2.2.83 3.04 0M7 10.83h6c.42 0 .75.34.75.75a3.74 3.74 0 1 1-7.5 0c0-.41.33-.75.75-.75" stroke="#4352DB" stroke-width="1.5" stroke-miterlimit="10" stroke-linecap="round" stroke-linejoin="round"/></svg>