<svg width="48" height="48" viewBox="0 0 48 48" fill="none" xmlns="http://www.w3.org/2000/svg"><path d="M24 24a10 10 0 1 0 0-20 10 10 0 0 0 0 20M6.82 44c0-7.74 7.7-14 17.18-14q2.9.01 5.52.74" stroke="#CC2F26" stroke-width="3" stroke-linecap="round" stroke-linejoin="round"/><path d="M44 36q0 .96-.24 1.86-.28 1.22-.92 2.26a7.94 7.94 0 0 1-12.16 1.82A7.8 7.8 0 0 1 28 36a8 8 0 1 1 16 0m-5.94-2.12-4.22 4.22m.04-4.18 4.24 4.22" stroke="#CC2F26" stroke-width="3" stroke-miterlimit="10" stroke-linecap="round" stroke-linejoin="round"/></svg>