<svg width="32" height="32" viewBox="0 0 32 32" fill="none" xmlns="http://www.w3.org/2000/svg"><rect width="32" height="32" rx="16" fill="#E2E6FF"/><path d="M17 11h-5.34q-.33 0-.63.03-3.36.3-3.36 3.96v3.33c0 3.34 1.33 4 3.99 4h.33c.19 0 .43.12.54.26l1 1.34c.44.59 1.15.59 1.6 0l1-1.34a.7.7 0 0 1 .53-.26h.33q3.67 0 3.96-3.37.04-.3.03-.62v-3.34Q20.98 11 17 11m-5.58 6.67a.83.83 0 0 1-.84-.84.84.84 0 0 1 1.67 0c0 .46-.37.84-.83.84m2.9 0a.83.83 0 0 1-.83-.84.84.84 0 0 1 1.67 0c0 .46-.37.84-.83.84m2.92 0a.83.83 0 0 1-.83-.84.83.83 0 1 1 .83.84" fill="#5367FF"/><path d="M24.32 11.66v3.33q0 2.5-1.55 3.43c-.25.15-.55-.05-.55-.34l.01-3.09c0-3.33-1.9-5.24-5.24-5.24h-5.07c-.3 0-.5-.28-.35-.53q.94-1.55 3.42-1.55h5.33q4 0 4 3.99" fill="#5367FF"/></svg>