<svg width="24" height="24" viewBox="0 0 24 24" fill="none" xmlns="http://www.w3.org/2000/svg"><path d="M22 5.11v11.36c0 1.45-1.04 2.06-2.31 1.36l-1.93-1.08a.5.5 0 0 1-.26-.44V8.99a4.6 4.6 0 0 0-4.61-4.61H8.82c-.37 0-.63-.39-.46-.71A3.1 3.1 0 0 1 11.11 2h7.78C20.6 2 22 3.4 22 5.11" fill="#2B47FF"/><path d="M12.89 5.88H5.11A3.1 3.1 0 0 0 2 8.99v11.36c0 1.45 1.04 2.06 2.31 1.36l3.93-2.19c.42-.23 1.1-.23 1.52 0l3.93 2.19c1.27.7 2.31.09 2.31-1.36V8.99c0-1.71-1.4-3.11-3.11-3.11M11 12.75H9.75V14c0 .41-.34.75-.75.75a.76.76 0 0 1-.75-.75v-1.25H7a.76.76 0 0 1-.75-.75c0-.41.34-.75.75-.75h1.25V10c0-.41.34-.75.75-.75s.75.34.75.75v1.25H11c.41 0 .75.34.75.75s-.34.75-.75.75" fill="#2B47FF"/></svg>