<svg width="18" height="18" viewBox="0 0 18 18" fill="none" xmlns="http://www.w3.org/2000/svg"><path d="M16.5 3.83v8.52c0 1.09-.78 1.55-1.73 1.02l-1.45-.8a.4.4 0 0 1-.2-.34V6.74c0-1.9-1.55-3.45-3.45-3.45H6.62c-.28 0-.48-.3-.35-.54A2.3 2.3 0 0 1 8.33 1.5h5.84a2.34 2.34 0 0 1 2.33 2.33" fill="#8CA3FF"/><path d="M9.67 4.41H3.83A2.34 2.34 0 0 0 1.5 6.74v8.52c0 1.09.78 1.55 1.73 1.02l2.95-1.64c.32-.17.83-.17 1.14 0l2.95 1.64c.95.53 1.73.07 1.73-1.02V6.74a2.34 2.34 0 0 0-2.33-2.33M8.25 9.56h-.94v.94c0 .3-.25.56-.56.56a.57.57 0 0 1-.56-.56v-.94h-.94A.57.57 0 0 1 4.69 9c0-.3.25-.56.56-.56h.94V7.5c0-.3.25-.56.56-.56.3 0 .56.25.56.56v.94h.94c.3 0 .56.25.56.56 0 .3-.25.56-.56.56" fill="#8CA3FF"/></svg>