<svg width="20" height="20" viewBox="0 0 20 20" fill="none" xmlns="http://www.w3.org/2000/svg"><path d="M13.33 7.5v9.46c0 1.2-.86 1.72-1.92 1.13l-3.28-1.82a1.4 1.4 0 0 0-1.26 0l-3.28 1.82c-1.06.59-1.92.08-1.92-1.13V7.49A2.6 2.6 0 0 1 4.26 4.9h6.48a2.6 2.6 0 0 1 2.6 2.6" stroke="#879AFF" stroke-width="1.5" stroke-linecap="round" stroke-linejoin="round"/><path d="M18.33 4.26v9.46c0 1.21-.86 1.72-1.92 1.14l-3.08-1.72V7.5a2.6 2.6 0 0 0-2.59-2.6H6.67v-.63a2.6 2.6 0 0 1 2.59-2.6h6.48a2.6 2.6 0 0 1 2.6 2.6M5.83 10h3.34M7.5 11.67V8.33" stroke="#879AFF" stroke-width="1.5" stroke-linecap="round" stroke-linejoin="round"/></svg>