<svg width="18" height="18" viewBox="0 0 18 18" fill="none" xmlns="http://www.w3.org/2000/svg"><path d="M2.25 6.83v4.33c0 1.59 0 1.59 1.5 2.6l4.13 2.39c.62.36 1.63.36 2.25 0l4.12-2.39c1.5-1.01 1.5-1.01 1.5-2.6V6.84c0-1.58 0-1.58-1.5-2.6l-4.12-2.38a2.5 2.5 0 0 0-2.26 0L3.76 4.24c-1.5 1.01-1.5 1.01-1.5 2.6" stroke="#424A55" stroke-width="1.5" stroke-linecap="round" stroke-linejoin="round"/><path d="M9 11.25a2.25 2.25 0 1 0 0-4.5 2.25 2.25 0 0 0 0 4.5" stroke="#424A55" stroke-width="1.5" stroke-linecap="round" stroke-linejoin="round"/></svg>