<svg width="24" height="24" viewBox="0 0 24 24" fill="none" xmlns="http://www.w3.org/2000/svg"><path d="M12.54 18.42c-.68.5-1.41.92-2.24 1.04v-1.04z" fill="#424A55" stroke="#424A55"/><path d="M2.26 10.62v1.52c0 1.9 1.51 2.27 1.51 2.27s1.52 4.55 6.07 4.55" stroke="#424A55" stroke-width="2" stroke-miterlimit="10" stroke-linecap="round"/><path d="M9.84.5c1.43 0 2.28.36 2.76.67a2 2 0 0 1 .58.55v.02h.01l.14.28h.3c1.28 0 2.28.78 2.98 2.02a9 9 0 0 1 1.08 4.3v2.54H16.4c-.07-2.2-.62-3.82-1.18-4.92a8 8 0 0 0-1.2-1.74l-.03-.02-.01-.01-.34.36.33-.37-.52-.48-.27.65C12.16 6.72 10 7.08 7.77 7.47c-1.07.19-2.2.39-3.04.92q-.67.41-1.07 1.16-.3.57-.36 1.33H2V8.34l.01-.46C2.27 3.2 6.38.5 9.84.5Z" fill="#424A55" stroke="#424A55"/><path d="M10.6 15.93h3.8a3.03 3.03 0 0 0 3.03-3.04v-2.27" stroke="#424A55" stroke-width="1.5" stroke-miterlimit="10" stroke-linecap="round"/><path d="M17.43 10.36a1 1 0 0 1 1.01 1.02v.75a1 1 0 0 1-1.01 1.02H16.4v-2.8zm-7.86 4.36h.83a.75.75 0 0 1 .53 1.27.8.8 0 0 1-.53.22h-.83a.75.75 0 0 1-.53-1.27.8.8 0 0 1 .53-.22Z" fill="#424A55" stroke="#424A55"/></svg>