<svg width="24" height="24" viewBox="0 0 24 24" fill="none" xmlns="http://www.w3.org/2000/svg">
<path d="M9.17258 14.8306C8.80114 14.4591 8.50649 14.0181 8.30547 13.5328C8.10444 13.0475 8.00098 12.5274 8.00098 12.0021C8.00098 11.4768 8.10444 10.9566 8.30547 10.4713C8.50649 9.98597 8.80114 9.545 9.17258 9.17356C9.54402 8.80211 9.98499 8.50747 10.4703 8.30644C10.9556 8.10542 11.4758 8.00195 12.0011 8.00195C12.5264 8.00195 13.0465 8.10542 13.5319 8.30644C14.0172 8.50747 14.4581 8.80211 14.8296 9.17356" stroke="#CBD2D9" stroke-width="1.25" stroke-linecap="round" stroke-linejoin="round"/>
<path d="M11.294 12.707L11.468 12.954C12.4572 14.2915 13.863 15.2621 15.4641 15.7133C17.0653 16.1644 18.7711 16.0704 20.313 15.446C19.7455 16.8115 18.8504 18.0161 17.7066 18.9534C16.5629 19.8906 15.2058 20.5317 13.7555 20.8197C12.3051 21.1078 10.8061 21.0341 9.39095 20.6051C7.97584 20.1761 6.68824 19.405 5.642 18.36M3 12H4M12 3V4M5.6 5.6L6.3 6.3M3 21L21 3" stroke="#CBD2D9" stroke-width="1.25" stroke-linecap="round" stroke-linejoin="round"/>
</svg>
