<svg width="20" height="20" viewBox="0 0 20 20" fill="none" xmlns="http://www.w3.org/2000/svg"><g clip-path="url(#clip0_4607_7155)"><path d="M17.5 4.98a85 85 0 0 0-8.35-.41q-2.47 0-4.95.25l-1.7.16m4.58-.84.19-1.1c.13-.78.23-1.37 1.64-1.37h2.18c1.41 0 1.52.62 1.64 1.39l.19 1.08m2.79 3.48L15.17 16c-.1 1.3-.17 2.32-2.5 2.32H7.34c-2.33 0-2.4-1.01-2.5-2.32L4.3 7.6m4.32 6.14h2.77m-3.46-3.33h4.16" stroke="#FF5E54" stroke-width="1.5" stroke-linecap="round" stroke-linejoin="round"/></g><defs><clipPath id="clip0_4607_7155"><rect width="20" height="20" rx="6" fill="white"/></clipPath></defs></svg>