<svg width="24" height="24" viewBox="0 0 24 24" fill="none" xmlns="http://www.w3.org/2000/svg"><path d="M18.14 21.62q-1.31.39-3.14.38H9q-1.82 0-3.14-.38c.22-2.6 2.89-4.65 6.14-4.65s5.92 2.05 6.14 4.65" stroke="#5E6875" stroke-width="1.5" stroke-linecap="round" stroke-linejoin="round"/><path d="M15 2H9C4 2 2 4 2 9v6c0 3.78 1.14 5.85 3.86 6.62.22-2.6 2.89-4.65 6.14-4.65s5.92 2.05 6.14 4.65C20.86 20.85 22 18.78 22 15V9c0-5-2-7-7-7m-3 12.17A3.58 3.58 0 1 1 12.01 7a3.58 3.58 0 0 1-.01 7.17" stroke="#5E6875" stroke-width="1.5" stroke-linecap="round" stroke-linejoin="round"/><path d="M15.58 10.58a3.58 3.58 0 1 1-7.17.01 3.58 3.58 0 0 1 7.17-.01" stroke="#5E6875" stroke-width="1.5" stroke-linecap="round" stroke-linejoin="round"/></svg>